<svg width="203" height="69" fill="none" xmlns="http://www.w3.org/2000/svg"><path d="M21.66 12.61l-3.082 3.082 3.083 3.083 3.083-3.083-3.083-3.082zm5.63 5.313l3.713 3.794 3.149-3.148-3.149-3.068h.08-.08l3.149-3.149-3.149-3.068-3.714 3.714-2.422 2.503 2.422 2.422zm-5.61 13.074l-3.082 3.083 3.082 3.083 3.083-3.083-3.083-3.083z" fill="#333"/><path d="M24.786 40.368l-3.068-3.149-3.068 3.149-6.217-6.217 1.696-1.776 3.875-3.795.565-.646 1.373 1.373h.08l1.696 1.695 3.068-3.068 3.148-3.148-3.148-3.068-3.068 3.068-3.149-3.068-1.453 1.453-1.615 1.615-.646.646-3.794 3.875-1.776 1.695-3.068 3.149-3.149-3.149L0 34.151l3.068 3.068 3.149-3.068 1.614 1.615 1.454 1.453 3.148 3.149 3.714 3.713 2.503 2.503 3.068-3.148 3.068 3.148 3.148-3.148-3.148-3.068zm-3.07 9.262l-3.083 3.083 3.083 3.083 3.082-3.083-3.082-3.083z" fill="#333"/><path d="M49.572 46.584l-1.937-1.937-.727-.727-.404-.404-3.068-3.148 4.118-4.118 2.099-2.099-6.217-6.217 3.068-3.068 3.068-3.067-2.422-2.422-.646-.808-3.068-3.068.888-.888 3.391-3.39 1.938-1.938-2.422-2.422-.727-.727-3.068-3.068-.726-.727L40.368 0 37.3 3.068l-3.067 3.068L37.3 9.204l-3.067 3.068L37.3 15.34l-.888.888-2.26 2.341 3.068 3.068 2.26-2.26.808-.808 3.068 3.068-3.068 3.068-3.068-3.068-3.068 3.068-3.068-3.068-3.068 3.068 3.068 3.068 3.068-3.068 3.068 3.068-3.068 3.068 3.068 3.068 3.068-3.068 3.068 3.068-3.068 3.068-3.068-3.068-3.068 3.068-3.068-3.068 1.372-1.373 1.776-1.776-3.067-3.068-1.777 1.776-1.372 1.373-3.068 3.068 3.068 3.068 3.068 3.068-3.068 3.068 3.068 3.068 3.068-3.068 3.068 3.068 3.068-3.068 3.068 3.068-3.15 3.148-3.067-3.068-3.068 3.068-3.068-3.068-6.136 6.136 2.422 2.422 3.714 3.714 3.068-3.068 3.068 3.068 3.068-3.068.161.162 2.988 2.987-2.988 3.472-3.068-3.068-3.067 3.068 3.067 3.067 3.068 3.068 3.068-3.068.081-.08 3.068-3.068 3.068-3.068-3.068-3.068-3.068-3.068 3.149-3.149 2.906-3.068zM40.368 6.217l3.068 3.068-3.068 3.067L37.3 9.285l1.857-1.857 1.211-1.211zm-3.148 34.07l-3.068 3.068-3.068-3.068 3.068-3.068 3.068 3.068zm-3.068 15.582L31.084 52.8l3.068-3.068L37.22 52.8l-3.068 3.068z" fill="#333"/><path d="M55.869 27.935l-6.217 6.216 6.217 6.217-6.217 6.136 6.217 6.216 6.136-6.216-6.136-6.136 6.136-6.217-6.136-6.216zm-.06-12.467l-6.223 6.222 6.223 6.223 6.222-6.223-6.222-6.222zM68.25 27.889l-6.223 6.223 6.224 6.223 6.222-6.224-6.223-6.222zM87.196 8.315v1.13h-6.782v5.087h6.62v1.13h-6.62v6.136h-1.21V8.315h7.992zm3.148 0h1.21V21.88h-1.21V8.315zm10.091 0c3.876 0 6.944 3.068 6.944 6.782s-3.149 6.782-6.944 6.782h-4.763V8.315h4.763zm0 12.353c3.149 0 5.732-2.503 5.732-5.57 0-3.069-2.583-5.572-5.732-5.572h-3.552v11.142h3.552zm18.49-12.353v1.13h-6.782v4.764h6.701v1.13h-6.701v5.329h6.863v1.13h-8.154V8.315h8.073zm28.498 0l-4.521 13.564h-1.372l-3.553-11.626-3.552 11.626h-1.373l-4.521-13.564h1.292l3.956 11.546 3.552-11.546h1.454l3.552 11.546 3.956-11.546h1.13zm16.147 6.783c0 3.875-3.149 6.943-6.943 6.943-3.795 0-6.943-3.068-6.943-6.944 0-3.875 3.148-6.943 6.943-6.943 3.794 0 6.943 3.149 6.943 6.944zm-7.024-5.733c-3.149 0-5.732 2.584-5.732 5.732 0 3.15 2.583 5.733 5.732 5.733s5.732-2.584 5.732-5.732c.081-3.15-2.502-5.733-5.732-5.733zm14.857-1.05c2.502 0 4.117 1.534 4.117 3.795 0 2.018-1.372 3.472-3.391 3.714l3.876 6.055h-1.454l-3.875-5.974h-2.664v5.974h-1.211V8.315h4.602zm-.081 6.379c1.695 0 2.906-1.05 2.906-2.584s-1.291-2.584-2.906-2.584h-3.31v5.168h3.31zm9.528-6.379v12.353h6.54v1.211h-7.831V8.315h1.291zm14.21 0c3.876 0 6.944 3.068 6.944 6.782s-3.149 6.782-6.944 6.782h-4.763V8.315h4.763zm0 12.353c3.149 0 5.732-2.503 5.732-5.57 0-3.069-2.583-5.572-5.732-5.572h-3.552v11.142h3.552zM90.264 38.995c-1.292.969-2.745 1.534-4.36 1.534a6.892 6.892 0 01-6.943-6.943c0-3.875 3.149-6.943 6.943-6.943a6.99 6.99 0 014.36 1.534l-.888.888c-.969-.727-2.18-1.13-3.472-1.13-3.148 0-5.732 2.583-5.732 5.732 0 3.148 2.584 5.732 5.732 5.732 1.292 0 2.503-.404 3.472-1.13l.888.726zm11.787-12.19h1.211v13.563h-1.211V33.91h-7.508v6.46h-1.211V26.804h1.211v5.893h7.508v-5.893zm13.401 0v1.13h-6.781v4.763h6.701v1.211h-6.701v5.329h6.862v1.13h-8.154V26.805h8.073zm6.056 6.942c-2.099-.565-3.552-1.695-3.552-3.552 0-2.422 1.937-3.552 3.956-3.552 1.211 0 2.341.403 3.148 1.13l-.807.888c-.646-.565-1.534-.807-2.341-.807-1.373 0-2.665.807-2.665 2.34 0 1.293.889 2.1 2.746 2.585l.968.322c1.938.646 3.068 1.777 3.068 3.795 0 2.341-2.018 3.633-4.198 3.714-1.453 0-2.987-.485-3.956-1.534l.807-.888c.808.888 2.019 1.291 3.149 1.291 1.534-.08 2.987-.968 2.987-2.502 0-1.453-.807-2.18-2.341-2.745l-.969-.485zm10.172 0c-2.099-.565-3.552-1.695-3.552-3.552 0-2.422 1.937-3.552 3.956-3.552 1.211 0 2.341.403 3.148 1.13l-.807.888c-.646-.565-1.534-.807-2.341-.807-1.373 0-2.665.807-2.665 2.34 0 1.293.888 2.1 2.745 2.585l.969.322c1.938.646 3.068 1.777 3.068 3.795 0 2.341-2.018 3.633-4.198 3.714-1.453 0-2.987-.485-3.956-1.534l.807-.888c.808.888 2.019 1.291 3.149 1.291 1.534-.08 2.987-.968 2.987-2.502 0-1.453-.807-2.18-2.341-2.745l-.969-.485zm24.947 5.248c-1.292.969-2.745 1.534-4.36 1.534a6.892 6.892 0 01-6.943-6.943c0-3.875 3.149-6.943 6.943-6.943a6.99 6.99 0 014.36 1.534l-.888.888c-.969-.727-2.18-1.13-3.472-1.13-3.148 0-5.732 2.583-5.732 5.732 0 3.148 2.584 5.732 5.732 5.732 1.292 0 2.503-.404 3.472-1.13l.888.726zm12.434-12.19h1.291v8.558c0 2.825-2.26 5.167-5.328 5.167-3.068 0-5.329-2.342-5.329-5.167v-8.558h1.292V35.2a3.997 3.997 0 004.037 4.037 3.998 3.998 0 004.037-4.037v-8.396zm9.688 0c2.503 0 4.198 1.534 4.198 4.037 0 2.422-1.614 4.036-4.198 4.036h-3.229v5.49h-1.211V26.805h4.44zm0 6.782c1.776 0 2.987-1.13 2.987-2.826 0-1.696-1.292-2.745-2.987-2.745h-3.229v5.57h3.229zM79.284 47.07c1.13-.97 2.422-1.535 3.794-1.535 1.13 0 2.261.323 3.15 1.211.645.646 1.13 1.696 1.049 2.745 0 1.211-.646 2.422-2.18 3.149-2.18 1.13-3.552 2.018-3.552 3.552h5.65v2.342h-8.234v-2.019c.161-2.987 2.26-4.521 4.925-5.813.646-.323.969-.807 1.05-1.291 0-.404-.081-.808-.324-1.05-.242-.323-.807-.565-1.372-.565-.727 0-1.534.242-2.18.969l-1.776-1.696zm20.426 5.166c0 3.876-2.502 6.217-5.167 6.217-2.745 0-5.086-2.342-5.086-6.217 0-4.602 2.422-6.7 5.086-6.7 2.665 0 5.167 2.098 5.167 6.7zm-7.67 0c0 2.584 1.05 3.795 2.503 3.795 1.373 0 2.665-1.13 2.665-3.795 0-3.23-1.211-4.279-2.665-4.279-1.453.081-2.502 1.211-2.502 4.28zm10.335-6.54h2.503v12.757h-2.503V45.696zm6.863 10.577c.888 0 1.777-.161 2.503-.484.808-.404 1.534-.969 2.019-1.938-.485.323-1.05.485-1.696.485-2.018 0-4.037-1.615-4.037-4.36 0-2.18 1.454-4.36 4.279-4.36 2.422 0 3.956 1.938 4.279 4.36.485 3.149-.726 5.732-2.825 7.266-1.211.888-2.826 1.453-4.522 1.453v-2.422zm3.068-8.316c-1.13 0-1.776.97-1.776 2.019 0 1.05.646 2.018 1.776 2.018 1.131 0 1.857-.807 1.857-2.018 0-1.211-.807-2.018-1.857-2.018z" fill="#333"/></svg>