<svg width="18" height="12" viewBox="0 0 18 12" fill="none" xmlns="http://www.w3.org/2000/svg">
<path d="M10.0399 11.5476L17.561 3.58073C17.8537 3.28734 18 2.92097 18 2.4809C18 2.04083 17.8536 1.67446 17.561 1.38107L16.6944 0.452396C16.4094 0.150913 16.063 0.000171021 15.6548 0.000171003C15.2543 0.000170986 14.9037 0.15087 14.6034 0.452396L8.99996 6.39102L3.38498 0.452138C3.09998 0.150741 2.75355 -6.66444e-07 2.34529 -6.84289e-07C1.94484 -7.01794e-07 1.59416 0.150698 1.29398 0.452138L0.427483 1.3809C0.142481 1.68234 -8.95686e-08 2.04909 -1.08436e-07 2.48073C-1.27311e-07 2.91254 0.142481 3.27921 0.427482 3.58056L7.94865 11.5476C8.24903 11.8491 8.59951 12 9 12C9.40822 12 9.75485 11.8491 10.0399 11.5476Z" fill="#A2CC5C"/>
</svg>
