<svg width="39" height="15" viewBox="0 0 39 15" fill="none" xmlns="http://www.w3.org/2000/svg">
<path d="M37.5339 6.41667L33.8379 6.41667C33.3307 3.34758 30.7179 1 27.5723 1C24.4672 1 21.8677 3.23113 21.2656 6.18863C20.7477 5.74771 20.1568 5.51371 19.5339 5.51371C18.9115 5.51371 18.3211 5.74771 17.8032 6.18808C17.208 3.23058 14.6406 1 11.5723 1C8.20378 1 5.43522 3.62762 5.16108 6.95833L1.53333 6.95833C1.2384 6.95833 1 7.201 1 7.5C1 7.799 1.2384 8.04167 1.53333 8.04167H5.16108C5.43522 11.3724 8.20378 14 11.5723 14C15.0214 14 17.8315 11.1795 17.9248 7.67821C18.3798 6.98217 18.9461 6.59704 19.5339 6.59704C20.1216 6.59704 20.688 6.98271 21.1429 7.67821C21.2379 11.1795 24.0821 14 27.5723 14C31.08 14 33.9339 11.0842 33.9339 7.5L37.5339 7.5C37.8288 7.5 38.0672 7.25733 38.0672 6.95833C38.0672 6.65933 37.8288 6.41667 37.5339 6.41667ZM11.5723 12.9167C8.61071 12.9167 6.20055 10.4867 6.20055 7.5C6.20055 4.51325 8.61071 2.08333 11.5723 2.08333C14.5419 2.08333 16.8672 4.46287 16.8672 7.5C16.8672 10.5371 14.5419 12.9167 11.5723 12.9167ZM27.5723 12.9167C24.6107 12.9167 22.2005 10.4867 22.2005 7.5C22.2005 4.51325 24.6107 2.08333 27.5723 2.08333C30.5419 2.08333 32.8672 4.46287 32.8672 7.5C32.8672 10.5371 30.5419 12.9167 27.5723 12.9167Z" fill="#A2CC5C" stroke="#A2CC5C"/>
</svg>
