<svg width="25" height="25" viewBox="0 0 25 25" fill="none" xmlns="http://www.w3.org/2000/svg">
<path fill-rule="evenodd" clip-rule="evenodd" d="M17.9028 0H6.82349C3.06102 0 0 3.06117 0 6.82364V17.9029C0 21.6655 3.06102 24.7266 6.82349 24.7266H17.9028C21.6655 24.7266 24.7266 21.6654 24.7266 17.9029V6.82364C24.7267 3.06117 21.6655 0 17.9028 0ZM12.3634 5.9912C8.85014 5.9912 5.99198 8.84936 5.99198 12.3626C5.99198 15.8757 8.85014 18.7337 12.3634 18.7337C15.8766 18.7337 18.7348 15.8757 18.7348 12.3626C18.7348 8.84936 15.8766 5.9912 12.3634 5.9912ZM12.3634 16.5397C10.06 16.5397 8.18584 14.6659 8.18584 12.3625C8.18584 10.0589 10.0598 8.18491 12.3634 8.18491C14.6669 8.18491 16.5409 10.0589 16.5409 12.3625C16.5409 14.6659 14.6668 16.5397 12.3634 16.5397ZM17.8656 4.60186C18.1641 4.30204 18.5793 4.13091 19.002 4.13091C19.4262 4.13091 19.8415 4.30204 20.1399 4.60186C20.4397 4.90023 20.6109 5.3156 20.6109 5.73975C20.6109 6.16243 20.4397 6.5778 20.1399 6.87763C19.8401 7.17599 19.4262 7.34858 19.002 7.34858C18.5793 7.34858 18.164 7.17599 17.8656 6.87763C17.5658 6.5778 17.3932 6.16258 17.3932 5.73975C17.3932 5.3156 17.5656 4.90023 17.8656 4.60186Z" fill="white"/>
</svg>
