<svg width="203" height="69" viewBox="0 0 203 69" fill="none" xmlns="http://www.w3.org/2000/svg">
<path d="M21.6609 12.6096L18.5781 15.6924L21.6609 18.7751L24.7436 15.6924L21.6609 12.6096Z" fill="#333333"/>
<path d="M27.2892 17.9229L31.0031 21.7174L34.1518 18.5688L31.0031 15.5008H31.0838H31.0031L34.1518 12.3521L31.0031 9.28418L27.2892 12.998L24.8672 15.5008L27.2892 17.9229Z" fill="#333333"/>
<path d="M21.6804 30.9973L18.5977 34.0801L21.6804 37.1628L24.7632 34.0801L21.6804 30.9973Z" fill="#333333"/>
<path d="M24.7858 40.3677L21.7178 37.219L18.6499 40.3677L12.4333 34.151L14.1287 32.3748L18.004 28.5803L18.5691 27.9344L19.9416 29.3069H20.0224L21.7178 31.0023L24.7858 27.9344L27.9345 24.7857L24.7858 21.7178L21.7178 24.7857L18.5691 21.7178L17.1159 23.171L15.5012 24.7857L14.8553 25.4316L11.0608 29.3069L9.28457 31.0023L6.21663 34.151L3.06795 31.0023L0 34.151L3.06795 37.219L6.21663 34.151L7.83134 35.7657L9.28457 37.219L12.4333 40.3677L16.1471 44.0815L18.6499 46.5843L21.7178 43.4356L24.7858 46.5843L27.9345 43.4356L24.7858 40.3677Z" fill="#333333"/>
<path d="M21.7156 49.6301L18.6328 52.7129L21.7156 55.7956L24.7983 52.7129L21.7156 49.6301Z" fill="#333333"/>
<path d="M49.5722 46.5843L47.6346 44.6467L46.908 43.9201L46.5043 43.5164L43.4363 40.3677L47.5538 36.2502L49.653 34.1511L43.4363 27.9345L46.5043 24.8665L49.5722 21.7986L47.1502 19.3765L46.5043 18.5691L43.4363 15.5012L44.3244 14.6131L47.7153 11.2222L49.653 9.28457L47.2309 6.86251L46.5043 6.13589L43.4363 3.06795L42.7097 2.34133L40.3684 0L37.3004 3.06795L34.2325 6.13589L37.3004 9.20384L34.2325 12.2718L37.3004 15.3397L36.4124 16.2278L34.1518 18.5691L37.2197 21.6371L39.4803 19.3765L40.2877 18.5691L43.3556 21.6371L40.2877 24.705L37.2197 21.6371L34.1518 24.705L31.0838 21.6371L28.0159 24.705L31.0838 27.773L34.1518 24.705L37.2197 27.773L34.1518 30.8409L37.2197 33.9089L40.2877 30.8409L43.3556 33.9089L40.2877 36.9768L37.2197 33.9089L34.1518 36.9768L31.0838 33.9089L32.4563 32.5364L34.2325 30.7602L31.1645 27.6922L29.3884 29.4684L28.0159 30.8409L24.9479 33.9089L28.0159 36.9768L31.0838 40.0448L28.0159 43.1127L31.0838 46.1807L34.1518 43.1127L37.2197 46.1807L40.2877 43.1127L43.3556 46.1807L40.2069 49.3293L37.139 46.2614L34.071 49.3293L31.0031 46.2614L24.8672 52.3973L27.2892 54.8193L31.0031 58.5332L34.071 55.4652L37.139 58.5332L40.2069 55.4652L40.3684 55.6267L43.3556 58.6139L40.3684 62.0855L37.3004 59.0176L34.2325 62.0855L37.3004 65.1535L40.3684 68.2214L43.4363 65.1535L43.5171 65.0727L46.585 62.0048L49.653 58.9368L46.585 55.8689L43.5171 52.801L46.6658 49.6523L49.5722 46.5843ZM40.3684 6.21663L43.4363 9.28457L40.3684 12.3525L37.3004 9.28457L39.1574 7.42766L40.3684 6.21663ZM37.2197 40.287L34.1518 43.3549L31.0838 40.287L34.1518 37.219L37.2197 40.287ZM34.1518 55.8689L31.0838 52.801L34.1518 49.733L37.2197 52.801L34.1518 55.8689Z" fill="#333333"/>
<path d="M55.869 27.9346L49.6523 34.1512L55.869 40.3678L49.6523 46.5037L55.869 52.7203L62.0049 46.5037L55.869 40.3678L62.0049 34.1512L55.869 27.9346Z" fill="#333333"/>
<path d="M55.8085 15.4678L49.5859 21.6904L55.8085 27.913L62.0311 21.6904L55.8085 15.4678Z" fill="#333333"/>
<path d="M68.2499 27.8888L62.0273 34.1123L68.2508 40.3349L74.4734 34.1114L68.2499 27.8888Z" fill="#333333"/>
<path d="M87.1959 8.31543V9.44573H80.4142V14.5321H87.0345V15.6624H80.4142V21.7982H79.2031V8.31543H87.1959Z" fill="#333333"/>
<path d="M90.3438 8.31543H91.5548V21.879H90.3438V8.31543Z" fill="#333333"/>
<path d="M100.435 8.31543C104.311 8.31543 107.379 11.3834 107.379 15.0972C107.379 18.811 104.23 21.879 100.435 21.879H95.6719V8.31543H100.435ZM100.435 20.6679C103.584 20.6679 106.167 18.1652 106.167 15.0972C106.167 12.0293 103.584 9.52646 100.435 9.52646H96.8829V20.6679H100.435Z" fill="#333333"/>
<path d="M118.925 8.31543V9.44573H112.143V14.2091H118.844V15.3394H112.143V20.6679H119.006V21.7982H110.852V8.31543H118.925Z" fill="#333333"/>
<path d="M147.423 8.31543L142.902 21.879H141.53L137.977 10.2531L134.425 21.879H133.052L128.531 8.31543H129.823L133.779 19.8606L137.331 8.31543H138.785L142.337 19.8606L146.293 8.31543H147.423Z" fill="#333333"/>
<path d="M163.57 15.0975C163.57 18.9728 160.421 22.0408 156.627 22.0408C152.832 22.0408 149.684 18.9728 149.684 15.0975C149.684 11.2222 152.832 8.1543 156.627 8.1543C160.421 8.1543 163.57 11.303 163.57 15.0975ZM156.546 9.36533C153.397 9.36533 150.814 11.9489 150.814 15.0975C150.814 18.2462 153.397 20.8298 156.546 20.8298C159.695 20.8298 162.278 18.2462 162.278 15.0975C162.359 11.9489 159.776 9.36533 156.546 9.36533Z" fill="#333333"/>
<path d="M171.403 8.31543C173.905 8.31543 175.52 9.8494 175.52 12.11C175.52 14.1284 174.148 15.5816 172.129 15.8238L176.005 21.879H174.551L170.676 15.9046H168.012V21.879H166.801V8.31543H171.403ZM171.322 14.6935C173.017 14.6935 174.228 13.644 174.228 12.11C174.228 10.576 172.937 9.52646 171.322 9.52646H168.012V14.6935H171.322Z" fill="#333333"/>
<path d="M180.85 8.31543V20.6679H187.39V21.879H179.559V8.31543H180.85Z" fill="#333333"/>
<path d="M195.06 8.31543C198.936 8.31543 202.004 11.3834 202.004 15.0972C202.004 18.811 198.855 21.879 195.06 21.879H190.297V8.31543H195.06ZM195.06 20.6679C198.209 20.6679 200.792 18.1652 200.792 15.0972C200.792 12.0293 198.209 9.52646 195.06 9.52646H191.508V20.6679H195.06Z" fill="#333333"/>
<path d="M90.2639 38.9951C88.9721 39.9639 87.5189 40.5291 85.9042 40.5291C82.0289 40.5291 78.9609 37.4611 78.9609 33.5858C78.9609 29.7105 82.1096 26.6426 85.9042 26.6426C87.5189 26.6426 89.0529 27.2077 90.2639 28.1766L89.3758 29.0646C88.407 28.338 87.1959 27.9343 85.9042 27.9343C82.7555 27.9343 80.172 30.5179 80.172 33.6666C80.172 36.8152 82.7555 39.3988 85.9042 39.3988C87.1959 39.3988 88.407 38.9951 89.3758 38.2685L90.2639 38.9951Z" fill="#333333"/>
<path d="M102.051 26.8047H103.262V40.3682H102.051V33.9094H94.5431V40.3682H93.332V26.8047H94.5431V32.6984H102.051V26.8047Z" fill="#333333"/>
<path d="M115.452 26.8047V27.935H108.671V32.6984H115.372V33.9094H108.671V39.2379H115.533V40.3682H107.379V26.8047H115.452Z" fill="#333333"/>
<path d="M121.508 33.7473C119.409 33.1821 117.956 32.0519 117.956 30.1949C117.956 27.7729 119.893 26.6426 121.912 26.6426C123.123 26.6426 124.253 27.0463 125.06 27.7729L124.253 28.661C123.607 28.0958 122.719 27.8536 121.912 27.8536C120.539 27.8536 119.247 28.661 119.247 30.1949C119.247 31.4867 120.136 32.2941 121.993 32.7785L122.961 33.1014C124.899 33.7473 126.029 34.8776 126.029 36.896C126.029 39.2373 124.011 40.5291 121.831 40.6098C120.378 40.6098 118.844 40.1254 117.875 39.0758L118.682 38.1877C119.49 39.0758 120.701 39.4795 121.831 39.4795C123.365 39.3988 124.818 38.5107 124.818 36.9767C124.818 35.5235 124.011 34.7969 122.477 34.2317L121.508 33.7473Z" fill="#333333"/>
<path d="M131.68 33.7473C129.581 33.1821 128.128 32.0519 128.128 30.1949C128.128 27.7729 130.065 26.6426 132.084 26.6426C133.295 26.6426 134.425 27.0463 135.232 27.7729L134.425 28.661C133.779 28.0958 132.891 27.8536 132.084 27.8536C130.711 27.8536 129.419 28.661 129.419 30.1949C129.419 31.4867 130.307 32.2941 132.164 32.7785L133.133 33.1014C135.071 33.7473 136.201 34.8776 136.201 36.896C136.201 39.2373 134.183 40.5291 132.003 40.6098C130.55 40.6098 129.016 40.1254 128.047 39.0758L128.854 38.1877C129.662 39.0758 130.873 39.4795 132.003 39.4795C133.537 39.3988 134.99 38.5107 134.99 36.9767C134.99 35.5235 134.183 34.7969 132.649 34.2317L131.68 33.7473Z" fill="#333333"/>
<path d="M156.627 38.9951C155.335 39.9639 153.882 40.5291 152.267 40.5291C148.392 40.5291 145.324 37.4611 145.324 33.5858C145.324 29.7105 148.473 26.6426 152.267 26.6426C153.882 26.6426 155.416 27.2077 156.627 28.1766L155.739 29.0646C154.77 28.338 153.559 27.9343 152.267 27.9343C149.119 27.9343 146.535 30.5179 146.535 33.6666C146.535 36.8152 149.119 39.3988 152.267 39.3988C153.559 39.3988 154.77 38.9951 155.739 38.2685L156.627 38.9951Z" fill="#333333"/>
<path d="M169.061 26.8047H170.352V35.3626C170.352 38.1884 168.092 40.5297 165.024 40.5297C161.956 40.5297 159.695 38.1884 159.695 35.3626V26.8047H160.987V35.2012C160.987 37.4618 162.763 39.2379 165.024 39.2379C167.284 39.2379 169.061 37.4618 169.061 35.2012V26.8047Z" fill="#333333"/>
<path d="M178.749 26.8047C181.252 26.8047 182.947 28.3387 182.947 30.8415C182.947 33.2635 181.333 34.8782 178.749 34.8782H175.52V40.3682H174.309V26.8047H178.749ZM178.749 33.5865C180.525 33.5865 181.736 32.4562 181.736 30.7607C181.736 29.0653 180.444 28.0157 178.749 28.0157H175.52V33.5865H178.749Z" fill="#333333"/>
<path d="M79.2839 47.0691C80.4142 46.1003 81.7059 45.5352 83.0784 45.5352C84.2087 45.5352 85.339 45.8581 86.2271 46.7462C86.873 47.3921 87.3574 48.4416 87.2767 49.4912C87.2767 50.7022 86.6308 51.9132 85.0968 52.6399C82.917 53.7702 81.5445 54.6583 81.5445 56.1922H87.1959V58.5336H78.9609V56.5152C79.1224 53.528 81.2215 51.994 83.8858 50.7022C84.5317 50.3793 84.8546 49.8949 84.9354 49.4105C84.9354 49.0068 84.8546 48.6031 84.6124 48.3609C84.3702 48.038 83.8051 47.7957 83.2399 47.7957C82.5133 47.7957 81.7059 48.038 81.0601 48.7646L79.2839 47.0691Z" fill="#333333"/>
<path d="M99.7104 52.2362C99.7104 56.1115 97.2076 58.4528 94.5434 58.4528C91.7984 58.4528 89.457 56.1115 89.457 52.2362C89.457 47.6343 91.8791 45.5352 94.5434 45.5352C97.2076 45.5352 99.7104 47.6343 99.7104 52.2362ZM92.0406 52.2362C92.0406 54.8197 93.0901 56.0308 94.5434 56.0308C95.9159 56.0308 97.2076 54.9005 97.2076 52.2362C97.2076 49.0068 95.9966 47.9572 94.5434 47.9572C93.0901 48.038 92.0406 49.1682 92.0406 52.2362Z" fill="#333333"/>
<path d="M102.375 45.6963H104.878V58.4525H102.375V45.6963Z" fill="#333333"/>
<path d="M109.238 56.2733C110.126 56.2733 111.015 56.1118 111.741 55.7889C112.549 55.3852 113.275 54.82 113.76 53.8512C113.275 54.1742 112.71 54.3356 112.064 54.3356C110.046 54.3356 108.027 52.7209 108.027 49.9759C108.027 47.7961 109.481 45.6162 112.306 45.6162C114.728 45.6162 116.262 47.5539 116.585 49.9759C117.07 53.1246 115.859 55.7081 113.76 57.2421C112.549 58.1302 110.934 58.6953 109.238 58.6953V56.2733ZM112.306 47.9575C111.176 47.9575 110.53 48.9264 110.53 49.9759C110.53 51.0255 111.176 51.9943 112.306 51.9943C113.437 51.9943 114.163 51.187 114.163 49.9759C114.163 48.7649 113.356 47.9575 112.306 47.9575Z" fill="#333333"/>
</svg>
