<svg width="176" height="58" viewBox="0 0 176 58" fill="none" xmlns="http://www.w3.org/2000/svg">
<path d="M64.513 4.86795H71.5724V6.9648H66.7846V10.0402H71.2754V12.1545H66.7846V17.0996H64.513V4.86795ZM74.1884 17.0996V4.86795H76.46V17.0996H74.1884ZM79.9732 4.86795H84.5863C85.7163 4.86795 86.7647 5.1417 87.7316 5.68922C88.7101 6.23673 89.4848 6.98228 90.0556 7.92586C90.6264 8.86945 90.9118 9.88875 90.9118 10.9838C90.9118 12.0788 90.6264 13.0981 90.0556 14.0417C89.4848 14.9853 88.7101 15.7308 87.7316 16.2783C86.7647 16.8259 85.7163 17.0996 84.5863 17.0996H79.9732V4.86795ZM82.2448 14.8804H84.5863C85.3202 14.8804 85.9959 14.7057 86.6133 14.3562C87.2423 13.9951 87.7316 13.5175 88.0811 12.9234C88.4422 12.3176 88.6228 11.6711 88.6228 10.9838C88.6228 10.4712 88.5179 9.97612 88.3082 9.49851C88.0985 9.02089 87.8131 8.60734 87.452 8.25787C87.0909 7.89674 86.6599 7.61134 86.1589 7.40165C85.658 7.19196 85.1338 7.08712 84.5863 7.08712H82.2448V14.8804ZM94.0512 4.86795H101.215V6.9648H96.3228V9.81303H101.041V11.9099H96.3228V15.0028H101.373V17.0996H94.0512V4.86795Z" fill="white"/>
<path d="M79.7502 20.7508H80.519L76.3078 32.9824H75.4866L72.0093 21.7992L68.5495 32.9824H67.7107L63.4995 20.7508H64.2684L68.1301 31.9165L71.5375 20.7508H72.4811L75.8885 31.9165L79.7502 20.7508ZM85.6695 21.4322C86.6364 20.8731 87.6849 20.5935 88.8148 20.5935C89.9565 20.5935 91.0107 20.8731 91.9776 21.4322C92.9445 21.9914 93.7075 22.7544 94.2667 23.7213C94.8258 24.6765 95.1054 25.725 95.1054 26.8666C95.1054 28.0082 94.8258 29.0625 94.2667 30.0293C93.7075 30.9846 92.9445 31.7418 91.9776 32.3009C91.0107 32.8601 89.9565 33.1397 88.8148 33.1397C87.6849 33.1397 86.6364 32.8601 85.6695 32.3009C84.7027 31.7418 83.9396 30.9846 83.3805 30.0293C82.8213 29.0625 82.5417 28.0082 82.5417 26.8666C82.5417 25.725 82.8213 24.6765 83.3805 23.7213C83.9396 22.7544 84.7027 21.9914 85.6695 21.4322ZM92.7464 22.9525C91.6747 21.8691 90.37 21.3274 88.8323 21.3274C87.2946 21.3274 85.9841 21.8691 84.9007 22.9525C83.8173 24.0242 83.2756 25.3289 83.2756 26.8666C83.2756 28.4043 83.8173 29.7148 84.9007 30.7982C85.9841 31.8816 87.2946 32.4233 88.8323 32.4233C90.37 32.4233 91.6747 31.8816 92.7464 30.7982C93.8298 29.7148 94.3715 28.4043 94.3715 26.8666C94.3715 25.3289 93.8298 24.0242 92.7464 22.9525ZM97.9622 20.7508H101.946C103.03 20.7508 103.909 21.0536 104.585 21.6594C105.272 22.2652 105.616 23.069 105.616 24.0708C105.616 24.9911 105.319 25.7483 104.725 26.3424C104.142 26.9248 103.379 27.2627 102.436 27.3559L106.053 32.9824H105.196L101.614 27.3908H98.6961V32.9824H97.9622V20.7508ZM98.6961 26.6569L101.964 26.6744C102.802 26.6744 103.496 26.4356 104.043 25.958C104.602 25.4803 104.882 24.8513 104.882 24.0708C104.882 23.2903 104.602 22.6612 104.043 22.1836C103.484 21.706 102.791 21.4672 101.964 21.4672H98.6961V26.6569ZM109.344 20.7508H110.078V32.2835H116.456V32.9824H109.344V20.7508ZM119.054 20.7508H123.247C124.389 20.7508 125.437 21.0245 126.393 21.572C127.36 22.1195 128.123 22.8651 128.682 23.8087C129.253 24.7406 129.538 25.7599 129.538 26.8666C129.538 27.9733 129.253 28.9984 128.682 29.942C128.123 30.8739 127.36 31.6136 126.393 32.1612C125.437 32.7087 124.389 32.9824 123.247 32.9824H119.054V20.7508ZM119.788 32.266H123.247C124.785 32.266 126.09 31.7418 127.161 30.6934C128.245 29.6333 128.787 28.3577 128.787 26.8666C128.787 25.3755 128.245 24.1057 127.161 23.0573C126.09 21.9972 124.785 21.4672 123.247 21.4672H119.788V32.266ZM149.906 31.2875L150.447 31.7418C149.282 32.6737 147.978 33.1397 146.533 33.1397C145.391 33.1397 144.337 32.8601 143.37 32.3009C142.415 31.7418 141.652 30.9846 141.081 30.0293C140.522 29.0625 140.243 28.0082 140.243 26.8666C140.243 25.725 140.522 24.6765 141.081 23.7213C141.652 22.7544 142.415 21.9914 143.37 21.4322C144.337 20.8731 145.391 20.5935 146.533 20.5935C148.001 20.5935 149.306 21.0536 150.447 21.9739L149.941 22.4807C148.939 21.7118 147.803 21.3274 146.533 21.3274C144.995 21.3274 143.685 21.8691 142.602 22.9525C141.53 24.0242 140.994 25.3289 140.994 26.8666C140.994 28.4043 141.53 29.7148 142.602 30.7982C143.685 31.8816 144.995 32.4233 146.533 32.4233C147.78 32.4233 148.904 32.0447 149.906 31.2875ZM161.882 28.4742V20.7508H162.633V28.5441C162.633 29.8022 162.179 30.8856 161.27 31.7942C160.373 32.6912 159.266 33.1397 157.95 33.1397C156.645 33.1397 155.539 32.6912 154.63 31.7942C153.733 30.8856 153.285 29.8022 153.285 28.5441V20.7508H154.053V28.4742C154.053 29.5692 154.432 30.5011 155.189 31.27C155.946 32.0272 156.867 32.4058 157.95 32.4058C159.045 32.4058 159.971 32.0272 160.728 31.27C161.497 30.5011 161.882 29.5692 161.882 28.4742ZM166.253 20.7508H170.202C171.286 20.7508 172.171 21.0711 172.858 21.7118C173.557 22.3409 173.907 23.1854 173.907 24.2455C173.907 25.2939 173.563 26.1385 172.876 26.7792C172.189 27.4199 171.303 27.7403 170.22 27.7403H166.987V32.9824H166.253V20.7508ZM166.987 27.0239H170.185C171.059 27.0239 171.775 26.7734 172.334 26.2725C172.893 25.7599 173.173 25.0843 173.173 24.2455C173.173 23.4068 172.888 22.7369 172.317 22.236C171.758 21.7235 171.047 21.4672 170.185 21.4672H166.987V27.0239Z" fill="white"/>
<path d="M64.5305 38.3822L64.0063 37.858C65.078 36.9843 66.3012 36.5416 67.6758 36.53C68.6892 36.53 69.5222 36.8095 70.1745 37.3687C70.8385 37.9279 71.1705 38.6734 71.1705 39.6054C71.1705 39.8383 71.1356 40.0597 71.0657 40.2694C71.0074 40.479 70.9434 40.6596 70.8735 40.811C70.8036 40.9508 70.6754 41.1023 70.489 41.2654C70.3027 41.4168 70.1512 41.5333 70.0347 41.6148C69.9299 41.6964 69.7377 41.807 69.4581 41.9468C69.1902 42.0866 68.9921 42.1856 68.864 42.2439C68.7475 42.2905 68.5203 42.3837 68.1825 42.5235C67.7515 42.7215 67.3845 42.9021 67.0817 43.0652C66.7788 43.2283 66.4526 43.4496 66.1031 43.7292C65.7536 44.0087 65.4682 44.3116 65.2469 44.6378C65.0372 44.964 64.8567 45.3775 64.7052 45.8784C64.5538 46.3794 64.4664 46.9327 64.4431 47.5385H71.188V48.2549H63.6917V47.6084C63.7034 46.9094 63.7908 46.2745 63.9538 45.7037C64.1286 45.1329 64.3383 44.6611 64.5829 44.2883C64.8275 43.9156 65.1421 43.5719 65.5265 43.2574C65.9226 42.9312 66.2895 42.6807 66.6273 42.506C66.9652 42.3196 67.3671 42.1216 67.833 41.9119C67.8913 41.8886 67.9786 41.8536 68.0951 41.8071C68.4213 41.6673 68.6659 41.5624 68.829 41.4925C69.0038 41.4226 69.2135 41.3178 69.4581 41.178C69.7027 41.0266 69.8833 40.8868 69.9998 40.7586C70.1163 40.6305 70.2211 40.4674 70.3143 40.2694C70.4075 40.0713 70.4541 39.85 70.4541 39.6054C70.4541 38.8947 70.1978 38.3239 69.6853 37.8929C69.196 37.4735 68.5378 37.2639 67.7107 37.2639C66.4992 37.2522 65.4391 37.625 64.5305 38.3822ZM74.9298 37.3687C75.6172 36.8328 76.386 36.5649 77.2364 36.5649C78.0984 36.5649 78.8731 36.8328 79.5604 37.3687C80.2477 37.8929 80.7777 38.6093 81.1505 39.518C81.5349 40.415 81.7272 41.4168 81.7272 42.5235C81.7272 43.5836 81.5349 44.5621 81.1505 45.4591C80.7777 46.3444 80.2477 47.055 79.5604 47.5909C78.8731 48.1151 78.1043 48.3772 77.2539 48.3772C76.3918 48.3772 75.6172 48.1151 74.9298 47.5909C74.2542 47.055 73.73 46.3444 73.3572 45.4591C72.9844 44.5621 72.798 43.5836 72.798 42.5235C72.798 41.4168 72.9844 40.415 73.3572 39.518C73.73 38.6093 74.2542 37.8929 74.9298 37.3687ZM79.9448 38.8016C79.2575 37.7997 78.3547 37.2988 77.2364 37.2988C76.1297 37.2988 75.2327 37.7997 74.5454 38.8016C73.8698 39.7917 73.5319 41.0324 73.5319 42.5235C73.5319 43.968 73.8756 45.1853 74.5629 46.1755C75.2502 47.1657 76.1472 47.6608 77.2539 47.6608C78.3605 47.6608 79.2575 47.1657 79.9448 46.1755C80.6438 45.1853 80.9933 43.968 80.9933 42.5235C80.9933 41.0324 80.6438 39.7917 79.9448 38.8016ZM84.5773 48.2549V36.7222H85.3112V48.2549H84.5773ZM89.2181 48.3947V47.6782C90.5694 47.6782 91.7634 47.3229 92.8002 46.6123C93.4642 46.1464 94.0001 45.5581 94.4078 44.8475C94.8272 44.1369 95.0776 43.3389 95.1592 42.4536C94.8913 43.0593 94.4835 43.5486 93.936 43.9214C93.4002 44.2942 92.7478 44.4805 91.979 44.4805C90.8257 44.4805 89.9054 44.0961 89.2181 43.3273C88.5308 42.5468 88.1871 41.609 88.1871 40.514C88.1871 39.8383 88.3211 39.2093 88.589 38.6268C88.8686 38.0327 89.3055 37.5434 89.8996 37.159C90.5053 36.7629 91.2159 36.5649 92.0314 36.5649C92.742 36.5649 93.3769 36.7455 93.936 37.1066C94.4952 37.4677 94.932 37.9453 95.2466 38.5394C95.5727 39.1219 95.7882 39.7801 95.8931 40.514C96.0911 41.9002 95.9513 43.17 95.4737 44.3233C95.0077 45.4649 94.2913 46.391 93.3244 47.1016C92.1479 47.9637 90.7791 48.3947 89.2181 48.3947ZM92.0314 37.2813C91.0412 37.2813 90.2723 37.6017 89.7248 38.2424C89.189 38.8715 88.921 39.6286 88.921 40.514C88.921 41.0848 89.0317 41.6148 89.253 42.1041C89.4744 42.5817 89.8239 42.9778 90.3015 43.2923C90.7907 43.6069 91.3674 43.7641 92.0314 43.7641C92.6954 43.7641 93.2662 43.6127 93.7438 43.3098C94.2331 42.9953 94.5942 42.5992 94.8272 42.1216C95.0602 41.644 95.1767 41.1139 95.1767 40.5315C95.0485 39.5762 94.7049 38.7957 94.1457 38.19C93.5982 37.5842 92.8934 37.2813 92.0314 37.2813Z" fill="white"/>
<path d="M15.6631 18.2031L13.0469 20.8193L15.6631 23.4356L18.2794 20.8193L15.6631 18.2031Z" fill="white"/>
<path d="M13.0303 10.5009L10.4141 13.1172L13.0303 15.7335L15.6466 13.1172L13.0303 10.5009Z" fill="white"/>
<path d="M10.4717 18.2216L7.85547 20.8379L10.4717 23.4542L13.088 20.8379L10.4717 18.2216Z" fill="white"/>
<path d="M18.2725 10.4111L15.6562 13.0273L18.2725 15.6436L20.8888 13.0273L18.2725 10.4111Z" fill="white"/>
<path d="M12.9991 20.7138L10.3828 23.3301L12.9991 25.9463L15.6154 23.3301L12.9991 20.7138Z" fill="white"/>
<path d="M13.0069 25.9296L10.3906 28.5459L13.0069 31.1622L15.6232 28.5459L13.0069 25.9296Z" fill="white"/>
<path d="M5.21783 28.5449L2.60156 31.1611L5.21784 33.7774L7.8341 31.1611L5.21783 28.5449Z" fill="white"/>
<path d="M5.21393 23.3476L2.59766 25.9639L5.21393 28.5801L7.8302 25.9639L5.21393 23.3476Z" fill="white"/>
<path d="M7.87408 20.8144L5.25781 23.4307L7.87408 26.0469L10.4903 23.4307L7.87408 20.8144Z" fill="white"/>
<path d="M7.8194 31.1367L5.20312 33.7529L7.8194 36.3692L10.4357 33.7529L7.8194 31.1367Z" fill="white"/>
<path d="M2.61627 25.9492L0 28.5654L2.61626 31.1817L5.23253 28.5654L2.61627 25.9492Z" fill="white"/>
<path d="M18.2764 41.621L15.6602 44.2373L18.2764 46.8536L20.8927 44.2373L18.2764 41.621Z" fill="white"/>
<path d="M15.6124 33.7236L12.9961 36.3398L15.6124 38.9561L18.2286 36.3398L15.6124 33.7236Z" fill="white"/>
<path d="M13.046 41.5136L10.4297 44.1299L13.046 46.7462L15.6622 44.1299L13.046 41.5136Z" fill="white"/>
<path d="M10.421 33.7382L7.80469 36.3545L10.421 38.9708L13.0372 36.3545L10.421 33.7382Z" fill="white"/>
<path d="M13.0381 31.1454L10.4219 33.7617L13.0381 36.378L15.6544 33.7617L13.0381 31.1454Z" fill="white"/>
<path d="M31.1749 18.2275L28.5586 20.8438L31.1749 23.46L33.7911 20.8438L31.1749 18.2275Z" fill="white"/>
<path d="M31.171 13.0302L28.5547 15.6465L31.171 18.2628L33.7872 15.6465L31.171 13.0302Z" fill="white"/>
<path d="M33.7725 15.6259L31.1562 18.2422L33.7725 20.8585L36.3888 18.2422L33.7725 15.6259Z" fill="white"/>
<path d="M31.171 7.83002L28.5547 10.4463L31.171 13.0626L33.7872 10.4463L31.171 7.83002Z" fill="white"/>
<path d="M31.1631 2.63178L28.5469 5.24805L31.1631 7.86432L33.7794 5.24805L31.1631 2.63178Z" fill="white"/>
<path d="M28.6202 -5.95063e-05L26.0039 2.61621L28.6202 5.23248L31.2364 2.61621L28.6202 -5.95063e-05Z" fill="white"/>
<path d="M28.6085 20.704L25.9922 23.3203L28.6085 25.9366L31.2247 23.3203L28.6085 20.704Z" fill="white"/>
<path d="M28.6163 31.1005L26 33.7168L28.6163 36.3331L31.2325 33.7168L28.6163 31.1005Z" fill="white"/>
<path d="M33.7647 5.22846L31.1484 7.84473L33.7647 10.461L36.381 7.84473L33.7647 5.22846Z" fill="white"/>
<path d="M31.128 49.3466L28.5117 51.9629L31.128 54.5792L33.7443 51.9629L31.128 49.3466Z" fill="white"/>
<path d="M28.6397 51.8915L26.0234 54.5078L28.6397 57.1241L31.256 54.5078L28.6397 51.8915Z" fill="white"/>
<path d="M31.1241 44.1484L28.5078 46.7646L31.1241 49.3809L33.7404 46.7647L31.1241 44.1484Z" fill="white"/>
<path d="M33.7256 46.7451L31.1094 49.3613L33.7256 51.9776L36.3419 49.3613L33.7256 46.7451Z" fill="white"/>
<path d="M31.1202 28.5497L28.5039 31.166L31.1202 33.7823L33.7364 31.166L31.1202 28.5497Z" fill="white"/>
<path d="M31.1163 23.3525L28.5 25.9688L31.1163 28.585L33.7325 25.9687L31.1163 23.3525Z" fill="white"/>
<path d="M28.6397 10.3906L26.0234 13.0068L28.6397 15.6231L31.256 13.0068L28.6397 10.3906Z" fill="white"/>
<path d="M26.0538 12.998L23.4375 15.6143L26.0538 18.2305L28.67 15.6143L26.0538 12.998Z" fill="white"/>
<path d="M28.5225 41.5449L25.9062 44.1611L28.5225 46.7774L31.1388 44.1611L28.5225 41.5449Z" fill="white"/>
<path d="M26.0538 38.9706L23.4375 41.5869L26.0538 44.2032L28.67 41.5869L26.0538 38.9706Z" fill="white"/>
<path d="M33.71 25.9326L31.0938 28.5488L33.71 31.1651L36.3263 28.5488L33.71 25.9326Z" fill="white"/>
<path d="M31.128 38.9462L28.5117 41.5625L31.128 44.1788L33.7443 41.5625L31.128 38.9462Z" fill="white"/>
<path d="M31.1241 33.749L28.5078 36.3652L31.1241 38.9815L33.7404 36.3652L31.1241 33.749Z" fill="white"/>
<path d="M33.7256 36.3447L31.1094 38.9609L33.7256 41.5772L36.3419 38.9609L33.7256 36.3447Z" fill="white"/>
<path d="M41.529 33.7952L36.3672 38.957L41.529 44.1189L46.6908 38.957L41.529 33.7952Z" fill="white"/>
<path d="M41.5134 23.4026L36.3516 28.5645L41.5134 33.7263L46.6752 28.5645L41.5134 23.4026Z" fill="white"/>
<path d="M41.4978 13.0081L36.3359 18.1699L41.4978 23.3317L46.6596 18.1699L41.4978 13.0081Z" fill="white"/>
<path d="M51.904 23.3938L46.7422 28.5557L51.904 33.7175L57.0659 28.5557L51.904 23.3938Z" fill="white"/>
<path d="M26.0069 23.3066L23.3906 25.9229L26.0069 28.5391L28.6232 25.9228L26.0069 23.3066Z" fill="white"/>
<path d="M20.8585 18.2206L18.2422 20.8369L20.8585 23.4532L23.4747 20.8369L20.8585 18.2206Z" fill="white"/>
<path d="M20.8663 7.79975L18.25 10.416L20.8663 13.0323L23.4825 10.416L20.8663 7.79975Z" fill="white"/>
<path d="M20.8155 28.5195L18.1992 31.1357L20.8155 33.752L23.4318 31.1357L20.8155 28.5195Z" fill="white"/>
<path d="M26.0225 33.7001L23.4062 36.3164L26.0225 38.9327L28.6388 36.3164L26.0225 33.7001Z" fill="white"/>
<path d="M25.9288 44.1454L23.3125 46.7617L25.9288 49.378L28.545 46.7617L25.9288 44.1454Z" fill="white"/>
<path d="M25.9991 49.3085L23.3828 51.9248L25.9991 54.5411L28.6154 51.9248L25.9991 49.3085Z" fill="white"/>
<path d="M18.21 25.9296L15.5938 28.5459L18.21 31.1622L20.8263 28.5459L18.21 25.9296Z" fill="white"/>
<path d="M20.8233 38.916L18.207 41.5322L20.8233 44.1485L23.4396 41.5322L20.8233 38.916Z" fill="white"/>
<path d="M20.7999 12.9267L18.1836 15.543L20.7999 18.1592L23.4161 15.543L20.7999 12.9267Z" fill="white"/>
<path d="M20.8233 44.1162L18.207 46.7324L20.8233 49.3487L23.4396 46.7324L20.8233 44.1162Z" fill="white"/>
<path d="M20.8155 23.3193L18.1992 25.9355L20.8155 28.5518L23.4317 25.9355L20.8155 23.3193Z" fill="white"/>
<path d="M25.9952 18.1113L23.3789 20.7275L25.9952 23.3438L28.6114 20.7275L25.9952 18.1113Z" fill="white"/>
<path d="M26.0381 7.79388L23.4219 10.4102L26.0381 13.0264L28.6544 10.4102L26.0381 7.79388Z" fill="white"/>
<path d="M26.0225 2.60053L23.4062 5.2168L26.0225 7.83307L28.6388 5.2168L26.0225 2.60053Z" fill="white"/>
<path d="M25.9288 28.6181L23.3125 31.2344L25.9288 33.8506L28.545 31.2344L25.9288 28.6181Z" fill="white"/>
<path d="M20.8311 33.7187L18.2148 36.335L20.8311 38.9512L23.4474 36.335L20.8311 33.7187Z" fill="white"/>
</svg>
