<svg width="31" height="25" viewBox="0 0 31 25" fill="none" xmlns="http://www.w3.org/2000/svg">
<path d="M30.5446 2.93553C29.4204 3.43368 28.2141 3.77152 26.9467 3.92234C28.2408 3.1474 29.2314 1.91822 29.7009 0.45807C28.487 1.17572 27.1471 1.69682 25.7194 1.97931C24.5761 0.759673 22.9499 0 21.1462 0C17.6857 0 14.88 2.80577 14.88 6.2643C14.88 6.75481 14.9353 7.23389 15.0422 7.69201C9.83537 7.43048 5.21829 4.93585 2.12814 1.14517C1.58797 2.069 1.28068 3.14545 1.28068 4.29452C1.28068 6.46853 2.38772 8.38675 4.06738 9.50902C3.04049 9.47468 2.07469 9.19219 1.22917 8.72264V8.8009C1.22917 11.8357 3.38981 14.3685 6.25471 14.945C5.72981 15.0862 5.17632 15.1645 4.6037 15.1645C4.19909 15.1645 3.8078 15.1244 3.42414 15.048C4.22195 17.5389 6.5353 19.3502 9.27619 19.3998C7.13272 21.0795 4.43002 22.0777 1.49449 22.0777C0.988708 22.0777 0.490511 22.0472 0 21.9918C2.77332 23.7727 6.0658 24.811 9.60449 24.811C21.131 24.811 27.4316 15.2637 27.4316 6.98389L27.4106 6.17271C28.6416 5.29466 29.7067 4.19145 30.5446 2.93553Z" fill="white"/>
</svg>
