<svg width="121" height="148" viewBox="0 0 121 148" fill="none" xmlns="http://www.w3.org/2000/svg">
<g clip-path="url(#clip0_35_11982)">
<path d="M30.1569 25.9521L60.1472 43.4201V78.0233L30.1569 95.4913L0 78.0233V43.4201L30.1569 25.9521Z" fill="#B1B1B1"/>
<path d="M0 43.4201L30.1569 60.7217L60.1472 43.4201L30.1569 25.9521L0 43.4201Z" fill="#383838"/>
<path d="M30.1562 60.7225V95.4921L60.1466 78.0241V43.4209L30.1562 60.7225Z" fill="#797A7D"/>
<path d="M90.3054 25.9521L120.296 43.4201V78.0233L90.3054 95.4913L60.1484 78.0233V43.4201L90.3054 25.9521Z" fill="#B1B1B1"/>
<path d="M60.1484 43.4201L90.3054 60.7217L120.296 43.4201L90.3054 25.9521L60.1484 43.4201Z" fill="#383838"/>
<path d="M90.3047 60.7225V95.4921L120.295 78.0241V43.4209L90.3047 60.7225Z" fill="#797A7D"/>
<path d="M60.1465 43.4209L90.3035 60.7225V95.4921L60.1465 112.794L30.1562 95.4921V60.7225L60.1465 43.4209Z" fill="#B1B1B1"/>
<path d="M30.1562 60.7225L60.1465 78.0241L90.3035 60.7225L60.1465 43.4209L30.1562 60.7225Z" fill="#F0F0F0"/>
<path d="M60.1484 78.0233V112.793L90.3054 95.4912V60.7217L60.1484 78.0233Z" fill="#797A7D"/>
<path d="M72.1429 57.2283C71.8097 56.2302 71.643 55.232 71.3098 54.4002C71.1432 53.9011 70.81 53.5684 70.3101 53.5684C69.4771 53.5684 68.644 53.5684 67.811 53.5684C67.6443 52.2375 67.4777 52.0711 66.1448 51.9048V50.7402C62.1461 52.4039 57.8142 52.0711 53.4822 51.2393V51.7384C52.1493 52.0711 52.1493 52.0711 51.8161 53.402C51.3163 53.402 50.8164 53.402 50.3166 53.402C49.6502 53.402 49.3169 53.7347 49.1503 54.4002C48.9837 55.3984 48.6505 56.5629 48.4839 57.5611C48.3173 58.3929 48.6505 58.892 49.3169 58.892C49.4835 58.892 49.6502 58.892 49.8168 58.892C56.8145 58.892 63.8122 58.892 70.81 58.892C72.3095 59.0583 72.6427 58.5592 72.1429 57.2283Z" fill="#77787B"/>
<path d="M72.3086 59.0581C72.3086 55.5645 66.977 52.7363 60.3125 52.7363C53.648 52.7363 48.3164 55.5645 48.3164 59.0581C48.3164 62.5517 53.648 65.3798 60.3125 65.3798C66.977 65.3798 72.3086 62.5517 72.3086 59.0581Z" fill="#7EBA4C"/>
<path d="M71.3093 54.3998C71.3093 51.2389 66.4775 48.5771 60.3129 48.5771C54.3148 48.5771 49.3164 51.2389 49.3164 54.3998C49.3164 57.5607 54.1482 60.2225 60.3129 60.2225C66.4775 60.2225 71.3093 57.5607 71.3093 54.3998Z" fill="#C2DA6B"/>
<path d="M60.6464 54.2338H59.98C59.1469 54.2338 58.4805 53.5684 58.4805 52.7366V31.1096C58.4805 30.2778 59.1469 29.6123 59.98 29.6123H60.6464C61.4795 29.6123 62.146 30.2778 62.146 31.1096V52.7366C62.146 53.5684 61.4795 54.2338 60.6464 54.2338Z" fill="#0F0F0F"/>
<path d="M73.1427 35.1021C73.1427 31.2758 67.4779 28.2812 60.3136 28.2812C53.3158 28.2812 47.4844 31.2758 47.4844 35.1021C47.4844 38.9284 53.1492 41.9229 60.3136 41.9229C67.4779 41.9229 73.1427 38.762 73.1427 35.1021Z" fill="#C2DA6B"/>
<path d="M60.3137 11.9775L72.8097 33.6045H47.9844L60.3137 11.9775Z" fill="#C2DA6B"/>
<path d="M59.647 30.4437C63.3125 30.4437 66.8114 29.9446 69.3106 27.2828L60.4801 11.9775L51.3164 27.7819C53.3158 29.7782 56.9812 30.4437 59.647 30.4437Z" fill="#7EBA4C"/>
<path d="M71.9769 20.795C71.9769 17.4678 66.8119 14.6396 60.4807 14.6396C54.1494 14.6396 48.9844 17.4678 48.9844 20.795C48.9844 24.1223 54.1494 26.9504 60.4807 26.9504C66.8119 26.9504 71.9769 24.1223 71.9769 20.795Z" fill="#C2DA6B"/>
<path d="M60.3154 0L71.6451 19.4643H49.1523L60.3154 0Z" fill="#C2DA6B"/>
<path d="M60.1465 78.0234L90.3035 95.4914V130.095L60.1465 147.396L30.1562 130.095V95.4914L60.1465 78.0234Z" fill="#B1B1B1"/>
<path d="M30.1562 95.4914L60.1465 112.793L90.3035 95.4914L60.1465 78.0234L30.1562 95.4914Z" fill="#383838"/>
<path d="M60.1484 112.793V147.396L90.3054 130.094V95.4912L60.1484 112.793Z" fill="#797A7D"/>
</g>
<defs>
<clipPath id="clip0_35_11982">
<rect width="120.294" height="147.396" fill="white"/>
</clipPath>
</defs>
</svg>
