<svg width="883" height="632" viewBox="0 0 883 632" fill="none" xmlns="http://www.w3.org/2000/svg">
<g opacity="0.24" filter="url(#filter0_f_122_8)">
<path d="M607.484 397.819L663.016 411.771V439.41L607.484 453.229L551.951 439.41V411.771L607.484 397.819Z" fill="#3D531B"/>
<path d="M551.951 411.771L607.484 425.591L663.016 411.771L607.484 397.819L551.951 411.771Z" fill="#3D531B"/>
<path d="M607.484 425.59V453.229L663.016 439.409V411.771L607.484 425.59Z" fill="#3D531B"/>
<path d="M441.193 384L496.726 397.819V425.59L441.193 439.41L385.968 425.59V397.819L441.193 384Z" fill="#3D531B"/>
<path d="M385.968 397.819L441.193 411.771L496.726 397.819L441.193 384L385.968 397.819Z" fill="#3D531B"/>
<path d="M441.193 411.771V439.41L496.726 425.591V397.819L441.193 411.771Z" fill="#3D531B"/>
<path d="M496.726 397.819L551.951 411.771V439.41L496.726 453.229L441.193 439.41V411.771L496.726 397.819Z" fill="#3D531B"/>
<path d="M441.193 411.771L496.726 425.591L551.951 411.771L496.726 397.819L441.193 411.771Z" fill="#3D531B"/>
<path d="M496.726 425.59V453.229L551.951 439.409V411.771L496.726 425.59Z" fill="#3D531B"/>
<path d="M385.968 397.819L441.193 411.771V439.41L385.968 453.229L330.435 439.41V411.771L385.968 397.819Z" fill="#3D531B"/>
<path d="M330.435 411.771L385.968 425.591L441.193 411.771L385.968 397.819L330.435 411.771Z" fill="#3D531B"/>
<path d="M385.968 425.59V453.229L441.193 439.409V411.771L385.968 425.59Z" fill="#3D531B"/>
<path d="M275.209 397.687L330.435 411.506V439.277L275.209 453.096L219.677 439.277V411.506L275.209 397.687Z" fill="#3D531B"/>
<path d="M219.677 411.506L275.209 425.458L330.435 411.506L275.209 397.687L219.677 411.506Z" fill="#3D531B"/>
<path d="M275.209 425.457V453.096L330.435 439.277V411.505L275.209 425.457Z" fill="#3D531B"/>
<path d="M275.516 425.59L331.049 439.41V467.181L275.516 481L220.291 467.181V439.41L275.516 425.59Z" fill="#3D531B"/>
<path d="M220.291 439.41L275.516 453.229L331.049 439.41L275.516 425.59L220.291 439.41Z" fill="#3D531B"/>
<path d="M275.516 453.229V481L331.049 467.181V439.41L275.516 453.229Z" fill="#3D531B"/>
<path d="M109.532 439.41L164.758 453.229V481L109.532 494.819L54 481V453.229L109.532 439.41Z" fill="#3D531B"/>
<path d="M54 453.229L109.532 467.181L164.758 453.229L109.532 439.41L54 453.229Z" fill="#3D531B"/>
<path d="M109.532 467.181V494.819L164.758 481V453.229L109.532 467.181Z" fill="#3D531B"/>
<path d="M773.774 439.41L829 453.229V481L773.774 494.819L718.242 481V453.229L773.774 439.41Z" fill="#3D531B"/>
<path d="M718.242 453.229L773.774 467.181L829 453.229L773.774 439.41L718.242 453.229Z" fill="#3D531B"/>
<path d="M773.774 467.181V494.819L829 481V453.229L773.774 467.181Z" fill="#3D531B"/>
<path d="M607.484 425.59L663.016 439.41V467.181L607.484 481L551.951 467.181V439.41L607.484 425.59Z" fill="#3D531B"/>
<path d="M551.951 439.41L607.484 453.229L663.016 439.41L607.484 425.59L551.951 439.41Z" fill="#3D531B"/>
<path d="M607.484 453.229V481L663.016 467.181V439.41L607.484 453.229Z" fill="#3D531B"/>
<path d="M663.016 439.41L718.242 453.229V481L663.016 494.819L607.484 481V453.229L663.016 439.41Z" fill="#3D531B"/>
<path d="M607.484 453.229L663.016 467.181L718.242 453.229L663.016 439.41L607.484 453.229Z" fill="#3D531B"/>
<path d="M663.016 467.181V494.819L718.242 481V453.229L663.016 467.181Z" fill="#3D531B"/>
<path d="M607.484 453.229L663.016 467.181V494.819L607.484 508.639L551.951 494.819V467.181L607.484 453.229Z" fill="#3D531B"/>
<path d="M551.951 467.181L607.484 481L663.016 467.181L607.484 453.229L551.951 467.181Z" fill="#3D531B"/>
<path d="M607.484 481V508.638L663.016 494.819V467.181L607.484 481Z" fill="#3D531B"/>
<path d="M220.291 439.41L275.516 453.229V481L220.291 494.819L164.758 481V453.229L220.291 439.41Z" fill="#3D531B"/>
<path d="M164.758 453.229L220.291 467.181L275.516 453.229L220.291 439.41L164.758 453.229Z" fill="#3D531B"/>
<path d="M220.291 467.181V494.819L275.516 481V453.229L220.291 467.181Z" fill="#3D531B"/>
<path d="M275.516 453.229L331.049 467.181V494.819L275.516 508.639L220.291 494.819V467.181L275.516 453.229Z" fill="#3D531B"/>
<path d="M220.291 467.181L275.516 481L331.049 467.181L275.516 453.229L220.291 467.181Z" fill="#3D531B"/>
<path d="M275.516 481V508.638L331.049 494.819V467.181L275.516 481Z" fill="#3D531B"/>
<path d="M607.484 481L663.016 494.819V522.59L607.484 536.41L551.951 522.59V494.819L607.484 481Z" fill="#3D531B"/>
<path d="M551.951 494.819L607.484 508.638L663.016 494.819L607.484 481L551.951 494.819Z" fill="#3D531B"/>
<path d="M607.484 508.639V536.41L663.016 522.591V494.819L607.484 508.639Z" fill="#3D531B"/>
<path d="M386.274 407.121L441.5 420.94V448.711L386.274 462.53L330.742 448.711V420.94L386.274 407.121Z" fill="#3D531B"/>
<path d="M330.742 420.94L386.274 434.759L441.5 420.94L386.274 407.121L330.742 420.94Z" fill="#3D531B"/>
<path d="M386.274 434.759V462.53L441.5 448.711V420.94L386.274 434.759Z" fill="#3D531B"/>
<path d="M496.726 407.121L551.951 420.94V448.711L496.726 462.53L441.193 448.711V420.94L496.726 407.121Z" fill="#3D531B"/>
<path d="M441.193 420.94L496.726 434.759L551.951 420.94L496.726 407.121L441.193 420.94Z" fill="#3D531B"/>
<path d="M496.726 434.759V462.53L551.951 448.711V420.94L496.726 434.759Z" fill="#3D531B"/>
<path d="M497.032 434.759L552.258 448.711V476.349L497.032 490.168L441.5 476.349V448.711L497.032 434.759Z" fill="#3D531B"/>
<path d="M441.5 448.711L497.032 462.53L552.258 448.711L497.032 434.759L441.5 448.711Z" fill="#3D531B"/>
<path d="M497.032 462.53V490.168L552.258 476.349V448.711L497.032 462.53Z" fill="#3D531B"/>
<path d="M386.274 434.759L441.5 448.711V476.349L386.274 490.301L330.742 476.349V448.711L386.274 434.759Z" fill="#3D531B"/>
<path d="M330.742 448.711L386.274 462.53L441.5 448.711L386.274 434.892L330.742 448.711Z" fill="#3D531B"/>
<path d="M386.274 462.53V490.301L441.5 476.349V448.711L386.274 462.53Z" fill="#3D531B"/>
<path d="M385.968 481L441.193 494.819V522.59L385.968 536.41L330.435 522.59V494.819L385.968 481Z" fill="#3D531B"/>
<path d="M330.435 494.819L385.968 508.638L441.193 494.819L385.968 481L330.435 494.819Z" fill="#3D531B"/>
<path d="M385.968 508.639V536.41L441.193 522.591V494.819L385.968 508.639Z" fill="#3D531B"/>
<path d="M496.726 481L551.951 494.819V522.59L496.726 536.41L441.193 522.59V494.819L496.726 481Z" fill="#3D531B"/>
<path d="M441.193 494.819L496.726 508.638L551.951 494.819L496.726 481L441.193 494.819Z" fill="#3D531B"/>
<path d="M496.726 508.639V536.41L551.951 522.591V494.819L496.726 508.639Z" fill="#3D531B"/>
<path d="M441.193 494.819L496.726 508.639V536.41L441.193 550.229L385.968 536.41V508.639L441.193 494.819Z" fill="#3D531B"/>
<path d="M385.968 508.639L441.193 522.591L496.726 508.639L441.193 494.819L385.968 508.639Z" fill="#3D531B"/>
<path d="M441.193 522.59V550.229L496.726 536.409V508.638L441.193 522.59Z" fill="#3D531B"/>
<path d="M441.193 522.59L496.726 536.41V564.048L441.193 578L385.968 564.048V536.41L441.193 522.59Z" fill="#3D531B"/>
<path d="M385.968 536.409L441.193 550.229L496.726 536.409L441.193 522.59L385.968 536.409Z" fill="#3D531B"/>
<path d="M441.193 550.229V578L496.726 564.048V536.41L441.193 550.229Z" fill="#3D531B"/>
<path d="M275.516 481L331.049 494.819V522.59L275.516 536.41L220.291 522.59V494.819L275.516 481Z" fill="#3D531B"/>
<path d="M220.291 494.819L275.516 508.638L331.049 494.819L275.516 481L220.291 494.819Z" fill="#3D531B"/>
<path d="M275.516 508.639V536.41L331.049 522.591V494.819L275.516 508.639Z" fill="#3D531B"/>
<g clip-path="url(#clip0_122_8)">
<path d="M624 474.562C624 471.705 618.521 469.308 611.988 469.308C605.455 469.308 599.975 471.705 599.975 474.562C599.975 477.42 605.455 479.817 611.988 479.817C618.731 479.817 624 477.42 624 474.562Z" fill="#3D531B"/>
<path d="M618.521 470.138C619.153 471.705 618.942 473.456 617.256 475.023C615.36 477.051 611.566 478.526 607.141 479.356C608.616 479.632 610.302 479.817 611.988 479.817C618.521 479.817 624 477.42 624 474.562C624 472.719 621.893 471.06 618.521 470.138Z" fill="#3D531B"/>
<path d="M615.149 477.42C615.149 473.272 607.351 469.861 597.868 469.861C588.384 469.861 580.798 473.272 580.798 477.42C580.798 481.568 588.595 484.979 598.079 484.979C607.562 484.979 615.149 481.66 615.149 477.42Z" fill="#3D531B"/>
<path d="M607.351 471.152C608.405 473.456 607.983 475.853 605.665 478.158C602.926 481.015 597.657 483.228 591.124 484.334C593.231 484.702 595.55 484.979 598.079 484.979C607.562 484.979 615.36 481.568 615.36 477.42C615.149 474.839 611.988 472.442 607.351 471.152Z" fill="#3D531B"/>
<path d="M597.025 482.674C597.025 479.817 591.545 477.42 585.012 477.42C578.479 477.42 573 479.817 573 482.674C573 485.532 578.479 487.929 585.012 487.929C591.545 487.929 597.025 485.624 597.025 482.674Z" fill="#3D531B"/>
<path d="M591.545 478.25C592.178 479.817 591.967 481.568 590.281 483.135C588.384 485.163 584.591 486.638 580.165 487.468C581.64 487.744 583.326 487.929 585.012 487.929C591.545 487.929 597.025 485.532 597.025 482.674C597.025 480.831 594.707 479.264 591.545 478.25Z" fill="#3D531B"/>
</g>
</g>
<path d="M608.484 81.9121L664.016 114.131V177.956L608.484 209.868L552.951 177.956V114.131L608.484 81.9121Z" fill="#A2CC5C"/>
<path d="M552.951 114.131L608.484 146.044L664.016 114.131L608.484 81.9121L552.951 114.131Z" fill="#C2DA6B"/>
<path d="M608.484 146.044V209.869L664.016 177.956V114.132L608.484 146.044Z" fill="#7EBA4C"/>
<path d="M442.193 50L497.726 81.9123V146.044L442.193 177.956L386.968 146.044V81.9123L442.193 50Z" fill="#A2CC5C"/>
<path d="M386.968 81.9123L442.193 114.132L497.726 81.9123L442.193 50L386.968 81.9123Z" fill="#C2DA6B"/>
<path d="M442.193 114.131V177.956L497.726 146.044V81.9121L442.193 114.131Z" fill="#7EBA4C"/>
<path d="M497.726 81.9121L552.951 114.131V177.956L497.726 209.868L442.193 177.956V114.131L497.726 81.9121Z" fill="#A2CC5C"/>
<path d="M442.193 114.131L497.726 146.044L552.951 114.131L497.726 81.9121L442.193 114.131Z" fill="#C2DA6B"/>
<path d="M497.726 146.044V209.869L552.951 177.956V114.132L497.726 146.044Z" fill="#7EBA4C"/>
<path d="M386.968 81.9121L442.193 114.131V177.956L386.968 209.868L331.435 177.956V114.131L386.968 81.9121Z" fill="#A2CC5C"/>
<path d="M331.435 114.131L386.968 146.044L442.193 114.131L386.968 81.9121L331.435 114.131Z" fill="#C2DA6B"/>
<path d="M386.968 146.044V209.869L442.193 177.956V114.132L386.968 146.044Z" fill="#7EBA4C"/>
<path d="M276.209 81.6055L331.435 113.518V177.649L276.209 209.562L220.677 177.649V113.518L276.209 81.6055Z" fill="#A2CC5C"/>
<path d="M220.677 113.518L276.209 145.737L331.435 113.518L276.209 81.6055L220.677 113.518Z" fill="#C2DA6B"/>
<path d="M276.209 145.737V209.561L331.435 177.649V113.518L276.209 145.737Z" fill="#7EBA4C"/>
<path d="M276.516 146.044L332.049 177.956V242.088L276.516 274L221.291 242.088V177.956L276.516 146.044Z" fill="#A2CC5C"/>
<path d="M221.291 177.956L276.516 209.869L332.049 177.956L276.516 146.044L221.291 177.956Z" fill="#C2DA6B"/>
<path d="M276.516 209.868V274L332.049 242.088V177.956L276.516 209.868Z" fill="#7EBA4C"/>
<path d="M110.532 177.956L165.758 209.868V274L110.532 305.912L55 274V209.868L110.532 177.956Z" fill="#A2CC5C"/>
<path d="M55 209.868L110.532 242.088L165.758 209.868L110.532 177.956L55 209.868Z" fill="#C2DA6B"/>
<path d="M110.532 242.087V305.912L165.758 274V209.868L110.532 242.087Z" fill="#7EBA4C"/>
<path d="M774.774 177.956L830 209.868V274L774.774 305.912L719.242 274V209.868L774.774 177.956Z" fill="#A2CC5C"/>
<path d="M719.242 209.868L774.774 242.088L830 209.868L774.774 177.956L719.242 209.868Z" fill="#C2DA6B"/>
<path d="M774.774 242.087V305.912L830 274V209.868L774.774 242.087Z" fill="#7EBA4C"/>
<path d="M608.484 146.044L664.016 177.956V242.088L608.484 274L552.951 242.088V177.956L608.484 146.044Z" fill="#A2CC5C"/>
<path d="M552.951 177.956L608.484 209.869L664.016 177.956L608.484 146.044L552.951 177.956Z" fill="#C2DA6B"/>
<path d="M608.484 209.868V274L664.016 242.088V177.956L608.484 209.868Z" fill="#7EBA4C"/>
<path d="M664.016 177.956L719.242 209.868V274L664.016 305.912L608.484 274V209.868L664.016 177.956Z" fill="#A2CC5C"/>
<path d="M608.484 209.868L664.016 242.088L719.242 209.868L664.016 177.956L608.484 209.868Z" fill="#C2DA6B"/>
<path d="M664.016 242.087V305.912L719.242 274V209.868L664.016 242.087Z" fill="#7EBA4C"/>
<path d="M608.484 209.868L664.016 242.087V305.912L608.484 337.824L552.951 305.912V242.087L608.484 209.868Z" fill="#A2CC5C"/>
<path d="M552.951 242.087L608.484 274L664.016 242.087L608.484 209.868L552.951 242.087Z" fill="#C2DA6B"/>
<path d="M608.484 274V337.825L664.016 305.913V242.088L608.484 274Z" fill="#7EBA4C"/>
<path d="M221.291 177.956L276.516 209.868V274L221.291 305.912L165.758 274V209.868L221.291 177.956Z" fill="#A2CC5C"/>
<path d="M165.758 209.868L221.291 242.088L276.516 209.868L221.291 177.956L165.758 209.868Z" fill="#C2DA6B"/>
<path d="M221.291 242.087V305.912L276.516 274V209.868L221.291 242.087Z" fill="#7EBA4C"/>
<path d="M276.516 209.868L332.049 242.087V305.912L276.516 337.824L221.291 305.912V242.087L276.516 209.868Z" fill="#A2CC5C"/>
<path d="M221.291 242.087L276.516 274L332.049 242.087L276.516 209.868L221.291 242.087Z" fill="#C2DA6B"/>
<path d="M276.516 274V337.825L332.049 305.913V242.088L276.516 274Z" fill="#7EBA4C"/>
<path d="M608.484 274L664.016 305.912V370.044L608.484 401.956L552.951 370.044V305.912L608.484 274Z" fill="#A2CC5C"/>
<path d="M552.951 305.912L608.484 337.825L664.016 305.912L608.484 274L552.951 305.912Z" fill="#C2DA6B"/>
<path d="M608.484 337.824V401.956L664.016 370.044V305.912L608.484 337.824Z" fill="#7EBA4C"/>
<path d="M387.274 103.392L442.5 135.304V199.435L387.274 231.348L331.742 199.435V135.304L387.274 103.392Z" fill="#A2CC5C"/>
<path d="M331.742 135.304L387.274 167.216L442.5 135.304L387.274 103.392L331.742 135.304Z" fill="#D8E267"/>
<path d="M387.274 167.217V231.348L442.5 199.436V135.304L387.274 167.217Z" fill="#7EBA4C"/>
<path d="M497.726 103.392L552.951 135.304V199.435L497.726 231.348L442.193 199.435V135.304L497.726 103.392Z" fill="#A2CC5C"/>
<path d="M442.193 135.304L497.726 167.216L552.951 135.304L497.726 103.392L442.193 135.304Z" fill="#D8E267"/>
<path d="M497.726 167.217V231.348L552.951 199.436V135.304L497.726 167.217Z" fill="#7EBA4C"/>
<path d="M498.032 167.217L553.258 199.436V263.261L498.032 295.173L442.5 263.261V199.436L498.032 167.217Z" fill="#A2CC5C"/>
<path d="M442.5 199.436L498.032 231.348L553.258 199.436L498.032 167.217L442.5 199.436Z" fill="#D8E267"/>
<path d="M498.032 231.348V295.173L553.258 263.26V199.436L498.032 231.348Z" fill="#7EBA4C"/>
<path d="M387.274 167.217L442.5 199.436V263.261L387.274 295.48L331.742 263.261V199.436L387.274 167.217Z" fill="#A2CC5C"/>
<path d="M331.742 199.436L387.274 231.348L442.5 199.436L387.274 167.523L331.742 199.436Z" fill="#D8E267"/>
<path d="M387.274 231.348V295.479L442.5 263.26V199.436L387.274 231.348Z" fill="#7EBA4C"/>
<path d="M386.968 274L442.193 305.912V370.044L386.968 401.956L331.435 370.044V305.912L386.968 274Z" fill="#A2CC5C"/>
<path d="M331.435 305.912L386.968 337.825L442.193 305.912L386.968 274L331.435 305.912Z" fill="#C2DA6B"/>
<path d="M386.968 337.824V401.956L442.193 370.044V305.912L386.968 337.824Z" fill="#7EBA4C"/>
<path d="M497.726 274L552.951 305.912V370.044L497.726 401.956L442.193 370.044V305.912L497.726 274Z" fill="#A2CC5C"/>
<path d="M442.193 305.912L497.726 337.825L552.951 305.912L497.726 274L442.193 305.912Z" fill="#C2DA6B"/>
<path d="M497.726 337.824V401.956L552.951 370.044V305.912L497.726 337.824Z" fill="#7EBA4C"/>
<path d="M442.193 305.912L497.726 337.824V401.956L442.193 433.868L386.968 401.956V337.824L442.193 305.912Z" fill="#A2CC5C"/>
<path d="M386.968 337.824L442.193 370.044L497.726 337.824L442.193 305.912L386.968 337.824Z" fill="#C2DA6B"/>
<path d="M442.193 370.044V433.868L497.726 401.956V337.825L442.193 370.044Z" fill="#7EBA4C"/>
<path d="M442.193 370.044L497.726 401.956V465.781L442.193 498L386.968 465.781V401.956L442.193 370.044Z" fill="#A2CC5C"/>
<path d="M386.968 401.956L442.193 433.869L497.726 401.956L442.193 370.044L386.968 401.956Z" fill="#C2DA6B"/>
<path d="M442.193 433.868V498L497.726 465.781V401.956L442.193 433.868Z" fill="#7EBA4C"/>
<path d="M276.516 274L332.049 305.912V370.044L276.516 401.956L221.291 370.044V305.912L276.516 274Z" fill="#A2CC5C"/>
<path d="M221.291 305.912L276.516 337.825L332.049 305.912L276.516 274L221.291 305.912Z" fill="#C2DA6B"/>
<path d="M276.516 337.824V401.956L332.049 370.044V305.912L276.516 337.824Z" fill="#7EBA4C"/>
<g clip-path="url(#clip1_122_8)">
<path d="M610 173.134C610 166.535 604.521 161 597.988 161C591.455 161 585.975 166.535 585.975 173.134C585.975 179.733 591.455 185.267 597.988 185.267C604.731 185.267 610 179.733 610 173.134Z" fill="white"/>
<path d="M604.521 162.916C605.153 166.535 604.942 170.579 603.256 174.198C601.36 178.881 597.566 182.287 593.141 184.203C594.616 184.842 596.302 185.267 597.988 185.267C604.521 185.267 610 179.733 610 173.134C610 168.876 607.893 165.044 604.521 162.916Z" fill="#E6E7E8"/>
<path d="M601.149 179.733C601.149 170.154 593.351 162.277 583.868 162.277C574.384 162.277 566.798 170.154 566.798 179.733C566.798 189.312 574.595 197.188 584.079 197.188C593.562 197.188 601.149 189.525 601.149 179.733Z" fill="white"/>
<path d="M593.351 165.257C594.405 170.579 593.983 176.114 591.665 181.436C588.926 188.035 583.657 193.143 577.124 195.698C579.231 196.549 581.55 197.188 584.079 197.188C593.562 197.188 601.36 189.312 601.36 179.733C601.149 173.772 597.988 168.238 593.351 165.257Z" fill="#E6E7E8"/>
<path d="M583.025 191.866C583.025 185.267 577.545 179.733 571.012 179.733C564.479 179.733 559 185.267 559 191.866C559 198.465 564.479 204 571.012 204C577.545 204 583.025 198.678 583.025 191.866Z" fill="white"/>
<path d="M577.545 181.648C578.178 185.267 577.967 189.312 576.281 192.931C574.384 197.614 570.591 201.02 566.165 202.936C567.64 203.574 569.326 204 571.012 204C577.545 204 583.025 198.465 583.025 191.866C583.025 187.609 580.707 183.99 577.545 181.648Z" fill="#E6E7E8"/>
</g>
<g clip-path="url(#clip2_122_8)">
<path d="M463 77.5693C463 71.2772 457.736 66 451.459 66C445.182 66 439.917 71.2772 439.917 77.5693C439.917 83.8614 445.182 89.1386 451.459 89.1386C457.938 89.1386 463 83.8614 463 77.5693Z" fill="white"/>
<path d="M457.736 67.8267C458.343 71.2772 458.14 75.1336 456.521 78.5841C454.698 83.0494 451.054 86.297 446.802 88.1237C448.219 88.7326 449.839 89.1385 451.459 89.1385C457.736 89.1385 463 83.8613 463 77.5692C463 73.5098 460.975 69.8564 457.736 67.8267Z" fill="#E6E7E8"/>
<path d="M454.496 83.8613C454.496 74.7277 447.004 67.2178 437.893 67.2178C428.781 67.2178 421.492 74.7277 421.492 83.8613C421.492 92.995 428.983 100.505 438.095 100.505C447.207 100.505 454.496 93.198 454.496 83.8613Z" fill="white"/>
<path d="M447.004 70.0593C448.017 75.1336 447.612 80.4108 445.384 85.4851C442.752 91.7771 437.69 96.6484 431.413 99.0841C433.438 99.896 435.665 100.505 438.095 100.505C447.207 100.505 454.698 92.995 454.698 83.8613C454.496 78.1781 451.459 72.9009 447.004 70.0593Z" fill="#E6E7E8"/>
<path d="M437.083 95.4306C437.083 89.1386 431.818 83.8613 425.541 83.8613C419.264 83.8613 414 89.1386 414 95.4306C414 101.723 419.264 107 425.541 107C431.818 107 437.083 101.926 437.083 95.4306Z" fill="white"/>
<path d="M431.818 85.688C432.426 89.1385 432.223 92.9949 430.603 96.4454C428.781 100.911 425.136 104.158 420.884 105.985C422.302 106.594 423.921 107 425.541 107C431.818 107 437.083 101.723 437.083 95.4306C437.083 91.3712 434.855 87.9207 431.818 85.688Z" fill="#E6E7E8"/>
</g>
<g clip-path="url(#clip3_122_8)">
<path d="M276.338 59L309 78V116L276.338 135L244 116V78L276.338 59Z" fill="#A2CC5C"/>
<path d="M244 78L276.338 97L309 78L276.338 59L244 78Z" fill="#C2DA6B"/>
<path d="M276.338 97V135L309 116V78L276.338 97Z" fill="#7EBA4C"/>
</g>
<g clip-path="url(#clip4_122_8)">
<path d="M610.338 57L643 76V114L610.338 133L578 114V76L610.338 57Z" fill="#A2CC5C"/>
<path d="M578 76L610.338 95L643 76L610.338 57L578 76Z" fill="#C2DA6B"/>
<path d="M610.338 95V133L643 114V76L610.338 95Z" fill="#7EBA4C"/>
</g>
<g clip-path="url(#clip5_122_8)">
<path d="M774.338 150L807 169V207L774.338 226L742 207V169L774.338 150Z" fill="#A2CC5C"/>
<path d="M742 169L774.338 188L807 169L774.338 150L742 169Z" fill="#C2DA6B"/>
<path d="M774.338 188V226L807 207V169L774.338 188Z" fill="#7EBA4C"/>
</g>
<g clip-path="url(#clip6_122_8)">
<path d="M763.299 167.058C763.299 163.789 768.227 161.115 774.5 161.115C780.773 161.115 785.701 163.789 785.701 167.058C785.701 170.326 780.773 173 774.5 173C768.227 173 763.299 170.326 763.299 167.058Z" fill="#7EBA4C"/>
<path d="M764.344 162.898C764.344 159.927 768.974 157.55 774.5 157.55C780.175 157.55 784.656 159.927 784.656 162.898C784.656 165.869 780.026 168.246 774.5 168.246C768.825 168.246 764.344 165.869 764.344 162.898Z" fill="#C2DA6B"/>
<path d="M774.201 163.047H774.799C775.545 163.047 776.143 162.452 776.143 161.709V142.397C776.143 141.654 775.545 141.06 774.799 141.06H774.201C773.455 141.06 772.857 141.654 772.857 142.397V161.709C773.007 162.601 773.455 163.047 774.201 163.047Z" fill="#0F0F0F"/>
<path d="M763 145.962C763 142.545 768.078 139.871 774.5 139.871C780.773 139.871 786 142.545 786 145.962C786 149.231 780.922 152.053 774.5 152.053C768.227 152.053 763 149.231 763 145.962Z" fill="#C2DA6B"/>
<path d="M774.5 125.313L763.299 144.625H785.701L774.5 125.313Z" fill="#C2DA6B"/>
<path d="M775.247 141.803C771.961 141.803 768.825 141.357 766.584 138.98L774.5 125.313L782.714 139.426C780.922 141.357 777.487 141.803 775.247 141.803Z" fill="#7EBA4C"/>
<path d="M764.195 133.186C764.195 130.215 768.825 127.69 774.5 127.69C780.175 127.69 784.805 130.215 784.805 133.186C784.805 136.158 780.175 138.683 774.5 138.683C768.825 138.683 764.195 136.306 764.195 133.186Z" fill="#C2DA6B"/>
<path d="M774.5 114.616L764.493 131.998H784.656L774.5 114.616Z" fill="#C2DA6B"/>
<path d="M775.097 129.472C772.11 129.472 769.273 129.027 767.331 126.947L774.5 114.616L781.968 127.393C780.325 129.027 777.188 129.472 775.097 129.472Z" fill="#7EBA4C"/>
<path d="M765.539 122.044C765.539 119.37 769.571 117.291 774.5 117.291C779.429 117.291 783.461 119.37 783.461 122.044C783.461 124.718 779.429 126.798 774.5 126.798C769.571 126.798 765.539 124.718 765.539 122.044Z" fill="#C2DA6B"/>
<path d="M774.5 106L765.838 121.004H783.162L774.5 106Z" fill="#C2DA6B"/>
</g>
<g clip-path="url(#clip7_122_8)">
<path d="M625.8 307.2C625.4 306 625.2 304.8 624.8 303.6C624.6 302.8 624.2 302.6 623.6 302.6C622.6 302.6 621.6 302.6 620.6 302.6C620.4 301 620.2 300.8 618.6 300.6V299.2C613.8 301.2 608.4 300.8 603.2 299.8V300.4C601.6 300.8 601.4 300.8 601.2 302.4C600.6 302.4 600 302.4 599.4 302.4C598.6 302.4 598.2 302.8 598 303.6C597.8 305 597.4 306.2 597.2 307.6C597 308.6 597.4 309.2 598.2 309.2C598.4 309.2 598.6 309.2 598.8 309.2C607.2 309.2 615.8 309.2 624.2 309.2C626 309.4 626.4 308.8 625.8 307.2Z" fill="black"/>
<path d="M626 309.4C626 305.2 619.4 301.6 611.4 301.6C603.4 301.6 596.8 305 596.8 309.4C596.8 313.6 603.4 317.2 611.4 317.2C619.6 317 626 313.6 626 309.4Z" fill="black"/>
<path d="M624.8 303.8C624.8 300 618.8 296.8 611.6 296.8C604.2 296.8 598.4 300 598.4 303.8C598.4 307.6 604.4 310.8 611.6 310.8C618.8 310.8 624.8 307.6 624.8 303.8Z" fill="#383838"/>
<path d="M612 303.6H611.2C610.2 303.6 609.4 302.8 609.4 301.8V275.6C609.4 274.6 610.2 273.8 611.2 273.8H612C613 273.8 613.8 274.6 613.8 275.6V301.8C613.6 302.8 612.8 303.6 612 303.6Z" fill="#0F0F0F"/>
<path d="M627 280.2C627 275.6 620 272 611.4 272C603 272 596 275.8 596 280.2C596 284.8 603 288.4 611.6 288.4C620 288.6 627 284.8 627 280.2Z" fill="#383838"/>
<path d="M611.6 252.4L626.6 278.4H596.4L611.6 252.4Z" fill="#383838"/>
<path d="M610.6 274.8C615 274.8 619.2 274.2 622.4 271L611.6 252.4L600.4 271.6C602.8 274 607.4 274.8 610.6 274.8Z" fill="#0F0F0F"/>
<path d="M625.6 263C625.6 258.8 619.4 255.6 611.6 255.6C603.8 255.6 597.6 259 597.6 263C597.6 267.2 603.8 270.4 611.6 270.4C619.4 270.4 625.6 267 625.6 263Z" fill="#383838"/>
<path d="M611.6 237.8L625.2 261.2H598L611.6 237.8Z" fill="#383838"/>
<path d="M610.6 258C614.6 258 618.4 257.4 621.2 254.6L611.6 237.8L601.6 255.2C603.8 257.2 607.8 258 610.6 258Z" fill="#0F0F0F"/>
<path d="M623.6 247.8C623.6 244.2 618.2 241.4 611.4 241.4C604.8 241.4 599.2 244.2 599.2 247.8C599.2 251.4 604.6 254.2 611.4 254.2C618.2 254.2 623.6 251.4 623.6 247.8Z" fill="#383838"/>
<path d="M611.6 226L623.2 246.4H599.8L611.6 226Z" fill="#383838"/>
</g>
<g clip-path="url(#clip8_122_8)">
<path d="M611.273 41.7606L600.621 52.4121L611.273 63.0636L621.924 52.4121L611.273 41.7606Z" fill="#1C1C1C"/>
<path d="M611.275 52.3449L600.623 62.9963L611.275 73.6478L621.926 62.9963L611.275 52.3449Z" fill="#1C1C1C"/>
<path d="M625.071 62.9834L617.49 70.5642L625.071 78.145L632.651 70.5642L625.071 62.9834Z" fill="#1C1C1C"/>
<path d="M597.586 62.9751L590.006 70.5559L597.586 78.1367L605.167 70.5559L597.586 62.9751Z" fill="#1C1C1C"/>
<path d="M625.037 62.9685H597.556V78.1H625.037V62.9685Z" fill="#1C1C1C"/>
<path d="M613.57 0.813499C613.434 0.949207 613.299 1.01706 613.163 1.15277C613.231 1.28848 613.366 1.35633 613.434 1.42419C614.113 2.17058 614.791 2.84912 615.47 3.59551C615.673 3.79908 615.945 4.00264 616.148 4.2062C616.42 4.47762 616.623 4.81689 616.827 5.15616C616.963 5.42757 617.166 5.76684 617.37 6.10611C617.777 6.85251 618.252 7.53105 618.659 8.27744C619.609 10.0416 620.762 11.738 621.984 13.3665C622.391 13.9093 622.798 14.4522 623.273 14.995C623.68 15.5378 623.816 16.1485 623.884 16.8271C624.019 18.8627 623.544 20.8304 623.137 22.7982C623.002 22.6625 622.866 22.5946 622.73 22.4589C622.798 22.8661 622.866 23.1375 622.866 23.4767C622.866 23.6803 622.866 23.8839 622.866 24.0874C622.595 25.1052 622.323 26.0552 622.052 27.073C622.052 27.1409 621.984 27.2087 621.916 27.4123C621.848 26.598 621.78 25.8516 621.305 25.1731C621.102 25.9195 620.966 26.598 620.762 27.3444C620.627 27.073 620.559 26.8694 620.423 26.598C620.287 26.8016 620.152 26.9373 620.084 27.1409C618.93 29.1765 617.37 30.9407 615.945 32.7728C615.877 32.9085 615.673 32.9763 615.538 32.9763C613.977 33.5191 612.484 34.062 610.924 34.6727C610.381 34.8762 610.313 34.8762 610.381 35.4869C610.449 35.9619 610.177 36.3012 609.974 36.6404C609.838 36.844 609.838 36.9797 609.974 37.1833C611.059 39.151 612.145 41.1188 613.231 43.0187C613.366 43.2223 613.502 43.2901 613.706 43.2901C614.656 43.2223 615.538 43.1544 616.488 43.1544C616.623 43.1544 616.759 43.2223 616.895 43.2901V43.4258C616.691 43.358 616.488 43.4258 616.284 43.4258C615.741 43.4937 615.198 43.4937 614.656 43.5615V43.6973C614.927 43.7651 615.266 43.833 615.538 43.833C616.284 43.7651 616.895 43.9687 617.573 44.1722C617.709 44.2401 617.845 44.3758 617.98 44.5115L617.913 44.6472C616.895 44.5794 615.877 44.4436 614.859 44.3758V44.4436C614.995 44.5115 615.063 44.5794 615.198 44.6472C615.538 44.8508 615.945 45.1222 616.284 45.2579C616.691 45.4615 616.827 45.8007 616.895 46.2757C616.623 46.14 616.42 46.0043 616.216 45.8686C615.198 45.19 613.977 44.9186 612.756 44.7151C612.281 44.6472 611.738 44.6472 611.263 44.5794C611.195 44.5794 611.059 44.5794 610.991 44.5115C610.856 44.3758 610.72 44.4436 610.584 44.5115C610.313 44.5794 609.974 44.5794 609.702 44.5794C609.499 44.5794 609.295 44.4436 609.092 44.3758C609.363 43.9008 609.906 43.7651 610.381 43.6973C610.72 43.6294 610.856 43.4937 610.856 43.1544C610.856 42.7473 610.788 42.3402 610.652 42.0009C610.381 41.3224 610.109 40.6438 609.838 39.9653C609.567 39.0153 609.024 38.2011 608.481 37.4547C608.074 36.9118 607.734 36.3012 607.395 35.6905C607.327 35.4869 607.26 35.2834 607.26 35.0798C607.26 34.8084 607.124 34.6727 606.92 34.6048C605.97 33.9941 604.274 33.9941 603.324 34.6048C603.12 34.7405 603.053 34.8762 603.053 35.1476C603.12 35.8262 603.188 36.5047 603.188 37.1154C603.188 37.4547 603.188 37.7261 603.12 38.0654C602.985 38.7439 602.985 39.2867 603.528 39.8296C604.885 41.1188 606.106 42.5437 607.531 43.833C608.549 44.7151 609.634 45.4615 610.788 46.14C611.263 46.4114 611.874 46.4793 612.416 46.5471C613.299 46.6828 614.181 46.6828 615.063 46.7507C615.334 46.7507 615.606 46.9542 615.945 47.0221C615.538 47.4971 615.063 47.1578 614.656 47.2935C614.248 47.4292 613.773 47.2257 613.366 47.4971C614.588 47.4292 615.741 47.7006 616.895 48.1078V48.2435C616.759 48.3113 616.623 48.447 616.488 48.3792C615.877 48.3113 615.266 48.1756 614.656 48.1078C614.52 48.1078 614.316 48.1756 614.181 48.1756C613.638 48.1756 613.027 48.1756 612.484 48.1756V48.2435C612.552 48.3113 612.688 48.447 612.756 48.5149C613.299 48.9899 613.909 49.397 614.384 49.872C614.588 50.0077 614.588 50.3469 614.723 50.6184C613.773 50.2791 612.824 50.0755 612.145 49.397C611.738 49.0577 611.263 48.922 610.856 48.6506C609.634 47.8363 608.277 47.7006 606.852 47.6328C606.377 47.6328 605.902 47.7006 605.427 47.4971C605.36 47.4292 605.224 47.5649 605.088 47.6328C604.952 47.7685 604.817 47.9721 604.681 48.1756C604.41 47.0221 604.885 46.5471 605.97 46.3436C606.31 46.2757 606.717 46.4114 607.056 46.4793C607.26 45.8007 607.26 45.2579 606.717 44.6472C605.156 42.8152 603.324 41.3224 601.356 39.8296C601.153 39.6939 600.949 39.4224 600.813 39.2189C600.542 38.8118 600.271 38.4725 599.863 38.2011C599.66 38.0654 599.592 37.9297 599.66 37.7261C599.66 37.2511 599.66 36.7761 599.66 36.3012L599.592 36.2333C598.438 37.1833 597.76 38.4725 596.471 39.2867C596.471 39.151 596.471 39.0153 596.403 38.8118C596.199 38.8796 595.996 39.0153 595.792 39.0832L595.724 39.0153C595.996 38.6082 596.335 38.2011 596.606 37.7939C596.539 37.8618 596.335 37.8618 596.267 37.9975C595.928 38.2689 595.589 38.5403 595.317 38.8796C594.978 39.3546 594.503 39.2867 593.96 39.3546C594.096 39.0832 594.164 38.8118 594.232 38.5403H594.164C593.96 38.7439 593.757 38.9475 593.553 39.151C593.417 39.2867 593.214 39.3546 593.01 39.4224C592.874 39.4903 592.739 39.4224 592.671 39.4903C592.467 39.626 592.264 39.5582 592.06 39.3546C592.467 39.151 592.467 38.8118 592.196 38.4725C591.11 39.0153 590.025 39.626 588.939 40.1688V40.0331C589.346 39.2189 589.753 38.4725 590.228 37.6582L590.092 37.5904C589.957 37.7261 589.889 37.794 589.753 37.9297C589.075 38.7439 588.396 39.4903 587.718 40.3046C587.65 40.3724 587.582 40.4403 587.514 40.4403C586.903 40.5081 586.36 40.576 585.75 40.6438C585.818 39.8974 585.953 39.151 586.496 38.6082C587.31 37.6582 588.057 36.7083 588.871 35.7583C588.939 35.6226 589.007 35.4869 589.075 35.3512C588.735 35.6226 588.396 35.9619 587.989 36.2333C586.768 37.2511 585.478 38.2011 584.257 39.2189C583.85 39.4903 583.443 39.6939 582.968 39.7617C581.882 39.7617 581.679 39.6939 581 39.2867C581.068 39.2189 581.136 39.151 581.271 39.0832C585.546 35.894 589.821 32.7049 594.096 29.5158C594.571 29.1765 594.639 28.9729 594.435 28.4301C594.435 28.3622 594.435 28.2265 594.503 28.1587C594.707 27.8194 594.91 27.548 595.046 27.2087C595.249 26.8694 595.385 26.5302 595.792 26.3266C595.86 26.2588 595.928 26.1909 595.996 26.0552C596.199 25.1052 596.674 24.291 597.149 23.4767C597.285 23.2732 597.285 23.0018 597.353 22.6625C596.674 22.8661 596.335 23.5446 595.521 23.341C595.589 23.2053 595.656 23.1375 595.724 23.0696C596.335 22.3911 597.014 21.7804 597.556 21.034C597.964 20.559 598.303 20.084 598.71 19.5412C598.438 19.3377 598.303 19.4055 598.235 19.6091C598.167 19.8805 598.031 19.8126 597.828 19.7448C598.438 19.0662 598.846 18.1841 599.66 17.6413C599.863 17.5056 599.931 17.3699 599.931 17.1663C599.931 17.0306 599.999 16.8271 600.135 16.6913C600.746 15.8092 601.424 14.9271 601.967 14.045C602.17 13.7058 602.442 13.3665 602.849 13.2986C603.324 13.1629 603.799 12.9594 604.274 12.8915C604.817 12.8237 605.156 12.4844 605.36 12.0094C605.224 12.0094 605.088 12.0094 604.885 12.0094C605.088 11.8059 605.224 11.6701 605.36 11.4666C605.224 11.4666 605.156 11.4666 605.02 11.3987C605.156 10.9916 605.36 10.5845 605.495 10.2452C605.563 10.0416 605.563 9.83809 605.495 9.70238C605.224 9.15955 604.885 8.61671 604.545 8.14174C603.799 7.12393 602.713 6.7168 601.492 6.58109C601.221 6.58109 601.017 6.51324 600.746 6.51324C600.813 6.17397 600.542 6.17397 600.271 6.17397C599.117 6.17397 597.964 6.17397 596.81 6.17397C596.674 6.17397 596.539 6.17397 596.403 6.10611C596.199 6.03826 596.064 5.90255 595.86 6.10611C595.792 6.17397 595.656 6.17397 595.453 6.17397C595.589 5.90255 595.724 5.63114 595.86 5.42757C596.674 4.13835 597.896 3.25624 599.388 2.91697C600.949 2.5777 602.374 1.89916 603.731 1.15277C604.681 0.677791 605.699 0.338521 606.785 0.270667C607.327 0.202813 607.802 0.134959 608.277 -0.0686035C608.82 -0.000749476 609.227 -0.0686035 609.567 0.134959C610.177 0.406375 610.788 0.474229 611.399 0.542083C612.077 0.609937 612.824 0.677791 613.57 0.813499ZM606.513 2.98483C606.852 2.98483 607.056 2.71341 607.056 2.442C607.056 2.17058 606.785 1.89916 606.513 1.89916C606.174 1.89916 605.902 2.17058 605.902 2.442C605.97 2.78127 606.242 3.05268 606.513 2.98483Z" fill="#1C1C1C"/>
</g>
<g clip-path="url(#clip9_122_8)">
<path d="M651.459 115.141C651.459 115.141 653.622 106.116 652.108 102.678C649.514 103.537 648 102.463 648 102.463C648 102.463 648.649 99.4547 648.649 96.4464C648.649 93.4382 648.432 90.6448 648.865 90.0001C649.297 89.5704 650.811 90.0001 651.243 90.8596C651.459 91.5043 654.703 97.3059 657.946 98.1654C656.432 100.529 653.838 102.033 653.838 102.033C653.838 102.033 655.784 109.124 654.486 115.141C651.892 116.43 651.459 115.141 651.459 115.141Z" fill="#040404"/>
<path d="M656.432 115.356C656.432 115.356 659.243 110.199 659.459 107.62C657.73 107.62 657.297 105.901 657.297 105.901C657.297 105.901 658.595 102.463 659.459 100.744C659.892 98.8102 660.757 96.4465 661.189 96.4465C661.622 96.2316 661.838 97.0911 661.838 97.5209C661.838 98.1655 662.703 104.397 664 106.116C662.486 107.19 660.54 107.835 660.54 107.835C660.54 107.835 659.676 112.562 657.513 116C655.784 116.215 656.432 115.356 656.432 115.356Z" fill="#040404"/>
<path d="M661.189 110.843C661.189 111.273 660.324 111.273 659.243 111.273C658.162 111.058 657.297 110.628 657.297 110.413C657.297 109.984 658.162 109.984 659.243 109.984C660.324 110.199 661.189 110.628 661.189 110.843Z" fill="#040404"/>
</g>
<defs>
<filter id="filter0_f_122_8" x="0" y="330" width="883" height="302" filterUnits="userSpaceOnUse" color-interpolation-filters="sRGB">
<feFlood flood-opacity="0" result="BackgroundImageFix"/>
<feBlend mode="normal" in="SourceGraphic" in2="BackgroundImageFix" result="shape"/>
<feGaussianBlur stdDeviation="27" result="effect1_foregroundBlur_122_8"/>
</filter>
<clipPath id="clip0_122_8">
<rect width="51" height="18.6205" fill="white" transform="translate(573 469.308)"/>
</clipPath>
<clipPath id="clip1_122_8">
<rect width="51" height="43" fill="white" transform="translate(559 161)"/>
</clipPath>
<clipPath id="clip2_122_8">
<rect width="49" height="41" fill="white" transform="translate(414 66)"/>
</clipPath>
<clipPath id="clip3_122_8">
<rect width="65" height="76" fill="white" transform="translate(244 59)"/>
</clipPath>
<clipPath id="clip4_122_8">
<rect width="65" height="76" fill="white" transform="translate(578 57)"/>
</clipPath>
<clipPath id="clip5_122_8">
<rect width="65" height="76" fill="white" transform="translate(742 150)"/>
</clipPath>
<clipPath id="clip6_122_8">
<rect width="23" height="67" fill="white" transform="matrix(-1 0 0 1 786 106)"/>
</clipPath>
<clipPath id="clip7_122_8">
<rect width="31" height="91" fill="white" transform="translate(596 226)"/>
</clipPath>
<clipPath id="clip8_122_8">
<rect width="51.6369" height="78.1" fill="white" transform="translate(581)"/>
</clipPath>
<clipPath id="clip9_122_8">
<rect width="16" height="26" fill="white" transform="translate(648 90)"/>
</clipPath>
</defs>
</svg>
