<svg width="13" height="24" viewBox="0 0 13 24" fill="none" xmlns="http://www.w3.org/2000/svg">
<path d="M12.2013 0.00487937L9.16028 0C5.74375 0 3.53583 2.26525 3.53583 5.77132V8.43228H0.478178C0.21396 8.43228 0 8.64648 0 8.9107V12.7661C0 13.0303 0.214204 13.2443 0.478178 13.2443H3.53583V22.9728C3.53583 23.237 3.74979 23.451 4.01401 23.451H8.00338C8.2676 23.451 8.48156 23.2368 8.48156 22.9728V13.2443H12.0567C12.3209 13.2443 12.5349 13.0303 12.5349 12.7661L12.5363 8.9107C12.5363 8.78384 12.4858 8.66234 12.3963 8.57256C12.3067 8.48278 12.1848 8.43228 12.0579 8.43228H8.48156V6.17655C8.48156 5.09235 8.73992 4.54196 10.1523 4.54196L12.2009 4.54123C12.4648 4.54123 12.6788 4.32702 12.6788 4.06305V0.483057C12.6788 0.219328 12.4651 0.0053673 12.2013 0.00487937Z" fill="white"/>
</svg>
