<svg width="27" height="43" viewBox="0 0 27 43" fill="none" xmlns="http://www.w3.org/2000/svg">
<g opacity="0.5">
<path d="M6.00256 39.0873C5.7518 39.0873 5.5559 39.0317 5.41484 38.9207C5.27379 38.8096 5.20327 38.643 5.20327 38.4209C5.20327 38.2939 5.23461 38.1749 5.2973 38.0718C5.35999 37.9766 5.45403 37.8973 5.57157 37.8418C5.69695 37.7862 5.838 37.7624 6.01039 37.7624V37.5879C6.0339 37.5879 6.06525 37.5879 6.10443 37.5958C6.14361 37.6038 6.17496 37.6038 6.19846 37.6038C6.21414 37.6038 6.24548 37.6038 6.28466 37.5958C6.32384 37.5879 6.35519 37.5879 6.3787 37.5879V37.7545C6.56677 37.7545 6.72349 37.7862 6.84887 37.8497C6.97425 37.9132 7.06045 37.9925 7.10746 38.0956C7.16232 38.1908 7.18582 38.3019 7.18582 38.4209C7.18582 38.5478 7.15448 38.6668 7.09179 38.762C7.0291 38.8651 6.93507 38.9445 6.80969 39C6.68431 39.0555 6.54326 39.0873 6.3787 39.0873V39.2618C6.35519 39.2618 6.32384 39.2618 6.28466 39.2539C6.24548 39.2539 6.21414 39.2459 6.19846 39.2459C6.17496 39.2459 6.14361 39.2459 6.10443 39.2539C6.06525 39.2618 6.0339 39.2618 6.01039 39.2618V39.0873H6.00256ZM6.36302 37.8814V38.9524C6.44139 38.9524 6.51191 38.9286 6.56677 38.8731C6.62945 38.8175 6.66864 38.7461 6.69998 38.6589C6.73133 38.5716 6.747 38.4764 6.747 38.3812C6.747 38.3019 6.73133 38.2225 6.69998 38.1432C6.66864 38.0639 6.62945 38.0004 6.56677 37.9528C6.51191 37.9052 6.44139 37.8814 6.36302 37.8814ZM6.00256 38.9603V37.8814C5.9242 37.8814 5.85367 37.9052 5.79882 37.9608C5.73613 38.0084 5.69695 38.0798 5.6656 38.167C5.63426 38.2543 5.61859 38.3574 5.61859 38.4605C5.61859 38.5399 5.63426 38.6192 5.6656 38.6985C5.69695 38.7779 5.74396 38.8413 5.79882 38.8889C5.85367 38.9365 5.9242 38.9603 6.00256 38.9603ZM7.68734 38.6668C7.68734 38.8096 7.71869 38.9127 7.78138 39C7.84407 39.0793 7.93026 39.1269 8.04781 39.1269C8.09482 39.1269 8.14184 39.119 8.19669 39.0952C8.25155 39.0714 8.29073 39.0476 8.32991 39.0159L8.35342 39.0397L8.29856 39.1745C8.25155 39.2063 8.19669 39.238 8.134 39.2539C8.07131 39.2777 8.00863 39.2856 7.95377 39.2856C7.85974 39.2856 7.7657 39.2697 7.68734 39.2459C7.60898 39.2142 7.54629 39.1745 7.4836 39.119C7.42875 39.0635 7.38957 38.9921 7.35822 38.9127C7.32688 38.8334 7.31904 38.7461 7.31904 38.643C7.31904 38.5557 7.33471 38.4764 7.35822 38.405C7.38173 38.3336 7.42091 38.2701 7.46793 38.2146C7.51495 38.1591 7.57763 38.1194 7.64816 38.0956C7.71869 38.0718 7.79705 38.056 7.88325 38.056C8.2202 38.056 8.3926 38.2622 8.3926 38.6668H7.68734ZM8.07131 38.5557C8.07131 38.4605 8.05564 38.3733 8.03213 38.2939C8.00863 38.2146 7.96161 38.167 7.89892 38.167C7.82056 38.167 7.77354 38.2067 7.74219 38.286C7.71085 38.3653 7.69518 38.4526 7.68734 38.5557H8.07131ZM8.55716 39.1031C8.57283 39.0714 8.5885 39.0397 8.60418 39C8.61985 38.9603 8.62768 38.9286 8.64336 38.9127C8.68254 38.8175 8.71388 38.7382 8.73739 38.6747C8.76874 38.6033 8.79224 38.5399 8.81575 38.4764C8.83926 38.4129 8.86277 38.3495 8.88628 38.286C8.90979 38.2225 8.9333 38.1511 8.9568 38.0797C8.97248 38.0797 8.99599 38.0798 9.01949 38.0877C9.043 38.0956 9.06651 38.0956 9.08218 38.0956C9.09786 38.0956 9.12136 38.0956 9.14487 38.0877C9.17622 38.0877 9.19189 38.0797 9.20756 38.0797C9.34861 38.4923 9.46616 38.8413 9.57586 39.1111H9.70124C9.69341 39.1349 9.69341 39.1745 9.69341 39.2142C9.69341 39.2459 9.69341 39.2856 9.70124 39.3253H9.67773C9.65423 39.3015 9.62288 39.2856 9.59154 39.2777C9.55236 39.2697 9.50534 39.2618 9.44265 39.2618C9.37996 39.2618 9.29376 39.2539 9.16838 39.2539H8.9568C8.83143 39.2539 8.74523 39.2539 8.69037 39.2618C8.63552 39.2618 8.58067 39.2697 8.54932 39.2777C8.51014 39.2856 8.4788 39.3015 8.45529 39.3253H8.43178C8.43962 39.3015 8.44745 39.2697 8.44745 39.2142C8.44745 39.1666 8.43962 39.1349 8.43178 39.1111H8.55716V39.1031ZM9.20756 39.1031L8.98031 38.4129C8.86277 38.7303 8.78441 38.9603 8.73739 39.1031H9.20756ZM10.1009 38.6668C10.1009 38.8096 10.1322 38.9127 10.1949 39C10.2576 39.0793 10.3438 39.1269 10.4614 39.1269C10.5084 39.1269 10.5554 39.119 10.6102 39.0952C10.6651 39.0714 10.7043 39.0476 10.7435 39.0159L10.767 39.0397L10.7121 39.1745C10.6651 39.2063 10.6102 39.238 10.5476 39.2539C10.4849 39.2777 10.43 39.2856 10.3673 39.2856C10.2733 39.2856 10.1793 39.2697 10.1009 39.2459C10.0225 39.2142 9.95984 39.1745 9.89715 39.119C9.8423 39.0635 9.80311 38.9921 9.77177 38.9127C9.74042 38.8334 9.73259 38.7461 9.73259 38.643C9.73259 38.5557 9.74826 38.4764 9.77177 38.405C9.79528 38.3336 9.83446 38.2701 9.88148 38.2146C9.93633 38.1591 9.99118 38.1194 10.0617 38.0956C10.1322 38.0718 10.2106 38.056 10.2968 38.056C10.6337 38.056 10.8061 38.2622 10.8061 38.6668H10.1009ZM10.477 38.5557C10.477 38.4605 10.4614 38.3733 10.4378 38.2939C10.4143 38.2146 10.3673 38.167 10.3046 38.167C10.2263 38.167 10.1793 38.2067 10.1479 38.286C10.1166 38.3653 10.1009 38.4526 10.0931 38.5557H10.477ZM11.0021 38.0797C11.0177 38.0797 11.0334 38.0798 11.0412 38.0877C11.0491 38.0877 11.0647 38.0877 11.0804 38.0877C11.0961 38.0877 11.1118 38.0877 11.1274 38.0877C11.1431 38.0877 11.1509 38.0877 11.1666 38.0877C11.1744 38.0877 11.1823 38.0877 11.198 38.0877C11.2136 38.0877 11.2215 38.0877 11.2371 38.0877C11.2528 38.0877 11.2685 38.0877 11.2763 38.0877C11.2842 38.0877 11.2998 38.0877 11.3233 38.0797V38.2939C11.3547 38.2225 11.3939 38.1591 11.4487 38.1194C11.5036 38.0797 11.5741 38.056 11.6525 38.056C11.7387 38.056 11.8092 38.0718 11.8719 38.1035C11.9346 38.1353 11.9816 38.1749 12.0208 38.2305C12.0599 38.286 12.0913 38.3495 12.107 38.4209C12.1226 38.4923 12.1305 38.5716 12.1305 38.6509C12.1305 38.7937 12.107 38.9048 12.0599 39.0079C12.0129 39.1031 11.9581 39.1745 11.8875 39.2221C11.817 39.2697 11.7308 39.2935 11.6446 39.2935C11.5114 39.2935 11.4095 39.238 11.3312 39.119V39.8965C11.2685 39.8885 11.2136 39.8885 11.1666 39.8885C11.1196 39.8885 11.0647 39.8965 11.0021 39.8965V38.0797ZM11.77 38.6747C11.77 38.3653 11.6995 38.2146 11.5584 38.2146C11.4644 38.2146 11.4017 38.2622 11.3704 38.3653C11.339 38.4605 11.3233 38.5716 11.3233 38.6906C11.3233 38.9841 11.3939 39.1269 11.5427 39.1269C11.6133 39.119 11.676 39.0714 11.7073 38.9921C11.7543 38.9127 11.77 38.8096 11.77 38.6747ZM13.251 39.0476C13.251 39.0873 13.2589 39.119 13.2745 39.1349C13.2902 39.1507 13.3294 39.1587 13.3764 39.1587V39.2142C13.2824 39.2618 13.2119 39.2777 13.157 39.2777C13.1022 39.2777 13.0551 39.2618 13.016 39.2301C12.9768 39.1983 12.9454 39.1587 12.9219 39.1031C12.8906 39.1587 12.8514 39.1983 12.7887 39.2301C12.7339 39.2618 12.6712 39.2777 12.6085 39.2777C12.5379 39.2777 12.4831 39.2697 12.4282 39.238C12.3734 39.2142 12.3342 39.1745 12.3107 39.1269C12.2794 39.0793 12.2637 39.0238 12.2637 38.9524C12.2637 38.881 12.2794 38.8175 12.3107 38.7699C12.342 38.7223 12.3891 38.6906 12.4517 38.6589C12.5144 38.6271 12.6006 38.6033 12.7103 38.5795C12.7887 38.5557 12.8514 38.5399 12.8827 38.5161C12.9062 38.4923 12.9219 38.4605 12.9219 38.4209C12.9219 38.3653 12.8984 38.3098 12.8514 38.2701C12.8044 38.2305 12.7495 38.2067 12.6947 38.2067C12.6477 38.2067 12.6006 38.2146 12.5615 38.2305C12.5223 38.2463 12.4831 38.2701 12.4517 38.2939C12.4204 38.3177 12.4047 38.3415 12.3969 38.3574H12.3812L12.3499 38.2146C12.4047 38.1591 12.4753 38.1194 12.5536 38.0956C12.632 38.0718 12.7182 38.056 12.7965 38.056C12.8749 38.056 12.9454 38.0639 13.0081 38.0877C13.0786 38.1115 13.1335 38.1432 13.1805 38.1908C13.2275 38.2384 13.251 38.3019 13.251 38.3812V39.0476ZM12.9219 38.6271C12.9141 38.6351 12.8906 38.6351 12.8514 38.6509C12.8122 38.6668 12.7809 38.6747 12.7574 38.6906C12.7339 38.6985 12.7025 38.7144 12.6868 38.7303C12.632 38.7699 12.6085 38.8413 12.6085 38.9365C12.6085 38.9921 12.6163 39.0317 12.6398 39.0714C12.6633 39.1111 12.6947 39.1269 12.7339 39.1269C12.8514 39.1269 12.9141 39.0397 12.9219 38.8651V38.6271ZM14.6145 39.1031H14.7399C14.7321 39.1349 14.7321 39.1666 14.7321 39.2063C14.7321 39.2459 14.7399 39.2856 14.7399 39.3173H14.7164C14.6851 39.2856 14.6459 39.2618 14.5832 39.2539C14.5205 39.2459 14.4186 39.2459 14.2776 39.2459C14.0268 39.2459 13.8544 39.2459 13.7604 39.2459C13.6664 39.2459 13.5958 39.2539 13.5488 39.2539V38.0797C13.588 38.0877 13.6428 38.0877 13.7134 38.0877C13.7917 38.0877 13.8544 38.0797 13.8779 38.0797V39.1111H14.2854V38.0797C14.3324 38.0877 14.3873 38.0877 14.45 38.0877C14.5205 38.0877 14.5754 38.0797 14.6145 38.0797V39.1031ZM15.2179 38.8175C15.359 38.6351 15.5235 38.3891 15.7116 38.0718C15.7194 38.0718 15.7351 38.0718 15.7665 38.0797C15.7978 38.0797 15.8213 38.0877 15.837 38.0877C15.8605 38.0877 15.9075 38.0877 15.9545 38.0797V39.2618C15.9389 39.2618 15.9075 39.2618 15.8762 39.2539C15.837 39.2539 15.8135 39.2459 15.79 39.2459C15.7508 39.2459 15.6959 39.2539 15.6254 39.2539V38.5002C15.4452 38.7303 15.2806 38.9841 15.1317 39.2539C15.1239 39.2539 15.1082 39.2539 15.0769 39.2459C15.0534 39.2459 15.0299 39.238 15.0063 39.238C14.9907 39.238 14.9672 39.238 14.928 39.2459C14.8966 39.2539 14.881 39.2539 14.881 39.2539V38.0797C14.9515 38.0877 15.0063 38.0877 15.0455 38.0877C15.0847 38.0877 15.1396 38.0797 15.2101 38.0797V38.8175H15.2179ZM16.1113 39.2539C16.1504 39.2063 16.2758 39.0397 16.4874 38.7541C16.4404 38.7461 16.3934 38.7303 16.3463 38.6985C16.2993 38.6668 16.2601 38.6271 16.221 38.5795C16.1896 38.5319 16.1739 38.4685 16.1739 38.405C16.1739 38.3336 16.1896 38.2701 16.2288 38.2225C16.268 38.1749 16.3228 38.1432 16.3934 38.1194C16.4639 38.0956 16.5422 38.0877 16.6363 38.0877H17.1613V39.2697C17.1456 39.2697 17.1221 39.2697 17.0908 39.2618C17.0594 39.2618 17.0281 39.2539 17.0046 39.2539C16.9732 39.2539 16.9419 39.2539 16.9105 39.2618C16.8792 39.2697 16.8479 39.2697 16.8322 39.2697V38.7779H16.8243C16.8008 38.8096 16.7695 38.8572 16.7303 38.9127C16.6911 38.9683 16.6598 39.0238 16.6284 39.0793C16.5971 39.1349 16.5579 39.1983 16.5031 39.2697C16.4796 39.2697 16.456 39.2697 16.4169 39.2618C16.3777 39.2539 16.3463 39.2539 16.315 39.2539C16.2836 39.2539 16.2445 39.2539 16.2053 39.2618C16.1583 39.2539 16.1348 39.2539 16.1113 39.2539ZM16.8322 38.2146H16.7538C16.6833 38.2146 16.6284 38.2305 16.5814 38.2701C16.5344 38.3019 16.5109 38.3495 16.5109 38.4129C16.5109 38.4843 16.5344 38.5399 16.5814 38.5795C16.6284 38.6192 16.6833 38.6351 16.7538 38.6351H16.8322V38.2146ZM19.2301 39.2459C18.8853 39.2459 18.6423 39.2539 18.4935 39.2539V38.0797C18.5326 38.0877 18.5875 38.0877 18.658 38.0877C18.7364 38.0877 18.7912 38.0797 18.8226 38.0797V39.1111H19.0577V38.0797C19.089 38.0877 19.1439 38.0877 19.2222 38.0877C19.3006 38.0877 19.3633 38.0797 19.3868 38.0797V39.1111H19.6219V38.0797C19.6689 38.0877 19.7237 38.0877 19.7864 38.0877C19.8491 38.0877 19.904 38.0797 19.951 38.0797V39.2618C19.8256 39.2539 19.5749 39.2459 19.2301 39.2459ZM21.1421 39.0476C21.1421 39.0873 21.1499 39.119 21.1656 39.1349C21.1813 39.1507 21.2205 39.1587 21.2675 39.1587V39.2142C21.1734 39.2618 21.1029 39.2777 21.0481 39.2777C20.9932 39.2777 20.9462 39.2618 20.907 39.2301C20.8678 39.1983 20.8365 39.1587 20.813 39.1031C20.7816 39.1587 20.7424 39.1983 20.6798 39.2301C20.6249 39.2618 20.5622 39.2777 20.5074 39.2777C20.4368 39.2777 20.382 39.2697 20.3271 39.238C20.2723 39.2142 20.2331 39.1745 20.2017 39.1269C20.1704 39.0793 20.1547 39.0238 20.1547 38.9524C20.1547 38.881 20.1704 38.8175 20.2017 38.7699C20.2331 38.7223 20.2801 38.6906 20.3428 38.6589C20.4055 38.6271 20.4917 38.6033 20.6014 38.5795C20.6798 38.5557 20.7424 38.5399 20.7738 38.5161C20.7973 38.4923 20.813 38.4605 20.813 38.4209C20.813 38.3653 20.7895 38.3098 20.7424 38.2701C20.6954 38.2305 20.6406 38.2067 20.5857 38.2067C20.5387 38.2067 20.4917 38.2146 20.4525 38.2305C20.4133 38.2463 20.3741 38.2701 20.3428 38.2939C20.3115 38.3177 20.2958 38.3415 20.2879 38.3574H20.2723L20.2409 38.2146C20.2958 38.1591 20.3663 38.1194 20.4447 38.0956C20.523 38.0718 20.6092 38.056 20.6876 38.056C20.7581 38.056 20.8286 38.0639 20.8992 38.0877C20.9697 38.1115 21.0245 38.1432 21.0716 38.1908C21.1186 38.2384 21.1421 38.3019 21.1421 38.3812V39.0476ZM20.8051 38.6271C20.7973 38.6351 20.7738 38.6351 20.7346 38.6509C20.6954 38.6668 20.6641 38.6747 20.6406 38.6906C20.6171 38.6985 20.5936 38.7144 20.57 38.7303C20.5152 38.7699 20.4917 38.8413 20.4917 38.9365C20.4917 38.9921 20.4995 39.0317 20.523 39.0714C20.5465 39.1111 20.5779 39.1269 20.6249 39.1269C20.7424 39.1269 20.8051 39.0397 20.813 38.8651V38.6271H20.8051ZM21.8238 38.8334C21.6985 39.0238 21.6123 39.1666 21.5574 39.2539C21.5026 39.2459 21.4712 39.2459 21.4634 39.2459C21.4555 39.2459 21.4399 39.2459 21.4164 39.2459C21.3928 39.2459 21.3772 39.2539 21.3693 39.2539C21.4242 39.1825 21.4634 39.1269 21.5026 39.0714C21.5417 39.0238 21.5809 38.9603 21.6358 38.8889C21.6906 38.8175 21.7298 38.762 21.7612 38.7144C21.6671 38.5399 21.5417 38.3336 21.385 38.0718C21.4085 38.0718 21.4242 38.0718 21.4399 38.0797C21.4555 38.0797 21.4712 38.0797 21.4869 38.0797C21.5104 38.0797 21.5261 38.0797 21.5417 38.0797C21.5574 38.0797 21.5731 38.0797 21.5809 38.0797C21.5888 38.0797 21.6044 38.0797 21.6201 38.0797C21.6358 38.0797 21.6593 38.0797 21.675 38.0797C21.6985 38.0797 21.7141 38.0797 21.722 38.0797C21.7376 38.0797 21.7533 38.0797 21.7768 38.0718C21.8082 38.1273 21.8317 38.1749 21.8473 38.2146C21.8709 38.2463 21.8865 38.286 21.91 38.3257C21.9335 38.3653 21.9571 38.405 21.9884 38.4526C22.0746 38.3336 22.153 38.2067 22.2392 38.0718C22.2862 38.0797 22.3254 38.0797 22.3489 38.0797C22.3724 38.0797 22.4116 38.0797 22.4586 38.0718C22.388 38.1511 22.3254 38.2305 22.2705 38.3098C22.2078 38.3891 22.1451 38.4764 22.0668 38.5716L22.2 38.8017C22.2392 38.8572 22.2705 38.9127 22.294 38.9524C22.3175 38.9921 22.3489 39.0397 22.388 39.1031C22.4194 39.1666 22.4507 39.2142 22.4742 39.2539C22.4507 39.2539 22.4194 39.2539 22.3802 39.2459C22.341 39.238 22.3018 39.238 22.2783 39.238C22.2548 39.238 22.2235 39.238 22.1843 39.2459C22.1373 39.2459 22.1059 39.2539 22.0824 39.2539L21.8238 38.8334ZM23.7437 38.4288C23.6889 38.5557 23.6497 38.6589 23.6183 38.7382C23.587 38.8175 23.5556 38.8969 23.5243 38.9921C23.4929 39.0873 23.4694 39.1745 23.4459 39.2618C23.4303 39.2618 23.4067 39.2618 23.3832 39.2539C23.3519 39.2539 23.3284 39.2459 23.3127 39.2459C23.297 39.2459 23.2735 39.2459 23.2422 39.2539C23.2108 39.2539 23.1873 39.2618 23.1717 39.2618L22.8817 38.4288C22.819 38.7382 22.772 39.0079 22.7328 39.2618C22.6937 39.2618 22.6623 39.2539 22.6388 39.2539C22.6153 39.2539 22.584 39.2539 22.5448 39.2618C22.5918 39.0952 22.631 38.9524 22.6623 38.8413C22.6937 38.7303 22.725 38.6113 22.7563 38.4923C22.7877 38.3733 22.819 38.2384 22.8504 38.0877C22.8661 38.0877 22.8739 38.0877 22.8896 38.0956C22.8974 38.0956 22.9131 38.0956 22.9209 38.0956C22.9366 38.0956 22.9444 38.0956 22.9601 38.0956C22.9758 38.0956 22.9836 38.0956 22.9836 38.0956C22.9914 38.0956 22.9993 38.0956 23.0071 38.0956C23.0149 38.0956 23.0306 38.0956 23.0384 38.0956C23.0541 38.0956 23.062 38.0956 23.0698 38.0956C23.0776 38.0956 23.0933 38.0956 23.109 38.0877L23.3989 38.8889C23.4224 38.8255 23.4381 38.7699 23.4538 38.7303C23.4694 38.6906 23.5008 38.6113 23.54 38.5161C23.5791 38.4209 23.6105 38.3415 23.634 38.2781C23.6575 38.2146 23.681 38.1511 23.6967 38.0877C23.7124 38.0877 23.7202 38.0877 23.7359 38.0956C23.7437 38.0956 23.7594 38.0956 23.7672 38.0956C23.7829 38.0956 23.7907 38.0956 23.8064 38.0956C23.8142 38.0956 23.8299 38.0956 23.8299 38.0956C23.8377 38.0956 23.8456 38.0956 23.8612 38.0956C23.8691 38.0956 23.8848 38.0956 23.9004 38.0956C23.9083 38.0956 23.9239 38.0956 23.9318 38.0956C23.9396 38.0956 23.9553 38.0956 23.971 38.0877C23.9866 38.1749 24.0023 38.2701 24.0258 38.3812C24.0493 38.4843 24.065 38.5875 24.0885 38.6827C24.112 38.7779 24.1355 38.8731 24.159 38.9762C24.1904 39.0793 24.2139 39.1825 24.2452 39.2697C24.2295 39.2697 24.1982 39.2697 24.159 39.2618C24.1198 39.2618 24.0885 39.2539 24.0728 39.2539C24.0493 39.2539 24.0258 39.2539 23.9866 39.2618C23.9474 39.2618 23.9161 39.2697 23.9004 39.2697L23.7437 38.4288ZM25.3345 39.0476C25.3345 39.0873 25.3423 39.119 25.358 39.1349C25.3736 39.1507 25.405 39.1587 25.452 39.1587V39.2142C25.358 39.2618 25.2874 39.2777 25.2326 39.2777C25.1777 39.2777 25.1307 39.2618 25.0915 39.2301C25.0524 39.1983 25.021 39.1587 24.9975 39.1031C24.9662 39.1587 24.927 39.1983 24.8721 39.2301C24.8173 39.2618 24.7546 39.2777 24.6919 39.2777C24.6214 39.2777 24.5665 39.2697 24.5117 39.238C24.4568 39.2142 24.4176 39.1745 24.3863 39.1269C24.3549 39.0793 24.3471 39.0238 24.3471 38.9524C24.3471 38.881 24.3628 38.8175 24.3941 38.7699C24.4255 38.7223 24.4725 38.6906 24.5352 38.6589C24.5979 38.6271 24.684 38.6033 24.7938 38.5795C24.8721 38.5557 24.9348 38.5399 24.9662 38.5161C24.9897 38.4923 25.0053 38.4605 25.0053 38.4209C25.0053 38.3653 24.9818 38.3098 24.9348 38.2701C24.8878 38.2305 24.8329 38.2067 24.7781 38.2067C24.7311 38.2067 24.684 38.2146 24.6449 38.2305C24.5979 38.2463 24.5665 38.2701 24.5352 38.2939C24.5038 38.3177 24.4881 38.3415 24.4803 38.3574H24.4646L24.4333 38.2146C24.4881 38.1591 24.5508 38.1194 24.637 38.0956C24.7154 38.0718 24.7938 38.056 24.88 38.056C24.9505 38.056 25.0288 38.0639 25.0915 38.0877C25.1621 38.1115 25.2169 38.1432 25.2639 38.1908C25.3109 38.2384 25.3345 38.3019 25.3345 38.3812V39.0476ZM25.0053 38.6271C24.9975 38.6351 24.974 38.6351 24.9348 38.6509C24.8956 38.6668 24.8643 38.6747 24.8408 38.6906C24.8173 38.6985 24.7938 38.7144 24.7702 38.7303C24.7154 38.7699 24.6919 38.8413 24.6919 38.9365C24.6919 38.9921 24.6997 39.0317 24.7232 39.0714C24.7467 39.1111 24.7781 39.1269 24.8251 39.1269C24.9426 39.1269 25.0053 39.0397 25.0132 38.8651V38.6271H25.0053ZM26.2043 38.2225V39.2539C26.1808 39.2539 26.1573 39.2539 26.1181 39.2459C26.0789 39.2459 26.0554 39.238 26.0397 39.238C26.024 39.238 25.9927 39.238 25.9535 39.2459C25.9143 39.2539 25.8908 39.2539 25.8752 39.2539V38.2225C25.8046 38.2225 25.7576 38.2225 25.7184 38.2225C25.6792 38.2225 25.6401 38.2305 25.593 38.2305C25.546 38.2384 25.5147 38.2384 25.5069 38.2384C25.5069 38.2305 25.5068 38.2146 25.5147 38.1987C25.5147 38.1829 25.5225 38.167 25.5225 38.1591C25.5225 38.1511 25.5225 38.1353 25.5147 38.1194C25.5068 38.1035 25.5069 38.0877 25.5069 38.0797H26.0397H26.5804C26.5804 38.0877 26.5804 38.1035 26.5726 38.1194C26.5647 38.1353 26.5647 38.1511 26.5647 38.1591C26.5647 38.167 26.5647 38.1829 26.5726 38.1987C26.5804 38.2146 26.5804 38.2305 26.5804 38.2384C26.5726 38.2384 26.5412 38.2384 26.4942 38.2305C26.4472 38.2225 26.4002 38.2225 26.361 38.2225C26.3218 38.2225 26.267 38.2225 26.2043 38.2225ZM6.28466 40.4438C6.18279 40.5946 6.08876 40.7294 6.00256 40.8484L6.0339 40.904C6.26899 41.3244 6.42571 41.618 6.50408 41.7846C6.48057 41.7846 6.44922 41.7846 6.4022 41.7766C6.35519 41.7766 6.32384 41.7687 6.30033 41.7687C6.27683 41.7687 6.24548 41.7687 6.19846 41.7766C6.15145 41.7766 6.1201 41.7846 6.08876 41.7846C6.04958 41.7132 5.94771 41.5069 5.76747 41.1658L5.54806 41.5148C5.49321 41.6021 5.44619 41.6894 5.39917 41.7766C5.3835 41.7766 5.36783 41.7766 5.33648 41.7687C5.31297 41.7687 5.28947 41.7687 5.27379 41.7687C5.25812 41.7687 5.23461 41.7687 5.2111 41.7687C5.18759 41.7687 5.16409 41.7766 5.15625 41.7766C5.25812 41.6259 5.35215 41.491 5.43052 41.372C5.50888 41.253 5.58724 41.134 5.67344 41.0071L5.17976 40.1106C5.2111 40.1186 5.23461 40.1186 5.25812 40.1186C5.28163 40.1186 5.30514 40.1265 5.32865 40.1265C5.35215 40.1265 5.37566 40.1265 5.39134 40.1265C5.40701 40.1265 5.43052 40.1265 5.45403 40.1265C5.47753 40.1265 5.50104 40.1186 5.52455 40.1186C5.54806 40.1186 5.57157 40.1186 5.60291 40.1106C5.63426 40.182 5.6656 40.2455 5.68911 40.301C5.72046 40.3566 5.75964 40.428 5.79882 40.5152C5.84583 40.5946 5.87718 40.666 5.90069 40.7056C5.93203 40.658 5.98689 40.5628 6.07308 40.428C6.15145 40.2931 6.22197 40.19 6.26899 40.1106C6.30817 40.1186 6.34735 40.1186 6.38653 40.1186C6.42571 40.1186 6.46489 40.1186 6.50408 40.1106L6.28466 40.4438ZM8.22804 40.1106C8.22804 40.1106 8.24371 40.1186 8.26722 40.1186C8.29073 40.1186 8.3064 40.1265 8.32207 40.1265C8.32991 40.1265 8.34558 40.1265 8.35342 40.1265C8.36909 40.1265 8.37693 40.1186 8.3926 40.1186C8.40043 40.1186 8.41611 40.1186 8.43178 40.1106C8.45529 40.2852 8.47096 40.4756 8.49447 40.666C8.51798 40.8564 8.53365 40.9992 8.54149 41.0864C8.54932 41.1737 8.565 41.2848 8.58067 41.4117C8.59634 41.5386 8.61985 41.6656 8.63552 41.7846C8.61201 41.7846 8.58067 41.7846 8.53365 41.7766C8.48663 41.7766 8.45529 41.7687 8.43178 41.7687C8.40827 41.7687 8.37693 41.7687 8.33775 41.7766C8.29856 41.7766 8.26722 41.7846 8.24371 41.7846C8.23587 41.6973 8.23587 41.6021 8.22804 41.499C8.2202 41.4038 8.21237 41.3086 8.20453 41.2292C8.19669 41.1499 8.18886 41.0626 8.18102 40.9754C8.17319 40.8881 8.15751 40.777 8.14968 40.6501C8.11833 40.7136 8.07915 40.8008 8.0243 40.9119C7.96944 41.023 7.92243 41.1261 7.88325 41.2054C7.84406 41.2848 7.79705 41.3879 7.74219 41.499C7.68734 41.61 7.64816 41.7052 7.61682 41.7687H7.52278C7.49927 41.7132 7.45226 41.6259 7.3974 41.5069C7.34255 41.3879 7.30337 41.3006 7.27202 41.2372C7.24068 41.1737 7.19366 41.0785 7.13097 40.9516C7.06828 40.8246 7.02126 40.7294 6.98992 40.666C6.92723 41.1499 6.89589 41.5148 6.88805 41.7687C6.88021 41.7687 6.8567 41.7687 6.8332 41.7608C6.80969 41.7608 6.78618 41.7528 6.77834 41.7528C6.76267 41.7528 6.747 41.7528 6.72349 41.7608C6.69998 41.7608 6.67647 41.7687 6.6608 41.7687C6.69998 41.5466 6.73916 41.3165 6.77834 41.0706C6.81752 40.8246 6.8567 40.4994 6.91156 40.1027C6.92723 40.1106 6.9429 40.1106 6.95074 40.1106C6.95857 40.1106 6.97425 40.1186 6.98208 40.1186C6.98992 40.1186 7.00559 40.1186 7.01343 40.1186C7.02126 40.1186 7.0291 40.1186 7.04477 40.1186C7.06045 40.1186 7.06828 40.1106 7.07612 40.1106C7.08395 40.1106 7.09963 40.1106 7.1153 40.1027C7.17015 40.2217 7.20933 40.309 7.24851 40.3804C7.27986 40.4518 7.32688 40.539 7.38173 40.6501C7.43658 40.7612 7.49144 40.8643 7.53845 40.9674C7.58547 41.0706 7.63249 41.1578 7.6795 41.2451C7.68734 41.2213 7.72652 41.1499 7.78921 41.0309C7.8519 40.9119 7.90675 40.8008 7.96161 40.6977C8.01646 40.5946 8.06348 40.4914 8.11833 40.3883C8.14184 40.2931 8.18886 40.1979 8.22804 40.1106ZM9.15271 41.2768C9.13704 41.3165 9.12136 41.372 9.09002 41.4514C9.06651 41.5228 9.043 41.5862 9.02733 41.6418C9.01166 41.6973 8.99599 41.7449 8.98031 41.7846C8.97248 41.7846 8.94897 41.7846 8.92546 41.7766C8.90195 41.7766 8.87844 41.7766 8.86277 41.7766C8.8471 41.7766 8.83143 41.7766 8.80792 41.7766C8.78441 41.7766 8.7609 41.7846 8.74523 41.7846L9.43481 40.0948C9.46616 40.1027 9.4975 40.1027 9.52885 40.1027C9.56019 40.1027 9.59154 40.1027 9.62288 40.0948L10.2968 41.7846C10.2733 41.7846 10.2341 41.7846 10.1871 41.7766C10.1401 41.7766 10.1087 41.7687 10.0852 41.7687C10.0617 41.7687 10.0304 41.7687 9.98335 41.7766C9.93633 41.7766 9.90498 41.7846 9.88148 41.7846C9.81095 41.5545 9.74826 41.38 9.70908 41.2768H9.15271ZM9.66206 41.1261L9.45048 40.5549L9.22324 41.1261H9.66206ZM11.2136 41.8163C11.0334 41.8163 10.8767 41.7846 10.7435 41.7132C10.6102 41.6418 10.5084 41.5466 10.43 41.4117C10.3595 41.2848 10.3203 41.1261 10.3203 40.9436C10.3203 40.8246 10.3438 40.7056 10.383 40.6025C10.4222 40.4914 10.4849 40.4042 10.5711 40.3248C10.6494 40.2455 10.7513 40.182 10.8688 40.1344C10.9864 40.0868 11.1196 40.063 11.2685 40.063C11.433 40.063 11.5741 40.0868 11.6916 40.1424C11.8092 40.1979 11.9032 40.2614 11.9659 40.3486C12.0364 40.4359 12.0834 40.5232 12.1148 40.6263C12.1461 40.7215 12.1618 40.8326 12.1618 40.9357C12.1618 41.0547 12.1383 41.1658 12.0913 41.2768C12.0521 41.3879 11.9816 41.4831 11.9032 41.5624C11.817 41.6418 11.7151 41.7052 11.5976 41.7528C11.4957 41.7925 11.3625 41.8163 11.2136 41.8163ZM10.7278 41.015C10.7278 41.1261 10.7435 41.2292 10.7826 41.3324C10.8218 41.4355 10.8767 41.5148 10.9472 41.5783C11.0256 41.6418 11.1196 41.6735 11.2293 41.6735C11.3468 41.6735 11.4409 41.6418 11.5271 41.5704C11.6054 41.499 11.6681 41.4038 11.7073 41.2848C11.7465 41.1658 11.77 41.0388 11.77 40.896C11.77 40.8167 11.7622 40.7374 11.7387 40.6501C11.7151 40.5708 11.6838 40.4994 11.6446 40.4359C11.6054 40.3724 11.5506 40.3169 11.4879 40.2772C11.4174 40.2376 11.3468 40.2217 11.2606 40.2217C11.1509 40.2217 11.0491 40.2534 10.9707 40.309C10.8923 40.3645 10.8297 40.4518 10.7905 40.5708C10.7435 40.6898 10.7278 40.8326 10.7278 41.015ZM12.3499 41.1023H12.9533V41.3641H12.3499V41.1023Z" fill="#C0C0C0"/>
<path d="M13.7907 40.9826C13.7672 40.9747 13.7358 40.9747 13.7045 40.9747C13.6732 40.9747 13.6418 40.9747 13.6183 40.9826V41.7839C13.5948 41.7839 13.5634 41.7839 13.5243 41.776C13.4851 41.776 13.4537 41.768 13.4302 41.768C13.4067 41.768 13.3832 41.768 13.344 41.776C13.3049 41.7839 13.2735 41.7839 13.25 41.7839V40.11C13.2735 40.11 13.3049 40.1179 13.344 40.1179C13.3832 40.1258 13.4146 40.1258 13.4302 40.1258C13.4537 40.1258 13.4851 40.1258 13.5243 40.1179C13.5634 40.1179 13.5948 40.11 13.6183 40.11V40.7843C13.681 40.7843 13.7123 40.7922 13.7202 40.7922C13.728 40.7922 13.7594 40.7922 13.8064 40.7843C13.8299 40.6415 13.8769 40.5225 13.9553 40.4114C14.0336 40.3004 14.1355 40.221 14.2609 40.1576C14.3862 40.0941 14.5273 40.0703 14.6919 40.0703C14.8486 40.0703 14.9818 40.0941 15.0915 40.1496C15.2012 40.2052 15.2874 40.2686 15.3501 40.3559C15.4128 40.4432 15.4598 40.5304 15.4912 40.6336C15.5147 40.7367 15.5303 40.8398 15.5303 40.943C15.5303 41.062 15.5068 41.173 15.4676 41.2841C15.4285 41.3952 15.3658 41.4824 15.2874 41.5618C15.209 41.6411 15.115 41.7046 14.9975 41.7522C14.8878 41.7998 14.7624 41.8236 14.6213 41.8236C14.4489 41.8236 14.3079 41.7918 14.1825 41.7284C14.0571 41.6649 13.9631 41.5697 13.8926 41.4428C13.8299 41.3 13.7907 41.1492 13.7907 40.9826ZM14.1903 41.0144C14.1903 41.1968 14.2295 41.3476 14.3 41.4745C14.3706 41.6014 14.4881 41.6649 14.6448 41.6649C14.7545 41.6649 14.8486 41.6332 14.9191 41.5618C14.9896 41.4904 15.0445 41.3952 15.0837 41.2762C15.1229 41.1572 15.1385 41.0302 15.1385 40.8874C15.1385 40.7764 15.1229 40.6732 15.0915 40.5622C15.0602 40.459 15.0131 40.3718 14.9426 40.3083C14.8721 40.2448 14.7859 40.2131 14.6762 40.2131C14.5978 40.2131 14.5351 40.229 14.4724 40.2607C14.4098 40.2924 14.3627 40.34 14.3157 40.4114C14.2765 40.4828 14.2452 40.5622 14.2217 40.6653C14.1982 40.7605 14.1903 40.8795 14.1903 41.0144ZM16.1102 40.7446V41.776C16.0945 41.776 16.0632 41.776 16.0318 41.768C15.9927 41.768 15.9692 41.7601 15.9457 41.7601C15.93 41.7601 15.8986 41.7601 15.8673 41.768C15.8281 41.776 15.8046 41.776 15.7889 41.776V40.5939H16.6117C16.6039 40.6177 16.6039 40.6494 16.6039 40.6732C16.6039 40.705 16.6117 40.7288 16.6117 40.7526C16.4393 40.7526 16.2669 40.7446 16.1102 40.7446ZM16.7528 40.6018C16.7685 40.6018 16.7841 40.6018 16.7998 40.6098C16.8076 40.6098 16.8233 40.6098 16.839 40.6098C16.8546 40.6098 16.8703 40.6098 16.8782 40.6098C16.8938 40.6098 16.9017 40.6098 16.9173 40.6098C16.933 40.6098 16.9408 40.6098 16.9487 40.6098C16.9644 40.6098 16.98 40.6098 16.9879 40.6098C17.0035 40.6098 17.0192 40.6098 17.027 40.6098C17.0349 40.6098 17.0506 40.6098 17.0662 40.6018V40.816C17.0976 40.7446 17.1368 40.6812 17.1916 40.6415C17.2465 40.6018 17.317 40.578 17.3953 40.578C17.4815 40.578 17.5521 40.5939 17.6148 40.6256C17.6775 40.6574 17.7245 40.697 17.7636 40.7526C17.8028 40.8081 17.8263 40.8716 17.842 40.943C17.8577 41.0144 17.8655 41.0937 17.8655 41.173C17.8655 41.3158 17.842 41.4269 17.8028 41.53C17.7558 41.6252 17.701 41.6966 17.6226 41.7442C17.5521 41.7918 17.4659 41.8156 17.3875 41.8156C17.2543 41.8156 17.1446 41.7601 17.0741 41.6411V42.4185C17.0035 42.4106 16.9487 42.4106 16.9095 42.4106C16.8625 42.4106 16.8076 42.4185 16.7449 42.4185V40.6018H16.7528ZM17.5286 41.1968C17.5286 40.8874 17.458 40.7367 17.317 40.7367C17.223 40.7367 17.1603 40.7843 17.1289 40.8874C17.0976 40.9906 17.0819 41.0937 17.0819 41.2127C17.0819 41.5062 17.1524 41.649 17.3013 41.649C17.3797 41.6411 17.4345 41.5935 17.4737 41.5142C17.5051 41.4348 17.5286 41.3317 17.5286 41.1968ZM18.0928 40.6018C18.1163 40.6018 18.1476 40.6098 18.179 40.6098C18.2181 40.6098 18.2417 40.6177 18.2573 40.6177C18.273 40.6177 18.2965 40.6177 18.3357 40.6098C18.3749 40.6098 18.3984 40.6098 18.4219 40.6018V41.1016H18.6335C18.751 41.1016 18.845 41.1334 18.9234 41.1889C18.9939 41.2444 19.0331 41.3317 19.0331 41.4348C19.0331 41.5062 19.0096 41.5618 18.9704 41.6094C18.9312 41.657 18.8764 41.6966 18.8137 41.7284C18.751 41.7522 18.6805 41.768 18.61 41.768H18.0849V40.6018H18.0928ZM19.1898 40.6018C19.2055 40.6018 19.2212 40.6018 19.2369 40.6098C19.2447 40.6098 19.2604 40.6098 19.276 40.6098C19.2917 40.6098 19.3074 40.6098 19.3231 40.6098C19.3387 40.6098 19.3466 40.6098 19.3544 40.6098C19.3622 40.6098 19.3779 40.6098 19.3936 40.6098C19.4092 40.6098 19.4249 40.6098 19.4406 40.6098C19.4563 40.6098 19.4719 40.6098 19.4798 40.6098C19.4876 40.6098 19.5033 40.6098 19.5268 40.6018V41.7839C19.5111 41.7839 19.4798 41.7839 19.4484 41.776C19.4092 41.776 19.3857 41.768 19.3622 41.768C19.3466 41.768 19.3152 41.768 19.2839 41.776C19.2447 41.776 19.2212 41.7839 19.2055 41.7839V40.6018H19.1898ZM18.4297 41.6728H18.4689C18.5316 41.6728 18.5786 41.649 18.6256 41.6094C18.6726 41.5697 18.6962 41.5142 18.6962 41.4348C18.6962 41.3555 18.6726 41.292 18.6335 41.2524C18.5943 41.2127 18.5394 41.1968 18.4767 41.1968H18.4297V41.6728Z" fill="#C0C0C0"/>
<path fill-rule="evenodd" clip-rule="evenodd" d="M11.6289 36.6118C10.2968 35.525 9.01946 35.2632 7.72649 35.0093C6.77047 34.8189 5.79879 34.6206 4.78008 34.097C3.59681 33.494 2.61729 32.9943 1.84151 32.1057C1.07356 31.2172 0.525025 29.9638 0.195905 27.8297C0.0940344 27.1316 0.078362 25.9813 0.156724 24.7755C0.22725 23.5537 0.368301 22.2606 0.579879 21.261C0.767947 20.3329 1.01087 19.1825 1.19894 18.0243C1.38701 16.866 1.52022 15.7157 1.50455 14.7717C1.48888 13.9784 1.33999 13.185 1.0814 12.4235C0.830637 11.646 0.462336 10.9003 0.0313448 10.1704L0 10.0752C0.0235086 9.1867 0.0548534 8.28232 0.0705258 7.3938C0.078362 6.49735 0.078362 5.60089 0.0705258 4.70444V4.55371H3.97295C4.30207 7.11614 7.70298 6.98921 7.78134 4.55371H11.6368V36.6118H11.6289Z" fill="#C0C0C0"/>
<path fill-rule="evenodd" clip-rule="evenodd" d="M10.4219 26.7742H13.2351C12.9295 26.0602 12.6396 25.2113 12.3731 24.1879C12.1851 23.4264 11.997 22.5696 11.8403 21.6017C11.66 22.5775 11.4876 23.4264 11.2917 24.1879C11.0175 25.2113 10.7354 26.0602 10.4219 26.7742ZM11.8403 16.1595C12.1145 16.1595 12.381 15.985 12.5925 15.6915C12.8198 15.3662 12.9452 14.9061 12.9452 14.4063C12.9452 13.8986 12.8198 13.4464 12.5925 13.1053C12.381 12.8197 12.1145 12.6372 11.8403 12.6372C11.5503 12.6372 11.2839 12.8197 11.0723 13.1053C10.8607 13.4464 10.7119 13.8906 10.7119 14.4063C10.7119 14.9061 10.8607 15.3662 11.0723 15.6915C11.2761 15.985 11.5503 16.1595 11.8403 16.1595ZM11.8403 29.0669C9.47374 29.0669 9.58345 30.709 10.3906 32.4861C9.60696 31.9942 8.07106 31.4627 7.17774 31.4944C7.74194 31.0819 9.27 29.3445 8.38451 28.7416C6.78593 27.6468 6.50382 30.7725 6.69973 31.3754C5.47728 30.3441 5.25787 30.2251 3.81601 29.7412C4.74068 29.2969 6.3471 27.988 5.6105 27.147C4.19214 25.5207 3.51823 24.0531 3.6201 21.7763C3.76115 18.8172 5.24219 16.2944 5.36757 13.375C5.39108 12.7721 5.22652 12.1929 4.87389 11.7963C4.55261 11.4393 4.05109 11.1934 3.31449 11.0823L2.65625 10.9792C3.83168 10.2176 4.82688 9.60671 5.68886 9.92404C6.95832 10.4 6.98967 11.8042 7.00534 12.9069C6.92698 15.4852 6.35494 17.7858 6.10418 20.2372C5.99447 21.4272 6.02581 22.8631 6.37844 23.831C6.79376 24.9813 7.61656 25.5763 8.80766 24.6877C9.60696 24.0848 11.4328 18.6982 10.5238 18.1349C9.66181 17.5875 9.43456 20.5704 9.43456 21.1654C8.71363 20.3721 7.93001 19.8326 7.13855 19.5391C7.93001 18.7378 10.5003 16.3182 9.71666 15.6677C9.16029 15.2076 8.23562 16.2627 7.56171 17.0877C7.53036 16.461 7.60089 14.438 7.2561 13.8748C7.8203 14.2 9.34053 14.7554 9.40322 13.6764C9.47374 12.6055 7.92217 12.8752 7.31879 12.8673C7.84381 11.8518 8.21995 10.995 8.14159 9.85264C8.21995 10.1462 9.38754 12.5737 10.2887 11.8042C10.8607 11.3044 9.36404 9.09899 8.7293 8.78166C9.78719 8.65473 10.3357 8.2898 11.1899 7.59961C11.0645 8.32153 10.7667 10.7094 11.8324 10.7094C12.8825 10.7094 12.5847 8.32153 12.4593 7.59961C13.3135 8.2898 13.8542 8.66266 14.9277 8.78166C14.293 9.09899 12.7963 11.3044 13.3605 11.8042C14.2617 12.5737 15.4214 10.1462 15.5076 9.85264C15.4293 11.003 15.8054 11.8518 16.3304 12.8673C15.7427 12.8752 14.1755 12.6055 14.246 13.6764C14.293 14.7554 15.8211 14.2 16.3931 13.8748C16.0405 14.438 16.1188 16.461 16.0875 17.0877C15.4057 16.2627 14.4967 15.2076 13.9404 15.6677C13.1568 16.3182 15.7114 18.7378 16.5028 19.5391C15.7192 19.8405 14.9356 20.3721 14.2146 21.1654C14.2146 20.5704 13.9874 17.5875 13.1254 18.1349C12.2242 18.7061 14.0422 24.0848 14.8415 24.6877C16.0483 25.5763 16.8476 24.9813 17.2708 23.831C17.6234 22.8631 17.6547 21.4272 17.545 20.2372C17.2943 17.7858 16.7222 15.4773 16.6439 12.9069C16.6595 11.8042 16.6909 10.4 17.9525 9.92404C18.8223 9.59878 19.8175 10.2176 20.9851 10.9792L20.3425 11.0823C19.6059 11.1934 19.0966 11.4393 18.7753 11.7963C18.4305 12.1929 18.2581 12.7641 18.2738 13.375C18.4227 16.2944 19.8802 18.8092 20.0291 21.7763C20.1388 24.061 19.4649 25.5207 18.0387 27.147C17.2943 27.98 18.9007 29.289 19.8332 29.7412C18.3913 30.2251 18.1798 30.3441 16.9416 31.3754C17.1375 30.7804 16.8633 27.6468 15.2725 28.7416C14.3792 29.3445 15.9229 31.0819 16.4793 31.4944C15.5781 31.4627 14.0422 31.9942 13.2508 32.4861C14.0893 30.709 14.1833 29.0669 11.8403 29.0669Z" fill="#141515"/>
<path fill-rule="evenodd" clip-rule="evenodd" d="M10.4219 26.7742H13.2351C12.9295 26.0602 12.6396 25.2113 12.3731 24.1879C12.1851 23.4264 11.997 22.5696 11.8403 21.6017C11.66 22.5775 11.4876 23.4264 11.2917 24.1879C11.0175 25.2113 10.7354 26.0602 10.4219 26.7742ZM11.8403 16.1595C12.1145 16.1595 12.381 15.985 12.5925 15.6915C12.8198 15.3662 12.9452 14.9061 12.9452 14.4063C12.9452 13.8986 12.8198 13.4464 12.5925 13.1053C12.381 12.8197 12.1145 12.6372 11.8403 12.6372C11.5503 12.6372 11.2839 12.8197 11.0723 13.1053C10.8607 13.4464 10.7119 13.8906 10.7119 14.4063C10.7119 14.9061 10.8607 15.3662 11.0723 15.6915C11.2761 15.985 11.5503 16.1595 11.8403 16.1595ZM11.8403 29.0669C9.47374 29.0669 9.58345 30.709 10.3906 32.4861C9.60696 31.9942 8.07106 31.4627 7.17774 31.4944C7.74194 31.0819 9.27 29.3445 8.38451 28.7416C6.78593 27.6468 6.50382 30.7725 6.69973 31.3754C5.47728 30.3441 5.25787 30.2251 3.81601 29.7412C4.74068 29.2969 6.3471 27.988 5.6105 27.147C4.19214 25.5207 3.51823 24.0531 3.6201 21.7763C3.76115 18.8172 5.24219 16.2944 5.36757 13.375C5.39108 12.7721 5.22652 12.1929 4.87389 11.7963C4.55261 11.4393 4.05109 11.1934 3.31449 11.0823L2.65625 10.9792C3.83168 10.2176 4.82688 9.60671 5.68886 9.92404C6.95832 10.4 6.98967 11.8042 7.00534 12.9069C6.92698 15.4852 6.35494 17.7858 6.10418 20.2372C5.99447 21.4272 6.02581 22.8631 6.37844 23.831C6.79376 24.9813 7.61656 25.5763 8.80766 24.6877C9.60696 24.0848 11.4328 18.6982 10.5238 18.1349C9.66181 17.5875 9.43456 20.5704 9.43456 21.1654C8.71363 20.3721 7.93001 19.8326 7.13855 19.5391C7.93001 18.7378 10.5003 16.3182 9.71666 15.6677C9.16029 15.2076 8.23562 16.2627 7.56171 17.0877C7.53036 16.461 7.60089 14.438 7.2561 13.8748C7.8203 14.2 9.34053 14.7554 9.40322 13.6764C9.47374 12.6055 7.92217 12.8752 7.31879 12.8673C7.84381 11.8518 8.21995 10.995 8.14159 9.85264C8.21995 10.1462 9.38754 12.5737 10.2887 11.8042C10.8607 11.3044 9.36404 9.09899 8.7293 8.78166C9.78719 8.65473 10.3357 8.2898 11.1899 7.59961C11.0645 8.32153 10.7667 10.7094 11.8324 10.7094C12.8825 10.7094 12.5847 8.32153 12.4593 7.59961C13.3135 8.2898 13.8542 8.66266 14.9277 8.78166C14.293 9.09899 12.7963 11.3044 13.3605 11.8042C14.2617 12.5737 15.4214 10.1462 15.5076 9.85264C15.4293 11.003 15.8054 11.8518 16.3304 12.8673C15.7427 12.8752 14.1755 12.6055 14.246 13.6764C14.293 14.7554 15.8211 14.2 16.3931 13.8748C16.0405 14.438 16.1188 16.461 16.0875 17.0877C15.4057 16.2627 14.4967 15.2076 13.9404 15.6677C13.1568 16.3182 15.7114 18.7378 16.5028 19.5391C15.7192 19.8405 14.9356 20.3721 14.2146 21.1654C14.2146 20.5704 13.9874 17.5875 13.1254 18.1349C12.2242 18.7061 14.0422 24.0848 14.8415 24.6877C16.0483 25.5763 16.8476 24.9813 17.2708 23.831C17.6234 22.8631 17.6547 21.4272 17.545 20.2372C17.2943 17.7858 16.7222 15.4773 16.6439 12.9069C16.6595 11.8042 16.6909 10.4 17.9525 9.92404C18.8223 9.59878 19.8175 10.2176 20.9851 10.9792L20.3425 11.0823C19.6059 11.1934 19.0966 11.4393 18.7753 11.7963C18.4305 12.1929 18.2581 12.7641 18.2738 13.375C18.4227 16.2944 19.8802 18.8092 20.0291 21.7763C20.1388 24.061 19.4571 25.5207 18.0387 27.147C17.2943 27.98 18.9007 29.289 19.8332 29.7412C18.3913 30.2251 18.1798 30.3441 16.9416 31.3754C17.1375 30.7804 16.8633 27.6468 15.2725 28.7416C14.3792 29.3445 15.9229 31.0819 16.4793 31.4944C15.5781 31.4627 14.0422 31.9942 13.2508 32.4861C14.0893 30.709 14.1833 29.0669 11.8403 29.0669Z" fill="#C0C0C0"/>
<path d="M3.94921 0H0.078125V3.92694H3.94921V0Z" fill="#C0C0C0"/>
<path d="M11.5742 0H7.70312V3.92694H11.5742V0Z" fill="#C0C0C0"/>
<path d="M3.94921 37.5879H0.078125V41.5148H3.94921V37.5879Z" fill="#C0C0C0"/>
<path fill-rule="evenodd" clip-rule="evenodd" d="M5.58031 12.0742C5.58031 12.4391 5.58031 12.7961 5.58031 13.1611C4.82804 13.2087 4.3657 13.6291 4.20114 14.4145L2.46151 15.898L2.29695 15.9298L2.27344 16.7865C2.3518 16.8341 2.42233 16.8183 2.49285 16.8659C3.01788 17.2625 3.83284 17.2229 4.70266 16.5089C5.38441 16.3582 5.91727 16.4375 6.30124 16.731C4.02875 17.9448 3.22945 19.4124 3.90337 21.1419H10.3526C10.3526 20.9198 10.3526 20.6976 10.3526 20.4755C9.00473 19.8567 9.41221 18.4922 10.3526 16.9055C10.3526 16.4454 10.3526 15.9774 10.3526 15.5093C9.8432 14.0655 8.49538 12.8675 6.51282 12.9627C6.41095 12.5423 5.96429 12.1932 5.58031 12.0742Z" fill="white"/>
<path fill-rule="evenodd" clip-rule="evenodd" d="M3.91797 21.4834H10.3358C10.3358 21.6103 10.3358 21.7373 10.3358 21.8642C8.36109 21.7928 6.92707 24.4187 10.3358 25.5531V26.9732H3.91797C3.91797 26.4972 3.91797 26.0212 3.91797 25.5373C5.95538 25.6166 7.18566 22.1181 3.91797 21.8325C3.91797 21.7293 3.91797 21.6024 3.91797 21.4834Z" fill="white"/>
</g>
</svg>
