<svg width="25" height="25" viewBox="0 0 25 25" fill="none" xmlns="http://www.w3.org/2000/svg">
<path fill-rule="evenodd" clip-rule="evenodd" d="M17.9029 0.000305176H6.82362C3.06114 0.000305176 0.00012207 3.06147 0.00012207 6.82394V17.9032C0.00012207 21.6659 3.06114 24.7269 6.82362 24.7269H17.9029C21.6657 24.7269 24.7267 21.6657 24.7267 17.9032V6.82394C24.7268 3.06147 21.6657 0.000305176 17.9029 0.000305176ZM12.3635 5.9915C8.85026 5.9915 5.9921 8.84966 5.9921 12.3629C5.9921 15.876 8.85026 18.734 12.3635 18.734C15.8768 18.734 18.7349 15.876 18.7349 12.3629C18.7349 8.84966 15.8768 5.9915 12.3635 5.9915ZM12.3635 16.54C10.0601 16.54 8.18596 14.6662 8.18596 12.3628C8.18596 10.0592 10.06 8.18521 12.3635 8.18521C14.6671 8.18521 16.5411 10.0592 16.5411 12.3628C16.5411 14.6662 14.6669 16.54 12.3635 16.54ZM17.8657 4.60217C18.1642 4.30234 18.5795 4.13122 19.0021 4.13122C19.4263 4.13122 19.8417 4.30234 20.14 4.60217C20.4399 4.90053 20.611 5.3159 20.611 5.74005C20.611 6.16273 20.4399 6.57811 20.14 6.87793C19.8402 7.1763 19.4263 7.34888 19.0021 7.34888C18.5795 7.34888 18.1641 7.1763 17.8657 6.87793C17.5659 6.57811 17.3933 6.16288 17.3933 5.74005C17.3933 5.3159 17.5658 4.90053 17.8657 4.60217Z" fill="#333333"/>
</svg>
