<svg width="42" height="34" viewBox="0 0 42 34" fill="none" xmlns="http://www.w3.org/2000/svg">
<g clip-path="url(#clip0_35_11872)">
<path fill-rule="evenodd" clip-rule="evenodd" d="M20.9383 0C16.2851 0 11.934 0.942808 8.06641 2.97574C10.3326 4.06586 13.3844 4.9792 16.0132 5.50953C16.1038 5.42114 16.1945 5.33276 16.2851 5.2149C16.2247 4.9792 16.134 4.62565 16.1038 4.41941C16.6477 4.06586 18.3096 3.38821 18.3096 3.38821L18.0981 1.38475L18.9743 1.09012L19.8204 3.06412C25.5614 2.59272 26.1657 5.03813 26.4981 5.7747C29.3383 5.36222 32.2391 4.47834 34.4448 3.29983C31.3024 1.5026 26.4981 0 20.9383 0Z" fill="#C0C0C0"/>
<path fill-rule="evenodd" clip-rule="evenodd" d="M2.6875 7.18887C4.19829 7.66027 7.25009 8.51469 12.417 9.28072C12.8702 8.63254 14.9249 6.65854 15.4386 6.06928C11.3897 5.30325 8.24721 3.97743 7.12923 3.47656C5.61844 4.36044 3.92635 5.68627 2.6875 7.18887ZM26.7695 9.84051C32.8429 9.51642 37.7681 8.30845 39.6415 7.66027C38.4933 6.12821 36.6803 4.65507 35.23 3.77119C34.1724 4.33098 31.3321 5.62734 26.6789 6.33445C27.1321 7.42457 26.7695 9.84051 26.7695 9.84051Z" fill="#C0C0C0"/>
<path fill-rule="evenodd" clip-rule="evenodd" d="M0 13.8177C1.60144 13.8177 15.5914 13.8177 15.5914 13.8177C16.7094 11.9321 19.2173 10.7241 19.2173 10.7241C19.2173 10.7241 17.5554 10.6357 16.5583 10.5768C15.8029 11.166 14.2014 12.6981 12.5396 10.0759C9.03453 9.66344 4.7741 8.72063 2.14532 7.86621C0.543885 10.0465 0.0604317 12.1383 0 13.8177ZM42 13.8177C41.9698 12.1088 41.3655 10.2232 40.2475 8.54385C39.0993 8.86794 34.4158 10.2822 26.6201 10.6946C26.4388 11.7553 26.046 12.9338 25.9856 13.8471C26.6504 13.8177 40.7612 13.8177 42 13.8177Z" fill="#C0C0C0"/>
<path fill-rule="evenodd" clip-rule="evenodd" d="M0 14.6133C0.664748 14.6133 15.1079 14.6133 15.1079 14.6133C14.7755 15.232 14.5036 16.6462 14.564 17.3828C6.37554 18.0899 2.81007 19.3568 1.66187 19.7103C0.815827 18.3551 0.120863 16.7051 0 14.6133ZM25.8647 14.6133C26.4388 14.6133 41.4863 14.6133 41.9698 14.6133C41.8489 16.9408 40.9122 18.7675 40.1266 19.9166C39.1597 19.6514 34.2345 18.0899 26.6806 17.4122C26.3482 16.9703 25.7439 15.8802 25.8647 14.6133Z" fill="#C0C0C0"/>
<path fill-rule="evenodd" clip-rule="evenodd" d="M2.14453 20.3878C2.96036 20.0931 7.55317 18.62 14.6539 18.1191C14.7143 18.8852 14.956 19.7396 14.956 19.7396C14.956 19.7396 26.5287 19.7396 26.8913 19.7396C27.4956 19.0914 27.1632 18.237 27.1632 18.237C32.874 18.6789 38.615 20.2699 39.6424 20.6235C38.5244 22.0966 36.7114 23.6581 34.8078 24.7483C33.2366 24.159 29.0668 22.3323 23.5373 21.8904C24.1417 21.0654 26.3474 20.8592 26.8913 20.8002V20.0048H14.9258V20.8002C14.9258 20.8002 17.4942 20.8297 18.0985 21.8314C11.2395 22.3912 7.64381 24.5715 7.22079 24.8366C5.25676 23.7171 3.38338 22.1555 2.14453 20.3878Z" fill="#C0C0C0"/>
<path fill-rule="evenodd" clip-rule="evenodd" d="M33.8417 25.2793C32.059 26.2221 29.7021 27.0765 27.5568 27.5479V24.2186C26.8014 24.2186 26.5597 24.2481 26.0762 24.2481C25.0187 24.2481 24.3841 24.1597 23.8705 23.7767C23.2964 23.3936 23.2662 22.7749 23.3266 22.5098C29.3093 23.0401 33.8417 25.2793 33.8417 25.2793Z" fill="#C0C0C0"/>
<path fill-rule="evenodd" clip-rule="evenodd" d="M14.051 27.4885C11.7848 26.9582 9.6999 26.1627 8.00781 25.2788C9.82076 24.0708 13.4769 22.745 18.4323 22.4209C18.4927 22.5977 18.5531 23.4226 17.8884 23.8351C17.0121 24.3949 14.0208 24.2181 14.0208 24.2181V27.4885H14.051Z" fill="#C0C0C0"/>
<path d="M15.5 25.1621H17.7058V25.8103H16.3158V26.6058H17.6151V27.254H16.3158V28.6682H15.5V25.1621Z" fill="#C0C0C0"/>
<path d="M19.1557 25.1611V28.6967H18.3398V25.1611H19.1557Z" fill="#C0C0C0"/>
<path d="M19.8818 25.2202C20.1839 25.1613 20.5767 25.1318 20.9998 25.1318C21.6947 25.1318 22.148 25.2497 22.4803 25.5149C22.8429 25.78 23.0847 26.222 23.0847 26.8407C23.0847 27.5183 22.8429 27.9897 22.4803 28.2844C22.0875 28.6084 21.5134 28.7558 20.7883 28.7558C20.3652 28.7558 20.0631 28.7263 19.8516 28.6968V25.2202H19.8818ZM20.6976 28.1076C20.758 28.137 20.8789 28.137 20.9695 28.137C21.7249 28.137 22.2084 27.754 22.2084 26.8996C22.2084 26.163 21.7552 25.78 21.0602 25.78C20.8789 25.78 20.758 25.8095 20.6976 25.8095V28.1076Z" fill="#C0C0C0"/>
<path d="M25.7732 27.1941H24.4437V28.0485H25.9243V28.6967H23.5977V25.1611H25.8336V25.8093H24.4135V26.5459H25.743V27.1941H25.7732Z" fill="#C0C0C0"/>
<path d="M5.13739 33.8237C4.92588 33.8826 4.50286 34.0005 4.11005 34.0005C3.53595 34.0005 3.14315 33.8532 2.84099 33.6175C2.56905 33.3523 2.41797 32.9693 2.41797 32.5273C2.41797 31.5256 3.17336 30.9658 4.17049 30.9658C4.56329 30.9658 4.86545 31.0542 5.01653 31.1131L4.86545 31.6435C4.68416 31.5551 4.50286 31.5256 4.14027 31.5256C3.56617 31.5256 3.11293 31.8497 3.11293 32.4979C3.11293 33.1166 3.50574 33.4702 4.07984 33.4702C4.23092 33.4702 4.35178 33.4407 4.41221 33.4407V32.822H3.92876V32.2916H5.13739V33.8237Z" fill="#C0C0C0"/>
<path d="M7.52285 32.703H6.37465V33.4101H7.64372V33.9699H5.67969V30.9941H7.58329V31.5539H6.37465V32.1727H7.52285V32.703Z" fill="#C0C0C0"/>
<path d="M8.12891 33.9699V30.9941H8.94473L9.57927 32.0843C9.76056 32.4084 9.94186 32.7619 10.0929 33.1155C10.0627 32.7324 10.0325 32.32 10.0325 31.878V31.0236H10.667V33.9993H9.97207L9.30732 32.8503C9.12603 32.5262 8.91452 32.1432 8.76344 31.7896H8.73322C8.76344 32.1727 8.76344 32.6146 8.76344 33.086V33.9699H8.12891Z" fill="#C0C0C0"/>
<path d="M11.3318 33.2631C11.5131 33.3515 11.8153 33.4399 12.1174 33.4399C12.4498 33.4399 12.6009 33.322 12.6009 33.1158C12.6009 32.939 12.4498 32.8212 12.0872 32.7033C11.5735 32.5265 11.2412 32.2614 11.2412 31.8194C11.2412 31.3186 11.6944 30.9355 12.4196 30.9355C12.7822 30.9355 13.0239 30.9945 13.2052 31.0829L13.0541 31.6132C12.9332 31.5543 12.7217 31.4659 12.4196 31.4659C12.1174 31.4659 11.9663 31.6132 11.9663 31.7605C11.9663 31.9373 12.1476 32.0257 12.5404 32.173C13.0843 32.3792 13.326 32.6444 13.326 33.0569C13.326 33.5577 12.9332 33.9702 12.0872 33.9702C11.7246 33.9702 11.3922 33.8818 11.2109 33.7934L11.3318 33.2631Z" fill="#C0C0C0"/>
<path d="M15.4127 30.9941V32.703C15.4127 33.2333 15.6242 33.469 15.9868 33.469C16.3494 33.469 16.5609 33.2333 16.5609 32.703V30.9941H17.2256V32.6735C17.2256 33.5869 16.7422 34.0288 15.9263 34.0288C15.1407 34.0288 14.6875 33.6163 14.6875 32.6735V31.0236H15.4127V30.9941Z" fill="#C0C0C0"/>
<path d="M17.8281 33.9699V30.9941H18.644L19.2785 32.0843C19.4598 32.4084 19.6411 32.7619 19.7922 33.1155C19.7619 32.7324 19.7317 32.32 19.7317 31.878V31.0236H20.3663V33.9993H19.6411L18.9763 32.8503C18.795 32.5262 18.5835 32.1432 18.4324 31.7896C18.4627 32.1727 18.4627 32.6146 18.4627 33.086V33.9699H17.8281Z" fill="#C0C0C0"/>
<path d="M21.7258 33.2038L21.5142 33.9699H20.7891L21.7258 30.9941H22.6322L23.5991 33.9699H22.8437L22.602 33.2038H21.7258ZM22.4812 32.703L22.2999 32.0843C22.2394 31.9075 22.179 31.7012 22.1488 31.5245C22.0883 31.7012 22.0581 31.9369 21.9977 32.0843L21.8164 32.703H22.4812Z" fill="#C0C0C0"/>
<path d="M24.9607 33.2631C25.142 33.3515 25.4442 33.4399 25.7463 33.4399C26.0787 33.4399 26.2298 33.322 26.2298 33.1158C26.2298 32.939 26.0787 32.8212 25.7161 32.7033C25.2024 32.5265 24.8701 32.2614 24.8701 31.8194C24.8701 31.3186 25.3233 30.9355 26.0485 30.9355C26.4111 30.9355 26.6528 30.9945 26.8341 31.0829L26.683 31.6132C26.5622 31.5543 26.3506 31.4659 26.0485 31.4659C25.7463 31.4659 25.5952 31.6132 25.5952 31.7605C25.5952 31.9373 25.7765 32.0257 26.1693 32.173C26.7132 32.3792 26.955 32.6444 26.955 33.0569C26.955 33.5577 26.5621 33.9702 25.7161 33.9702C25.3535 33.9702 25.0211 33.8818 24.8398 33.7934L24.9607 33.2631Z" fill="#C0C0C0"/>
<path d="M28.1002 30.9941V32.703C28.1002 33.2333 28.3117 33.469 28.6743 33.469C29.0369 33.469 29.2484 33.2333 29.2484 32.703V30.9941H29.9131V32.6735C29.9131 33.5869 29.4297 34.0288 28.6138 34.0288C27.8282 34.0288 27.375 33.6163 27.375 32.6735V31.0236H28.1002V30.9941Z" fill="#C0C0C0"/>
<path d="M33.1473 32.8212C33.1473 32.4676 33.1171 32.0257 33.1171 31.5837C33.0264 31.9667 32.8753 32.3792 32.7545 32.7328L32.3919 33.8818H31.848L31.5156 32.7328C31.425 32.3792 31.3041 31.9667 31.2437 31.5543C31.2437 31.9667 31.2135 32.4087 31.1832 32.7917L31.1228 33.9113H30.4883L30.6998 30.9355H31.6365L31.9386 31.9373C32.0293 32.2908 32.1199 32.6444 32.2106 32.9979H32.2408C32.3314 32.6444 32.4221 32.2614 32.543 31.9373L32.8753 30.9355H33.7818L33.9329 33.9113H33.2681L33.1473 32.8212Z" fill="#C0C0C0"/>
<path d="M35.1119 30.9941V32.703C35.1119 33.2333 35.3234 33.469 35.6558 33.469C36.0184 33.469 36.2299 33.2333 36.2299 32.703V30.9941H36.9248V32.6735C36.9248 33.5869 36.4414 34.0288 35.6256 34.0288C34.84 34.0288 34.3867 33.6163 34.3867 32.6735V31.0236H35.1119V30.9941Z" fill="#C0C0C0"/>
<path d="M37.5584 33.2631C37.7397 33.3515 38.0418 33.4399 38.344 33.4399C38.6764 33.4399 38.8274 33.322 38.8274 33.1158C38.8274 32.939 38.6764 32.8212 38.3138 32.7033C37.8001 32.5265 37.4677 32.2614 37.4677 31.8194C37.4677 31.3186 37.921 30.9355 38.6461 30.9355C39.0087 30.9355 39.2505 30.9945 39.4317 31.0829L39.2807 31.6132C39.1598 31.5543 38.9483 31.4659 38.6461 31.4659C38.344 31.4659 38.1929 31.6132 38.1929 31.7605C38.1929 31.9373 38.3742 32.0257 38.767 32.173C39.3109 32.3792 39.5526 32.6444 39.5526 33.0569C39.5526 33.5577 39.1598 33.9702 38.3138 33.9702C37.9512 33.9702 37.6188 33.8818 37.4375 33.7934L37.5584 33.2631Z" fill="#C0C0C0"/>
</g>
<defs>
<clipPath id="clip0_35_11872">
<rect width="42" height="34" fill="white"/>
</clipPath>
</defs>
</svg>
