<svg width="509" height="589" viewBox="0 0 509 589" fill="none" xmlns="http://www.w3.org/2000/svg">
<g opacity="0.14" filter="url(#filter0_f_43_7224)">
<path d="M447.739 452.649L484.516 475.899L478.243 493.096L435.164 487.126L398.135 463.878L404.408 446.681L447.739 452.649Z" fill="black"/>
<path d="M404.408 446.681L441.437 469.929L484.516 475.899L447.739 452.649L404.408 446.681Z" fill="black"/>
<path d="M441.438 469.93L435.166 487.127L478.245 493.097L484.517 475.9L441.438 469.93Z" fill="black"/>
</g>
<g opacity="0.14" filter="url(#filter1_f_43_7224)">
<path d="M350.739 523.649L387.516 546.899L381.243 564.096L338.164 558.126L301.135 534.878L307.408 517.681L350.739 523.649Z" fill="black"/>
<path d="M307.408 517.681L344.437 540.929L387.516 546.899L350.739 523.649L307.408 517.681Z" fill="black"/>
<path d="M344.438 540.93L338.166 558.127L381.245 564.097L387.517 546.9L344.438 540.93Z" fill="black"/>
</g>
<g opacity="0.1" filter="url(#filter2_f_43_7224)">
<path d="M243.29 280.087L291.945 310.635L283.664 333.341L226.766 325.39L178.402 294.948L186.684 272.243L243.29 280.087Z" fill="black"/>
<path d="M186.684 272.243L235.048 302.684L291.945 310.635L243.29 280.087L186.684 272.243Z" fill="black"/>
<path d="M235.047 302.684L226.766 325.39L283.663 333.341L291.944 310.635L235.047 302.684Z" fill="black"/>
<path d="M186.683 272.243L235.047 302.684L226.765 325.39L170.159 317.545L121.504 286.997L129.785 264.292L186.683 272.243Z" fill="black"/>
<path d="M129.785 264.292L178.401 294.948L235.047 302.684L186.683 272.243L129.785 264.292Z" fill="black"/>
<path d="M178.402 294.948L170.16 317.545L226.766 325.39L235.047 302.684L178.402 294.948Z" fill="black"/>
<path d="M235.047 302.684L283.663 333.341L275.421 355.938L218.524 347.987L170.16 317.545L178.402 294.948L235.047 302.684Z" fill="black"/>
<path d="M178.402 294.948L226.766 325.39L283.663 333.341L235.047 302.684L178.402 294.948Z" fill="black"/>
<path d="M226.766 325.39L218.524 347.987L275.421 355.938L283.663 333.341L226.766 325.39Z" fill="black"/>
<path d="M259.519 234.678L307.843 265.228L299.601 287.825L242.995 279.981L194.34 249.433L202.582 226.836L259.519 234.678Z" fill="black"/>
<path d="M202.582 226.836L251.237 257.384L307.843 265.228L259.519 234.678L202.582 226.836Z" fill="black"/>
<path d="M251.238 257.384L242.997 279.981L299.602 287.826L307.844 265.229L251.238 257.384Z" fill="black"/>
<path d="M89.6241 211.363L137.948 241.913L129.707 264.51L73.1008 256.665L24.4452 226.117L32.6871 203.52L89.6241 211.363Z" fill="black"/>
<path d="M32.6871 203.52L81.3426 234.068L137.948 241.913L89.6241 211.363L32.6871 203.52Z" fill="black"/>
<path d="M81.34 234.068L73.0981 256.665L129.704 264.51L137.946 241.913L81.34 234.068Z" fill="black"/>
</g>
<path d="M253.09 78.4609L309.267 110.749V175.634L253.09 207.922L197.223 175.634V110.749L253.09 78.4609Z" fill="#B1B1B1"/>
<path d="M197.223 110.749L253.09 143.036L309.267 110.749L253.09 78.4609L197.223 110.749Z" fill="#383838"/>
<path d="M253.09 143.037V207.922L309.267 175.635V110.749L253.09 143.037Z" fill="#797A7D"/>
<path d="M197.22 110.749L253.087 143.037V207.922L197.22 240.21L141.043 207.922V143.037L197.22 110.749Z" fill="#B1B1B1"/>
<path d="M141.043 143.037L197.22 175.635L253.087 143.037L197.22 110.749L141.043 143.037Z" fill="#F0F0F0"/>
<path d="M197.223 175.634V240.209L253.09 207.922V143.036L197.223 175.634Z" fill="#797A7D"/>
<path d="M253.09 143.036L309.267 175.634V240.209L253.09 272.497L197.223 240.209V175.634L253.09 143.036Z" fill="#B1B1B1"/>
<path d="M197.223 175.634L253.09 207.922L309.267 175.634L253.09 143.036L197.223 175.634Z" fill="#383838"/>
<path d="M253.09 207.921V272.497L309.267 240.209V175.634L253.09 207.921Z" fill="#797A7D"/>
<path d="M85.1774 46.4844L141.044 79.0824V143.658L85.1774 175.945L29 143.658V79.0824L85.1774 46.4844Z" fill="#B1B1B1"/>
<path d="M29 79.0824L85.1774 111.37L141.044 79.0824L85.1774 46.4844L29 79.0824Z" fill="#F0F0F0"/>
<path d="M85.1758 111.37V175.945L141.043 143.657V79.082L85.1758 111.37Z" fill="#797A7D"/>
<g clip-path="url(#clip0_43_7224)">
<path d="M87.5518 56.8847L79.7305 64.7061L87.5518 72.5274L95.3732 64.7061L87.5518 56.8847Z" fill="#1C1C1C"/>
<path d="M87.5518 64.6572L79.7305 72.4785L87.5518 80.2999L95.3732 72.4785L87.5518 64.6572Z" fill="#1C1C1C"/>
<path d="M97.7189 72.4334L92.1523 78L97.7189 83.5666L103.285 78L97.7189 72.4334Z" fill="#1C1C1C"/>
<path d="M77.5002 72.4627L71.9336 78.0293L77.5002 83.5959L83.0667 78.0293L77.5002 72.4627Z" fill="#1C1C1C"/>
<path d="M97.6792 72.4961H77.5V83.6071H97.6792V72.4961Z" fill="#1C1C1C"/>
<path d="M105.051 38.9638C103.756 37.6684 102.311 36.4726 101.016 35.1771C99.8197 34.0311 98.5242 32.935 97.6274 31.5897C96.88 30.4935 96.033 29.9953 94.8372 29.6465C94.3888 29.497 94.04 29.4472 93.741 29.3476C93.6912 29.3476 93.6414 29.3974 93.5417 29.3476C90.2034 28.5504 86.4666 27.3047 82.9788 27.8528C79.79 29.4472 77.498 30.2444 76.2524 33.6823C74.7576 37.768 75.2061 43.9962 76.1029 48.1815C76.9001 51.8685 79.5907 54.3598 77.498 60.1395C83.2777 60.0399 87.8118 64.8729 93.5417 64.6736C95.4351 64.4743 97.5277 65.7199 97.8267 63.9262C98.3748 60.6876 98.1755 57.449 97.1291 54.31C96.033 51.0713 93.9902 48.4804 91.6484 46.0888C90.901 45.2916 88.1108 42.4017 87.3136 41.6544C87.3634 41.5547 87.4132 41.5049 87.4631 41.4052C88.7585 41.7042 91.8477 43.4979 92.9937 42.9997C94.887 42.2025 96.5811 42.3519 98.0758 43.8965C98.3249 44.1456 98.6239 44.3948 98.9228 44.6439C99.6204 45.2418 100.467 45.4411 101.364 45.2916C102.909 45.0425 104.204 44.2951 105.201 43.0993C106.297 41.8038 106.297 40.1596 105.051 38.9638Z" fill="#1C1C1C"/>
<path d="M79.2932 31.3899C79.4925 31.34 79.7416 31.2404 79.9908 31.1906C80.0406 31.1906 80.0406 31.1906 80.1402 31.2404C79.9908 31.5892 79.7915 31.9379 79.642 32.2867C79.4427 32.7351 79.2434 33.2334 79.0441 33.6818C81.0371 32.6355 83.0799 31.7386 85.2722 31.0909C88.4611 30.1941 91.7495 29.8453 95.0878 29.7456C94.6892 29.4965 94.2906 29.1976 93.892 29.0481C92.8955 28.5996 92.3474 27.8024 91.9488 26.8558C91.6499 26.0586 92.0485 25.1617 92.8457 24.7631C94.2408 24.0656 95.5362 23.3182 96.6324 22.222C97.9278 20.9764 99.0738 19.5813 99.5721 17.7876C100.02 16.2928 99.871 14.8479 99.3728 13.403C99.3229 13.2535 99.1735 13.1538 99.024 13.0542C98.8745 13.2037 98.6752 13.3033 98.6752 13.5026C98.5756 14.0507 98.4759 14.6486 98.4759 15.1967C98.3264 17.6879 97.031 19.5813 95.2373 21.1757C94.6394 21.7238 93.9418 22.1224 93.2941 22.6206L93.2443 22.521C93.5432 22.1722 93.892 21.8234 94.1411 21.4248C94.4401 20.9764 94.6892 20.4781 94.8387 19.9301C94.9383 19.5813 94.8387 19.1827 94.6892 18.8339C94.5397 18.4353 94.1411 18.4353 93.9418 18.8339C93.2443 20.2788 91.9986 21.2255 90.7032 22.1224C90.3046 22.3715 89.8562 22.521 89.4576 22.7203L89.3579 22.6206C89.5572 22.4213 89.7565 22.1722 90.0056 21.9729C91.1018 20.8269 91.9488 19.5813 92.1979 18.0367C92.2976 17.5385 92.2478 16.9904 92.1979 16.4921C92.1979 16.2928 91.9986 16.1434 91.8492 15.9939C91.6997 16.1434 91.5004 16.2928 91.4007 16.4423C91.2513 16.6914 91.2014 16.9904 91.1018 17.2893C90.4042 19.2325 89.2583 20.7771 87.5642 21.9729C86.7172 22.5708 86.3684 22.5708 85.3719 21.9729C85.7705 21.2255 86.1193 20.4781 86.5677 19.7806C88.0126 17.389 88.6604 14.8479 88.0624 12.1573C87.7635 10.9615 87.2154 9.96503 86.767 8.96853C86.6673 8.76923 86.3684 8.71941 86.1193 8.61975C86.0694 8.81906 85.92 9.01836 85.92 9.21766C85.9698 11.0114 86.1193 12.8051 86.1193 14.5988C86.0694 16.0935 85.7705 17.5385 84.8736 18.7841C84.3256 19.5315 83.6778 20.0795 82.781 20.3785C82.3824 20.528 81.8841 20.528 81.4357 20.4283C79.3929 19.9301 78.1472 18.4851 77.8981 16.3427C77.6988 14.6486 77.5493 12.9047 77.3002 11.2107C77.1009 9.71591 76.7023 8.3208 76.0546 6.97552C75.9549 6.82605 75.7556 6.67657 75.656 6.5271C75.5563 6.7264 75.3072 6.97552 75.3072 7.17482C75.357 8.07168 75.5563 8.91871 75.656 9.81556C75.8553 11.5594 76.0546 13.3033 76.2539 15.0472C76.2539 15.2465 76.2539 15.4956 76.1542 15.6949C75.9051 15.1469 75.6062 14.5988 75.357 14.0507C75.1079 13.5524 74.9086 13.0542 74.6595 12.5559C74.2111 11.7587 74.0616 10.9117 74.0616 9.96503C74.1114 8.07168 74.0117 6.22815 73.9121 4.33479C73.8124 2.84003 73.2644 1.49476 72.3675 0.348776C72.2679 0.249126 72.218 0.0996503 72.1682 0H71.5205C71.6201 0.548077 71.6201 1.14598 71.7696 1.69406C72.218 3.73689 72.517 5.82955 72.2679 7.9222C72.1682 8.76923 71.9689 9.56643 71.7696 10.4135C71.7198 10.5131 71.5205 10.6128 71.371 10.6626C70.2749 10.7124 69.4278 10.1643 68.531 9.66608C65.093 7.9222 62.3527 5.43094 59.9611 2.54108C59.5624 2.04283 59.114 1.59441 58.6656 1.14598C58.6158 1.09615 58.5161 0.996503 58.4663 0.946678C58.1673 0.697552 57.8186 0.647727 57.4698 0.847028C57.1708 1.04633 57.3701 1.3951 57.4698 1.59441C58.8649 4.78322 60.9576 7.47378 63.8474 9.41696C66.1394 10.9615 68.531 12.4065 71.1717 13.3531C71.5205 13.4528 71.8194 13.8016 72.0686 14.1005C73.0651 15.4956 73.9619 16.8907 74.9584 18.2858C75.4567 18.9336 76.0546 19.5315 76.6027 20.1792C76.7023 20.2788 76.802 20.4283 77.0013 20.6276C75.656 20.528 74.4104 20.3287 73.2145 19.8802C71.1717 19.1329 69.3282 18.0865 67.6341 16.7413C67.4348 16.5918 67.2355 16.3427 67.1359 16.0935C66.6376 14.9974 66.1892 13.8514 65.7408 12.7552C65.6909 12.6058 65.6411 12.4563 65.5415 12.3566C65.392 12.2072 65.1429 12.0079 64.9934 12.0577C64.7941 12.0577 64.5948 12.257 64.4453 12.4563C64.2958 12.6556 64.2958 12.9047 64.1962 13.1538C63.4986 12.4563 62.7513 11.8086 62.1035 11.111C61.3562 10.3138 60.6586 9.41696 59.9112 8.56993C59.6621 8.27098 59.413 7.97203 59.1638 7.7229C58.9147 7.47378 58.6656 7.07517 58.3168 7.3243C58.1175 7.47378 58.0677 7.97203 58.1673 8.27098C58.5161 9.06818 58.9147 9.81556 59.3133 10.5629C59.5126 10.9117 59.7119 11.2605 59.9611 11.7089C58.2172 11.3103 56.7224 10.7124 55.3771 9.76573C53.8824 8.71941 52.7364 7.3243 51.4908 6.02885C51.2416 5.58042 50.8929 5.23164 50.4943 4.88287C50.0458 4.48427 49.6472 4.48427 49.2486 4.78322C48.8999 5.08217 48.8999 5.53059 49.1988 6.02885C51.142 8.71941 53.3841 11.1608 56.4733 12.6058C57.8186 13.2037 59.2635 13.6521 60.6088 14.1503C61.107 14.3496 61.6551 14.4991 62.1534 14.6984C62.4523 14.7981 62.7014 14.9974 62.9007 15.1967C64.3955 16.6914 65.7906 18.2858 67.5345 19.4816C69.5773 20.8767 71.7198 22.0227 74.2111 22.521C74.8588 22.6705 75.5563 22.9694 76.1542 23.2684C78.1971 24.4143 80.4392 24.9624 82.7312 25.4108C83.0799 25.4607 83.3789 25.5603 83.7775 25.6101C82.781 26.4073 81.7346 26.8059 80.5887 26.2579C77.6988 24.9624 74.6595 24.5638 71.5205 24.9126C71.1219 24.9624 70.6735 25.1119 70.2749 25.2115C70.0257 25.2614 69.9261 25.4607 70.0756 25.7098C71.0721 27.3042 71.9689 28.9983 73.5135 30.1941C75.3072 31.5892 77.2006 32.0874 79.2932 31.3899Z" fill="#1C1C1C"/>
</g>
<g opacity="0.14" filter="url(#filter3_f_43_7224)">
<path d="M338.739 300.649L375.516 323.899L369.243 341.096L326.164 335.126L289.135 311.878L295.408 294.681L338.739 300.649Z" fill="black"/>
<path d="M295.408 294.681L332.437 317.929L375.516 323.899L338.739 300.649L295.408 294.681Z" fill="black"/>
<path d="M332.438 317.93L326.166 335.127L369.245 341.097L375.517 323.9L332.438 317.93Z" fill="black"/>
</g>
<g opacity="0.14" filter="url(#filter4_f_43_7224)">
<path d="M296.523 358.59L320.597 373.809L316.491 385.066L288.291 381.158L264.052 365.94L268.158 354.683L296.523 358.59Z" fill="black"/>
<path d="M268.158 354.683L292.397 369.901L320.597 373.809L296.523 358.59L268.158 354.683Z" fill="black"/>
<path d="M292.396 369.901L288.29 381.158L316.49 385.066L320.596 373.809L292.396 369.901Z" fill="black"/>
</g>
<g clip-path="url(#clip1_43_7224)">
<path d="M350.999 27.901C350.999 23.604 347.453 20 343.226 20C338.999 20 335.453 23.604 335.453 27.901C335.453 32.198 338.999 35.802 343.226 35.802C347.589 35.802 350.999 32.198 350.999 27.901Z" fill="white"/>
<path d="M347.453 21.2471C347.863 23.6035 347.726 26.2372 346.635 28.5936C345.408 31.6431 342.953 33.8609 340.09 35.1085C341.044 35.5243 342.135 35.8015 343.226 35.8015C347.453 35.8015 350.999 32.1976 350.999 27.9005C350.999 25.1283 349.635 22.6332 347.453 21.2471Z" fill="#E6E7E8"/>
<path d="M345.274 32.1984C345.274 25.9607 340.229 20.832 334.092 20.832C327.956 20.832 323.047 25.9607 323.047 32.1984C323.047 38.436 328.092 43.5647 334.229 43.5647C340.365 43.5647 345.274 38.5746 345.274 32.1984Z" fill="white"/>
<path d="M340.227 22.7725C340.908 26.2378 340.636 29.8418 339.136 33.3071C337.363 37.6041 333.954 40.9309 329.727 42.5942C331.09 43.1487 332.59 43.5645 334.227 43.5645C340.363 43.5645 345.408 38.4358 345.408 32.1982C345.272 28.317 343.227 24.7131 340.227 22.7725Z" fill="#E6E7E8"/>
<path d="M333.545 40.0992C333.545 35.8022 330 32.1982 325.773 32.1982C321.545 32.1982 318 35.8022 318 40.0992C318 44.3963 321.545 48.0002 325.773 48.0002C330 48.0002 333.545 44.5349 333.545 40.0992Z" fill="white"/>
<path d="M330 33.4453C330.409 35.8017 330.273 38.4354 329.182 40.7918C327.955 43.8413 325.5 46.0592 322.637 47.3067C323.591 47.7225 324.682 47.9998 325.773 47.9998C330 47.9998 333.546 44.3958 333.546 40.0988C333.546 37.3265 332.046 34.9701 330 33.4453Z" fill="#E6E7E8"/>
</g>
<g clip-path="url(#clip2_43_7224)">
<path d="M300.999 148.49C300.999 144.96 297.99 142 294.404 142C290.817 142 287.809 144.96 287.809 148.49C287.809 152.02 290.817 154.98 294.404 154.98C298.106 154.98 300.999 152.02 300.999 148.49Z" fill="white"/>
<path d="M297.99 143.024C298.337 144.96 298.222 147.123 297.296 149.059C296.255 151.564 294.172 153.386 291.742 154.411C292.552 154.752 293.478 154.98 294.403 154.98C297.99 154.98 300.998 152.019 300.998 148.49C300.998 146.213 299.841 144.163 297.99 143.024Z" fill="#E6E7E8"/>
<path d="M296.141 152.02C296.141 146.896 291.86 142.684 286.653 142.684C281.447 142.684 277.281 146.896 277.281 152.02C277.281 157.144 281.562 161.357 286.769 161.357C291.975 161.357 296.141 157.258 296.141 152.02Z" fill="white"/>
<path d="M291.858 144.277C292.437 147.124 292.205 150.084 290.933 152.931C289.429 156.461 286.536 159.193 282.949 160.56C284.106 161.015 285.379 161.357 286.767 161.357C291.974 161.357 296.255 157.144 296.255 152.02C296.139 148.832 294.404 145.871 291.858 144.277Z" fill="#E6E7E8"/>
<path d="M286.19 158.51C286.19 154.98 283.182 152.02 279.595 152.02C276.008 152.02 273 154.98 273 158.51C273 162.039 276.008 165 279.595 165C283.182 165 286.19 162.153 286.19 158.51Z" fill="white"/>
<path d="M283.182 153.045C283.529 154.981 283.413 157.144 282.487 159.08C281.446 161.585 279.363 163.406 276.934 164.431C277.744 164.773 278.669 165 279.595 165C283.182 165 286.19 162.04 286.19 158.51C286.19 156.233 284.917 154.297 283.182 153.045Z" fill="#E6E7E8"/>
</g>
<path d="M284.424 48L312 63.8633V95.2878L284.424 111L257 95.2878V63.8633L284.424 48Z" fill="#B1B1B1"/>
<path d="M257 64.0766L284.424 80L312 64.0766L284.424 48L257 64.0766Z" fill="#383838"/>
<path d="M284 79.6667V111L312 95.3333V64L284 79.6667Z" fill="#797A7D"/>
<path d="M329.391 225L369 247.914V293.305L329.391 316L290 293.305V247.914L329.391 225Z" fill="#B1B1B1"/>
<path d="M290 248.11L329.391 271L369 248.11L329.391 225L290 248.11Z" fill="#383838"/>
<path d="M329 270.667V316L369 293.333V248L329 270.667Z" fill="#797A7D"/>
<path d="M290.972 307L317.088 322.108V352.036L290.972 367L265 352.036V322.108L290.972 307Z" fill="#F0F0F0"/>
<path d="M265 322.237L290.972 337.33L317.088 322.237L290.972 307L265 322.237Z" fill="#A2CC5C"/>
<path d="M290.715 337.11V367L317.088 352.055V322.165L290.715 337.11Z" fill="#B1B1B1"/>
<path d="M440.972 400L467.088 415.108V445.036L440.972 460L415 445.036V415.108L440.972 400Z" fill="#F0F0F0"/>
<path d="M415 415.237L440.972 430.33L467.088 415.237L440.972 400L415 415.237Z" fill="#A2CC5C"/>
<path d="M440.715 430.11V460L467.088 445.055V415.165L440.715 430.11Z" fill="#B1B1B1"/>
<path d="M342.33 91L375.846 110.388V148.796L342.33 168L309 148.796V110.388L342.33 91Z" fill="#B1B1B1"/>
<path d="M309 110.555L342.33 129.923L375.846 110.555L342.33 91L309 110.555Z" fill="#383838"/>
<path d="M342 129.641V168L375.846 148.821V110.462L342 129.641Z" fill="#797A7D"/>
<path d="M345.33 443L378.846 462.388V500.796L345.33 520L312 500.796V462.388L345.33 443Z" fill="#B1B1B1"/>
<path d="M312 462.555L345.33 481.923L378.846 462.555L345.33 443L312 462.555Z" fill="#383838"/>
<path d="M345 481.641V520L378.846 500.821V462.462L345 481.641Z" fill="#797A7D"/>
<g clip-path="url(#clip3_43_7224)">
<path d="M324.233 244.21C324.233 241.576 328.09 239.421 332.999 239.421C337.908 239.421 341.766 241.576 341.766 244.21C341.766 246.844 337.908 249 332.999 249C328.09 249 324.233 246.844 324.233 244.21Z" fill="#7EBA4C"/>
<path d="M325.053 240.858C325.053 238.464 328.676 236.548 333.001 236.548C337.443 236.548 340.949 238.464 340.949 240.858C340.949 243.253 337.326 245.169 333.001 245.169C328.56 245.169 325.053 243.253 325.053 240.858Z" fill="#C2DA6B"/>
<path d="M332.766 240.977H333.233C333.818 240.977 334.285 240.499 334.285 239.9V224.334C334.285 223.736 333.818 223.257 333.233 223.257H332.766C332.181 223.257 331.714 223.736 331.714 224.334V239.9C331.831 240.618 332.181 240.977 332.766 240.977Z" fill="#0F0F0F"/>
<path d="M324 227.209C324 224.455 327.974 222.3 333 222.3C337.909 222.3 342 224.455 342 227.209C342 229.843 338.026 232.118 333 232.118C328.091 232.118 324 229.843 324 227.209Z" fill="#C2DA6B"/>
<path d="M332.999 210.565L324.233 226.131H341.766L332.999 210.565Z" fill="#C2DA6B"/>
<path d="M333.586 223.856C331.014 223.856 328.56 223.497 326.806 221.581L333.001 210.565L339.43 221.94C338.027 223.497 335.339 223.856 333.586 223.856Z" fill="#7EBA4C"/>
<path d="M324.937 216.912C324.937 214.517 328.56 212.481 333.001 212.481C337.443 212.481 341.066 214.517 341.066 216.912C341.066 219.306 337.443 221.342 333.001 221.342C328.56 221.342 324.937 219.426 324.937 216.912Z" fill="#C2DA6B"/>
<path d="M333.001 201.944L325.17 215.953H340.949L333.001 201.944Z" fill="#C2DA6B"/>
<path d="M333.467 213.918C331.129 213.918 328.909 213.559 327.389 211.882L333 201.944L338.844 212.241C337.558 213.559 335.103 213.918 333.467 213.918Z" fill="#7EBA4C"/>
<path d="M325.986 207.931C325.986 205.776 329.142 204.1 332.999 204.1C336.856 204.1 340.012 205.776 340.012 207.931C340.012 210.086 336.856 211.763 332.999 211.763C329.142 211.763 325.986 210.086 325.986 207.931Z" fill="#C2DA6B"/>
<path d="M332.998 195L326.219 207.093H339.777L332.998 195Z" fill="#C2DA6B"/>
</g>
<g clip-path="url(#clip4_43_7224)">
<path d="M256.233 454.21C256.233 451.576 260.09 449.421 264.999 449.421C269.908 449.421 273.766 451.576 273.766 454.21C273.766 456.844 269.908 459 264.999 459C260.09 459 256.233 456.844 256.233 454.21Z" fill="#7EBA4C"/>
<path d="M257.053 450.858C257.053 448.464 260.676 446.548 265.001 446.548C269.443 446.548 272.949 448.464 272.949 450.858C272.949 453.253 269.326 455.169 265.001 455.169C260.56 455.169 257.053 453.253 257.053 450.858Z" fill="#C2DA6B"/>
<path d="M264.766 450.977H265.233C265.818 450.977 266.285 450.499 266.285 449.9V434.334C266.285 433.736 265.818 433.257 265.233 433.257H264.766C264.181 433.257 263.714 433.736 263.714 434.334V449.9C263.831 450.618 264.181 450.977 264.766 450.977Z" fill="#0F0F0F"/>
<path d="M256 437.209C256 434.455 259.974 432.3 265 432.3C269.909 432.3 274 434.455 274 437.209C274 439.843 270.026 442.118 265 442.118C260.091 442.118 256 439.843 256 437.209Z" fill="#C2DA6B"/>
<path d="M264.999 420.565L256.233 436.131H273.766L264.999 420.565Z" fill="#C2DA6B"/>
<path d="M265.586 433.856C263.014 433.856 260.56 433.497 258.806 431.581L265.001 420.565L271.43 431.94C270.027 433.497 267.339 433.856 265.586 433.856Z" fill="#7EBA4C"/>
<path d="M256.937 426.912C256.937 424.517 260.56 422.481 265.001 422.481C269.443 422.481 273.066 424.517 273.066 426.912C273.066 429.306 269.443 431.342 265.001 431.342C260.56 431.342 256.937 429.426 256.937 426.912Z" fill="#C2DA6B"/>
<path d="M265.001 411.944L257.17 425.953H272.949L265.001 411.944Z" fill="#C2DA6B"/>
<path d="M265.467 423.918C263.129 423.918 260.909 423.559 259.389 421.882L265 411.944L270.844 422.241C269.558 423.559 267.103 423.918 265.467 423.918Z" fill="#7EBA4C"/>
<path d="M257.986 417.931C257.986 415.776 261.142 414.1 264.999 414.1C268.856 414.1 272.012 415.776 272.012 417.931C272.012 420.086 268.856 421.763 264.999 421.763C261.142 421.763 257.986 420.086 257.986 417.931Z" fill="#C2DA6B"/>
<path d="M264.998 405L258.219 417.093H271.777L264.998 405Z" fill="#C2DA6B"/>
</g>
<g clip-path="url(#clip5_43_7224)">
<path d="M367.263 105.862C367.018 105.11 366.896 104.358 366.65 103.607C366.528 103.106 366.283 102.98 365.915 102.98C365.302 102.98 364.689 102.98 364.076 102.98C363.954 101.978 363.831 101.853 362.85 101.728V100.851C359.909 102.103 356.599 101.853 353.412 101.226V101.602C352.431 101.853 352.309 101.853 352.186 102.855C351.818 102.855 351.45 102.855 351.083 102.855C350.592 102.855 350.347 103.106 350.225 103.607C350.102 104.484 349.857 105.235 349.734 106.112C349.612 106.739 349.857 107.114 350.347 107.114C350.47 107.114 350.592 107.114 350.715 107.114C355.863 107.114 361.134 107.114 366.283 107.114C367.386 107.24 367.631 106.864 367.263 105.862Z" fill="black"/>
<path d="M367.389 107.239C367.389 104.608 363.344 102.354 358.441 102.354C353.537 102.354 349.492 104.483 349.492 107.239C349.492 109.87 353.537 112.125 358.441 112.125C363.466 112 367.389 109.87 367.389 107.239Z" fill="black"/>
<path d="M366.653 103.732C366.653 101.352 362.976 99.3477 358.563 99.3477C354.027 99.3477 350.473 101.352 350.473 103.732C350.473 106.112 354.15 108.117 358.563 108.117C362.976 108.117 366.653 106.112 366.653 103.732Z" fill="#383838"/>
<path d="M358.808 103.606H358.318C357.705 103.606 357.215 103.105 357.215 102.479V86.0679C357.215 85.4415 357.705 84.9404 358.318 84.9404H358.808C359.421 84.9404 359.912 85.4415 359.912 86.0679V102.479C359.789 103.105 359.299 103.606 358.808 103.606Z" fill="#0F0F0F"/>
<path d="M368 88.9497C368 86.0684 363.71 83.8135 358.439 83.8135C353.29 83.8135 349 86.1937 349 88.9497C349 91.8311 353.29 94.086 358.561 94.086C363.71 94.2113 368 91.8311 368 88.9497Z" fill="#383838"/>
<path d="M358.562 71.5361L367.756 87.8218H349.246L358.562 71.5361Z" fill="#383838"/>
<path d="M357.947 85.5669C360.644 85.5669 363.218 85.1911 365.179 83.1867L358.56 71.5361L351.695 83.5625C353.166 85.0658 355.986 85.5669 357.947 85.5669Z" fill="#0F0F0F"/>
<path d="M367.142 78.1762C367.142 75.5454 363.342 73.541 358.561 73.541C353.78 73.541 349.98 75.6707 349.98 78.1762C349.98 80.8069 353.78 82.8113 358.561 82.8113C363.342 82.8113 367.142 80.6817 367.142 78.1762Z" fill="#383838"/>
<path d="M358.562 62.3916L366.898 77.0487H350.227L358.562 62.3916Z" fill="#383838"/>
<path d="M357.95 75.0444C360.401 75.0444 362.73 74.6685 364.446 72.9147L358.563 62.3916L352.434 73.2905C353.782 74.5433 356.234 75.0444 357.95 75.0444Z" fill="#0F0F0F"/>
<path d="M365.916 68.6553C365.916 66.4003 362.606 64.6465 358.438 64.6465C354.393 64.6465 350.961 66.4003 350.961 68.6553C350.961 70.9102 354.271 72.6641 358.438 72.6641C362.606 72.6641 365.916 70.9102 365.916 68.6553Z" fill="#383838"/>
<path d="M358.56 55L365.67 67.778H351.328L358.56 55Z" fill="#383838"/>
</g>
<g clip-path="url(#clip6_43_7224)">
<path d="M183.325 121.348C183.325 117.69 188.682 114.696 195.5 114.696C202.319 114.696 207.676 117.69 207.676 121.348C207.676 125.007 202.319 128 195.5 128C188.682 128 183.325 125.007 183.325 121.348Z" fill="#7EBA4C"/>
<path d="M184.461 116.692C184.461 113.366 189.494 110.705 195.5 110.705C201.669 110.705 206.539 113.366 206.539 116.692C206.539 120.018 201.507 122.678 195.5 122.678C189.331 122.678 184.461 120.018 184.461 116.692Z" fill="#C2DA6B"/>
<path d="M195.175 116.858H195.824C196.636 116.858 197.285 116.193 197.285 115.361V93.7428C197.285 92.9113 196.636 92.2461 195.824 92.2461H195.175C194.363 92.2461 193.714 92.9113 193.714 93.7428V115.361C193.876 116.359 194.363 116.858 195.175 116.858Z" fill="#0F0F0F"/>
<path d="M183 97.7342C183 93.9094 188.519 90.916 195.5 90.916C202.318 90.916 208 93.9094 208 97.7342C208 101.393 202.481 104.552 195.5 104.552C188.682 104.552 183 101.393 183 97.7342Z" fill="#C2DA6B"/>
<path d="M195.5 74.6182L183.325 96.2368H207.676L195.5 74.6182Z" fill="#C2DA6B"/>
<path d="M196.313 93.0771C192.741 93.0771 189.332 92.5783 186.897 89.9175L195.501 74.6182L204.43 90.4164C202.482 92.5783 198.748 93.0771 196.313 93.0771Z" fill="#7EBA4C"/>
<path d="M184.301 83.4323C184.301 80.1063 189.333 77.2793 195.502 77.2793C201.671 77.2793 206.703 80.1063 206.703 83.4323C206.703 86.7582 201.671 89.5853 195.502 89.5853C189.333 89.5853 184.301 86.9245 184.301 83.4323Z" fill="#C2DA6B"/>
<path d="M195.5 62.6455L184.623 82.1023H206.539L195.5 62.6455Z" fill="#C2DA6B"/>
<path d="M196.15 79.2752C192.903 79.2752 189.818 78.7763 187.708 76.4482L195.5 62.6455L203.617 76.9471C201.831 78.7763 198.422 79.2752 196.15 79.2752Z" fill="#7EBA4C"/>
<path d="M185.758 70.9602C185.758 67.9668 190.141 65.6387 195.498 65.6387C200.855 65.6387 205.238 67.9668 205.238 70.9602C205.238 73.9535 200.855 76.2817 195.498 76.2817C190.141 76.2817 185.758 73.9535 185.758 70.9602Z" fill="#C2DA6B"/>
<path d="M195.498 53L186.083 69.796H204.914L195.498 53Z" fill="#C2DA6B"/>
</g>
<g clip-path="url(#clip7_43_7224)">
<path d="M291.472 301.984L285.227 308.229L291.472 314.473L297.716 308.229L291.472 301.984Z" fill="#1C1C1C"/>
<path d="M291.475 308.189L285.23 314.434L291.475 320.679L297.72 314.434L291.475 308.189Z" fill="#1C1C1C"/>
<path d="M291.475 294.344L285.23 300.589L291.475 306.834L297.72 300.589L291.475 294.344Z" fill="#1C1C1C"/>
<path d="M299.562 314.426L295.117 318.871L299.562 323.316L304.006 318.871L299.562 314.426Z" fill="#1C1C1C"/>
<path d="M283.449 314.422L279.004 318.866L283.449 323.311L287.893 318.866L283.449 314.422Z" fill="#1C1C1C"/>
<path d="M299.526 314.468H283.414V323.339H299.526V314.468Z" fill="#1C1C1C"/>
<path fill-rule="evenodd" clip-rule="evenodd" d="M299.767 287.177L295.59 283L287.236 291.354L291.413 287.177L287.236 283L283.059 287.177L287.236 291.354L283.059 295.532L287.236 299.709L291.413 295.532L295.59 299.709L299.767 295.532L295.59 291.354L299.767 287.177Z" fill="#1C1C1C"/>
</g>
<path d="M344.424 409L372 424.863V456.288L344.424 472L317 456.288V424.863L344.424 409Z" fill="#B1B1B1"/>
<path d="M317 425.077L344.424 441L372 425.077L344.424 409L317 425.077Z" fill="#383838"/>
<path d="M344 440.667V472L372 456.333V425L344 440.667Z" fill="#797A7D"/>
<defs>
<filter id="filter0_f_43_7224" x="374.137" y="422.682" width="134.379" height="94.415" filterUnits="userSpaceOnUse" color-interpolation-filters="sRGB">
<feFlood flood-opacity="0" result="BackgroundImageFix"/>
<feBlend mode="normal" in="SourceGraphic" in2="BackgroundImageFix" result="shape"/>
<feGaussianBlur stdDeviation="12" result="effect1_foregroundBlur_43_7224"/>
</filter>
<filter id="filter1_f_43_7224" x="277.137" y="493.682" width="134.379" height="94.415" filterUnits="userSpaceOnUse" color-interpolation-filters="sRGB">
<feFlood flood-opacity="0" result="BackgroundImageFix"/>
<feBlend mode="normal" in="SourceGraphic" in2="BackgroundImageFix" result="shape"/>
<feGaussianBlur stdDeviation="12" result="effect1_foregroundBlur_43_7224"/>
</filter>
<filter id="filter2_f_43_7224" x="0.445312" y="179.521" width="331.398" height="200.418" filterUnits="userSpaceOnUse" color-interpolation-filters="sRGB">
<feFlood flood-opacity="0" result="BackgroundImageFix"/>
<feBlend mode="normal" in="SourceGraphic" in2="BackgroundImageFix" result="shape"/>
<feGaussianBlur stdDeviation="12" result="effect1_foregroundBlur_43_7224"/>
</filter>
<filter id="filter3_f_43_7224" x="265.137" y="270.682" width="134.379" height="94.415" filterUnits="userSpaceOnUse" color-interpolation-filters="sRGB">
<feFlood flood-opacity="0" result="BackgroundImageFix"/>
<feBlend mode="normal" in="SourceGraphic" in2="BackgroundImageFix" result="shape"/>
<feGaussianBlur stdDeviation="12" result="effect1_foregroundBlur_43_7224"/>
</filter>
<filter id="filter4_f_43_7224" x="240.051" y="330.683" width="104.547" height="78.3838" filterUnits="userSpaceOnUse" color-interpolation-filters="sRGB">
<feFlood flood-opacity="0" result="BackgroundImageFix"/>
<feBlend mode="normal" in="SourceGraphic" in2="BackgroundImageFix" result="shape"/>
<feGaussianBlur stdDeviation="12" result="effect1_foregroundBlur_43_7224"/>
</filter>
<clipPath id="clip0_43_7224">
<rect width="57" height="83.5568" fill="white" transform="translate(49)"/>
</clipPath>
<clipPath id="clip1_43_7224">
<rect width="33" height="28" fill="white" transform="translate(318 20)"/>
</clipPath>
<clipPath id="clip2_43_7224">
<rect width="28" height="23" fill="white" transform="translate(273 142)"/>
</clipPath>
<clipPath id="clip3_43_7224">
<rect width="18" height="54" fill="white" transform="matrix(-1 0 0 1 342 195)"/>
</clipPath>
<clipPath id="clip4_43_7224">
<rect width="18" height="54" fill="white" transform="matrix(-1 0 0 1 274 405)"/>
</clipPath>
<clipPath id="clip5_43_7224">
<rect width="19" height="57" fill="white" transform="translate(349 55)"/>
</clipPath>
<clipPath id="clip6_43_7224">
<rect width="25" height="75" fill="white" transform="matrix(-1 0 0 1 208 53)"/>
</clipPath>
<clipPath id="clip7_43_7224">
<rect width="24.9836" height="40.3" fill="white" transform="translate(279 283)"/>
</clipPath>
</defs>
</svg>
