<svg width="13" height="24" viewBox="0 0 13 24" fill="none" xmlns="http://www.w3.org/2000/svg">
<path d="M12.2013 0.00506247L9.16028 0.000183105C5.74375 0.000183105 3.53583 2.26543 3.53583 5.7715V8.43246H0.478178C0.21396 8.43246 0 8.64666 0 8.91088V12.7663C0 13.0305 0.214204 13.2445 0.478178 13.2445H3.53583V22.973C3.53583 23.2372 3.74979 23.4512 4.01401 23.4512H8.00338C8.2676 23.4512 8.48156 23.2369 8.48156 22.973V13.2445H12.0567C12.3209 13.2445 12.5349 13.0305 12.5349 12.7663L12.5363 8.91088C12.5363 8.78402 12.4858 8.66252 12.3963 8.57274C12.3067 8.48296 12.1848 8.43246 12.0579 8.43246H8.48156V6.17673C8.48156 5.09253 8.73992 4.54214 10.1523 4.54214L12.2009 4.54141C12.4648 4.54141 12.6788 4.32721 12.6788 4.06323V0.48324C12.6788 0.219511 12.4651 0.00555041 12.2013 0.00506247Z" fill="#333333"/>
</svg>
