<svg width="693" height="638" viewBox="0 0 693 638" fill="none" xmlns="http://www.w3.org/2000/svg">
<g opacity="0.1" filter="url(#filter0_f_35_12612)">
<path d="M336.32 428L377.87 436.892V454.761L336.32 463.653L295 454.761V436.892L336.32 428Z" fill="black"/>
<path d="M294.97 428.887L329.853 453.946L372.894 457.308L337.795 432.171L294.97 428.887Z" fill="black"/>
<path d="M302.978 431.075L294.998 452.954L349.825 460.615L357.805 438.736L302.978 431.075Z" fill="black"/>
<path d="M368.325 233.233L405.091 243.47L404.13 259.582L366.409 265.379L329.436 255.129L330.397 239.017L368.325 233.233Z" fill="black"/>
<path d="M328.764 248.01L371.448 260.93L415.418 255.048L372.967 242.238L328.764 248.01Z" fill="black"/>
<path d="M306.948 423.992L299.006 445.766L353.551 453.325L361.532 431.446L306.948 423.992Z" fill="black"/>
<path d="M168.97 437.887L203.853 462.946L246.894 466.308L211.795 441.171L168.97 437.887Z" fill="black"/>
<path d="M180.948 432.992L173.006 454.766L227.551 462.325L235.532 440.446L180.948 432.992Z" fill="black"/>
<path d="M555.637 426.887L602.483 456.427L594.542 478.202L539.715 470.54L493.111 441.207L501.053 419.432L555.637 426.887Z" fill="black"/>
<path d="M372.659 510.974L419.262 540.308L474.089 547.969L427.242 518.429L372.659 510.974Z" fill="black"/>
<path d="M288.143 521.316L282.04 538.05L324.177 543.939L330.28 527.204L288.143 521.316Z" fill="black"/>
<path d="M504.211 167.267L559.145 171.42L562.346 194.375L510.629 213.288L455.415 209.287L452.214 186.331L504.211 167.267Z" fill="black"/>
<path d="M454.913 204.509L510.234 202.446L559.572 177.99L504.513 179.871L454.913 204.509Z" fill="black"/>
<path d="M416.943 327.887L409.001 349.662L463.547 357.221L471.489 335.446L416.943 327.887Z" fill="black"/>
<path opacity="0.5" d="M47.0357 328.133L50.9274 342.657L82.716 326.356L78.8242 311.832L47.0357 328.133Z" fill="black"/>
<path opacity="0.7" d="M285.946 533.301L289.838 547.825L321.626 531.524L317.734 517L285.946 533.301Z" fill="black"/>
<path d="M183.299 294.009L236.86 306.899L236.346 330.071L182.269 340.464L128.407 327.678L128.92 304.506L183.299 294.009Z" fill="black"/>
<path d="M123.229 316.733L177.091 329.519L231.168 319.126L177.608 306.235L123.229 316.733Z" fill="black"/>
<path d="M182.786 317.292L182.272 340.464L236.349 330.071L236.863 306.899L182.786 317.292Z" fill="black"/>
</g>
<path d="M514.553 19.0801L588.613 61.807L514.553 104.534L441.063 61.807L514.553 19.0801Z" fill="#BEBFC1"/>
<path d="M514.553 104.534L588.613 61.807V147.831L514.553 191.697V104.534Z" fill="#BEBFC1"/>
<path d="M441.063 61.807L514.553 104.534V191.697L441.063 148.97V61.807Z" fill="#BEBFC1"/>
<path d="M588.613 61.807L514.553 103.964L441.063 61.807L514.553 19.0801L588.613 61.807Z" fill="#C2DA6B"/>
<path d="M514.555 103.964V191.697L441.064 148.97V61.8066L514.555 103.964Z" fill="#383838"/>
<path d="M437.375 423.571L484.309 450.648L437.375 477.725L390.803 450.648L437.375 423.571Z" fill="#BEBFC1"/>
<path d="M437.375 477.725L484.309 450.648V505.163L437.375 532.962V477.725Z" fill="#BEBFC1"/>
<path d="M390.803 450.648L437.375 477.725V532.962L390.803 505.885V450.648Z" fill="#BEBFC1"/>
<path d="M484.309 450.648L437.375 477.364L390.803 450.648L437.375 423.571L484.309 450.648Z" fill="#383838"/>
<path d="M437.375 477.364V532.962L390.803 505.885V450.648L437.375 477.364Z" fill="#AAABAF"/>
<path d="M557.799 286.197L631.859 328.924L557.799 371.651L484.309 328.924L557.799 286.197Z" fill="#BEBFC1"/>
<path d="M557.799 371.651L631.859 328.924V414.948L557.799 458.814V371.651Z" fill="#BEBFC1"/>
<path d="M484.309 328.924L557.799 371.651V458.814L484.309 416.087V328.924Z" fill="#BEBFC1"/>
<path d="M631.859 328.924L557.799 371.081L484.309 328.924L557.799 286.197L631.859 328.924Z" fill="#F0F0F0"/>
<path d="M557.801 371.082V458.815L484.31 416.088V328.925L557.801 371.082Z" fill="#AAABAF"/>
<path d="M307.479 511.339L313.863 515.022L307.479 518.706L301.143 515.022L307.479 511.339Z" fill="#BEBFC1"/>
<path d="M307.479 518.706L313.863 515.022V522.438L307.479 526.22V518.706Z" fill="#BEBFC1"/>
<path d="M301.143 515.022L307.479 518.706V526.22L301.143 522.536V515.022Z" fill="#BEBFC1"/>
<path d="M313.863 515.022L307.479 518.656L301.143 515.022L307.479 511.339L313.863 515.022Z" fill="#ACC15A"/>
<path d="M307.48 518.657V526.22L301.145 522.536V515.022L307.48 518.657Z" fill="#AAABAF"/>
<path d="M307.671 493.53L320.223 500.772L307.671 508.013L295.215 500.772L307.671 493.53Z" fill="#BEBFC1"/>
<path d="M307.671 508.013L320.223 500.772V515.351L307.671 522.786V508.013Z" fill="#BEBFC1"/>
<path d="M295.215 500.772L307.671 508.013V522.786L295.215 515.544V500.772Z" fill="#BEBFC1"/>
<path d="M320.223 500.772L307.671 507.917L295.215 500.772L307.671 493.53L320.223 500.772Z" fill="#ACC15A"/>
<path d="M307.672 507.916V522.786L295.216 515.544V500.771L307.672 507.916Z" fill="#AAABAF"/>
<path d="M307.292 454.099L332.941 468.896L307.292 483.694L281.84 468.896L307.292 454.099Z" fill="#BEBFC1"/>
<path d="M307.292 483.694L332.941 468.896V498.689L307.292 513.882V483.694Z" fill="#BEBFC1"/>
<path d="M281.84 468.896L307.292 483.694V513.882L281.84 499.084V468.896Z" fill="#BEBFC1"/>
<path d="M332.941 468.896L307.292 483.497L281.84 468.896L307.292 454.099L332.941 468.896Z" fill="#CECFD1"/>
<path d="M307.293 483.497V513.882L281.841 499.084V468.896L307.293 483.497Z" fill="#AAABAF"/>
<path d="M332.378 350L370.047 371.732L332.378 393.464L295 371.732L332.378 350Z" fill="#BEBFC1"/>
<path d="M332.378 393.464L370.047 371.732V415.485L332.378 437.797V393.464Z" fill="#BEBFC1"/>
<path d="M295 371.732L332.378 393.464V437.797L295 416.065V371.732Z" fill="#BEBFC1"/>
<path d="M370.047 371.732L332.378 393.174L295 371.732L332.378 350L370.047 371.732Z" fill="#383838"/>
<path d="M332.379 393.174V437.796L295 416.064V371.731L332.379 393.174Z" fill="#AAABAF"/>
<path d="M441.217 291L459.578 301.593L441.217 312.186L422.996 301.593L441.217 291Z" fill="#BEBFC1"/>
<path d="M441.217 312.186L459.578 301.593V322.921L441.217 333.797V312.186Z" fill="#BEBFC1"/>
<path d="M422.996 301.593L441.217 312.186V333.797L422.996 323.203V301.593Z" fill="#BEBFC1"/>
<path d="M459.578 301.593L441.217 312.045L422.996 301.593L441.217 291L459.578 301.593Z" fill="#383838"/>
<path d="M441.215 312.045V333.796L422.995 323.203V301.593L441.215 312.045Z" fill="#AAABAF"/>
<path d="M331.454 324L357.109 338.801L331.454 353.602L305.996 338.801L331.454 324Z" fill="#BEBFC1"/>
<path d="M331.454 353.602L357.109 338.801V368.601L331.454 383.797V353.602Z" fill="#BEBFC1"/>
<path d="M305.996 338.801L331.454 353.602V383.797L305.996 368.995V338.801Z" fill="#BEBFC1"/>
<path d="M357.109 338.801L331.454 353.405L305.996 338.801L331.454 324L357.109 338.801Z" fill="#383838"/>
<path d="M331.453 353.405V383.796L305.995 368.995V338.801L331.453 353.405Z" fill="#AAABAF"/>
<path d="M441.454 246.322L467.109 261.123L441.454 275.925L415.996 261.123L441.454 246.322Z" fill="#BEBFC1"/>
<path d="M441.454 275.925L467.109 261.123V290.923L441.454 306.119V275.925Z" fill="#BEBFC1"/>
<path d="M415.996 261.123L441.454 275.925V306.119L415.996 291.318V261.123Z" fill="#BEBFC1"/>
<path d="M467.109 261.123L441.454 275.727L415.996 261.123L441.454 246.322L467.109 261.123Z" fill="#383838"/>
<path d="M441.453 275.727V306.118L415.995 291.317V261.123L441.453 275.727Z" fill="#AAABAF"/>
<path d="M208.336 342.356L251 366.97L208.336 391.584L166 366.97L208.336 342.356Z" fill="#BEBFC1"/>
<path d="M208.336 391.584L251 366.97V416.526L208.336 441.796V391.584Z" fill="#BEBFC1"/>
<path d="M166 366.97L208.336 391.584V441.796L166 417.183V366.97Z" fill="#BEBFC1"/>
<path d="M251 366.97L208.336 391.256L166 366.97L208.336 342.356L251 366.97Z" fill="#F0F0F0"/>
<path d="M208.336 391.256V441.797L166 417.183V366.971L208.336 391.256Z" fill="#AAABAF"/>
<path d="M188.924 143.734L262.984 186.461L188.924 229.188L115.434 186.461L188.924 143.734Z" fill="#BEBFC1"/>
<path d="M188.924 229.188L262.984 186.461V272.485L188.924 316.351V229.188Z" fill="#BEBFC1"/>
<path d="M115.434 186.461L188.924 229.188V316.351L115.434 273.624V186.461Z" fill="#BEBFC1"/>
<path d="M262.984 186.461L188.924 228.619L115.434 186.461L188.924 143.734L262.984 186.461Z" fill="#F0F0F0"/>
<path d="M188.926 228.619V316.352L115.435 273.625V186.462L188.926 228.619Z" fill="#AAABAF"/>
<path d="M374.147 160.271L409.262 180.529L374.147 200.787L339.302 180.529L374.147 160.271Z" fill="#BEBFC1"/>
<path d="M374.147 200.787L409.262 180.529V221.316L374.147 242.115V200.787Z" fill="#BEBFC1"/>
<path d="M339.302 180.529L374.147 200.787V242.115L339.302 221.856V180.529Z" fill="#BEBFC1"/>
<path d="M409.262 180.529L374.147 200.517L339.302 180.529L374.147 160.271L409.262 180.529Z" fill="#A2CC5C"/>
<path d="M374.148 200.518V242.115L339.304 221.857V180.529L374.148 200.518Z" fill="#AAABAF"/>
<path d="M514.062 5.08789L550.453 26.083L514.062 47.0782L477.95 26.083L514.062 5.08789Z" fill="#BEBFC1"/>
<path d="M514.062 47.0782L550.453 26.083V68.3532L514.062 89.9082V47.0782Z" fill="#BEBFC1"/>
<path d="M477.95 26.083L514.062 47.0782V89.9082L477.95 68.9131V26.083Z" fill="#BEBFC1"/>
<path d="M550.453 26.083L514.062 46.7982L477.95 26.083L514.062 5.08789L550.453 26.083Z" fill="#CECFD1"/>
<path d="M514.062 46.7982V89.9082L477.951 68.9131V26.083L514.062 46.7982Z" fill="#AAABAF"/>
<path d="M514.626 0L531.371 9.66061L514.626 19.3212L498.01 9.66061L514.626 0Z" fill="#BEBFC1"/>
<path d="M514.626 19.3212L531.371 9.66061V29.1106L514.626 39.0288V19.3212Z" fill="#BEBFC1"/>
<path d="M498.01 9.66061L514.626 19.3212V39.0288L498.01 29.3682V9.66061Z" fill="#BEBFC1"/>
<path d="M531.371 9.66061L514.626 19.1924L498.01 9.66061L514.626 0L531.371 9.66061Z" fill="#CECFD1"/>
<path d="M514.625 19.192V39.0284L498.009 29.3678V9.66016L514.625 19.192Z" fill="#AAABAF"/>
<g clip-path="url(#clip0_35_12612)">
<path d="M188.928 161.458L181.516 168.87L188.928 176.282L196.34 168.87L188.928 161.458Z" fill="#1C1C1C"/>
<path d="M188.928 168.823L181.516 176.235L188.928 183.648L196.34 176.235L188.928 168.823Z" fill="#1C1C1C"/>
<path d="M198.561 176.193L193.285 181.469L198.561 186.744L203.836 181.469L198.561 176.193Z" fill="#1C1C1C"/>
<path d="M179.404 176.221L174.129 181.496L179.404 186.771L184.68 181.496L179.404 176.221Z" fill="#1C1C1C"/>
<path d="M198.526 176.252H179.402V186.782H198.526V176.252Z" fill="#1C1C1C"/>
<path d="M205.513 144.474C204.286 143.246 202.916 142.113 201.689 140.886C200.555 139.799 199.328 138.761 198.478 137.486C197.769 136.447 196.967 135.975 195.833 135.644C195.409 135.503 195.078 135.455 194.795 135.361C194.747 135.361 194.7 135.408 194.606 135.361C191.442 134.605 187.901 133.425 184.595 133.944C181.573 135.455 179.401 136.211 178.221 139.469C176.804 143.341 177.229 149.243 178.079 153.21C178.835 156.704 181.385 159.065 179.401 164.542C184.879 164.448 189.176 169.028 194.606 168.839C196.4 168.65 198.383 169.831 198.667 168.131C199.186 165.061 198.997 161.992 198.006 159.017C196.967 155.948 195.031 153.493 192.811 151.226C192.103 150.471 189.459 147.732 188.703 147.024C188.751 146.93 188.798 146.882 188.845 146.788C190.073 147.071 193 148.771 194.086 148.299C195.881 147.543 197.486 147.685 198.903 149.149C199.139 149.385 199.422 149.621 199.705 149.857C200.366 150.424 201.169 150.613 202.019 150.471C203.483 150.235 204.711 149.527 205.655 148.393C206.694 147.166 206.694 145.607 205.513 144.474Z" fill="#1C1C1C"/>
<path d="M181.102 137.297C181.291 137.249 181.527 137.155 181.763 137.108C181.81 137.108 181.81 137.108 181.905 137.155C181.763 137.485 181.574 137.816 181.433 138.147C181.244 138.571 181.055 139.044 180.866 139.469C182.755 138.477 184.691 137.627 186.768 137.013C189.79 136.163 192.907 135.833 196.07 135.738C195.693 135.502 195.315 135.219 194.937 135.077C193.993 134.652 193.473 133.897 193.096 133C192.812 132.244 193.19 131.394 193.945 131.017C195.268 130.355 196.495 129.647 197.534 128.608C198.762 127.428 199.848 126.106 200.32 124.406C200.745 122.989 200.603 121.62 200.131 120.251C200.084 120.109 199.942 120.015 199.801 119.92C199.659 120.062 199.47 120.156 199.47 120.345C199.376 120.864 199.281 121.431 199.281 121.951C199.14 124.311 197.912 126.106 196.212 127.617C195.645 128.136 194.984 128.514 194.37 128.986L194.323 128.892C194.607 128.561 194.937 128.231 195.173 127.853C195.456 127.428 195.693 126.956 195.834 126.436C195.929 126.106 195.834 125.728 195.693 125.397C195.551 125.02 195.173 125.02 194.984 125.397C194.323 126.767 193.143 127.664 191.915 128.514C191.537 128.75 191.112 128.892 190.735 129.081L190.64 128.986C190.829 128.797 191.018 128.561 191.254 128.372C192.293 127.286 193.096 126.106 193.332 124.642C193.426 124.17 193.379 123.65 193.332 123.178C193.332 122.989 193.143 122.848 193.001 122.706C192.859 122.848 192.671 122.989 192.576 123.131C192.434 123.367 192.387 123.65 192.293 123.934C191.632 125.775 190.546 127.239 188.94 128.372C188.138 128.939 187.807 128.939 186.863 128.372C187.24 127.664 187.571 126.956 187.996 126.295C189.365 124.028 189.979 121.62 189.412 119.07C189.129 117.937 188.61 116.993 188.185 116.048C188.09 115.859 187.807 115.812 187.571 115.718C187.524 115.907 187.382 116.095 187.382 116.284C187.429 117.984 187.571 119.684 187.571 121.384C187.524 122.8 187.24 124.17 186.39 125.35C185.871 126.059 185.257 126.578 184.407 126.861C184.03 127.003 183.557 127.003 183.132 126.908C181.196 126.436 180.016 125.067 179.78 123.037C179.591 121.431 179.449 119.778 179.213 118.173C179.024 116.756 178.647 115.434 178.033 114.159C177.938 114.018 177.749 113.876 177.655 113.734C177.561 113.923 177.324 114.159 177.324 114.348C177.372 115.198 177.561 116.001 177.655 116.851C177.844 118.504 178.033 120.156 178.222 121.809C178.222 121.998 178.222 122.234 178.127 122.423C177.891 121.903 177.608 121.384 177.372 120.864C177.136 120.392 176.947 119.92 176.711 119.448C176.286 118.692 176.144 117.89 176.144 116.993C176.191 115.198 176.097 113.451 176.002 111.657C175.908 110.24 175.389 108.965 174.539 107.879C174.444 107.785 174.397 107.643 174.35 107.549H173.736C173.83 108.068 173.83 108.635 173.972 109.154C174.397 111.09 174.68 113.073 174.444 115.057C174.35 115.859 174.161 116.615 173.972 117.418C173.925 117.512 173.736 117.606 173.594 117.654C172.555 117.701 171.753 117.181 170.903 116.709C167.645 115.057 165.048 112.696 162.781 109.957C162.403 109.485 161.978 109.06 161.553 108.635C161.506 108.588 161.412 108.493 161.365 108.446C161.081 108.21 160.751 108.163 160.42 108.352C160.137 108.54 160.326 108.871 160.42 109.06C161.742 112.082 163.726 114.632 166.464 116.473C168.636 117.937 170.903 119.306 173.405 120.203C173.736 120.298 174.019 120.628 174.255 120.912C175.2 122.234 176.05 123.556 176.994 124.878C177.466 125.492 178.033 126.059 178.552 126.672C178.647 126.767 178.741 126.908 178.93 127.097C177.655 127.003 176.475 126.814 175.341 126.389C173.405 125.681 171.658 124.689 170.053 123.414C169.864 123.273 169.675 123.037 169.581 122.8C169.108 121.762 168.683 120.676 168.259 119.637C168.211 119.495 168.164 119.353 168.07 119.259C167.928 119.117 167.692 118.929 167.55 118.976C167.361 118.976 167.172 119.165 167.031 119.353C166.889 119.542 166.889 119.778 166.795 120.015C166.134 119.353 165.425 118.74 164.812 118.079C164.103 117.323 163.442 116.473 162.734 115.67C162.498 115.387 162.262 115.104 162.026 114.868C161.79 114.632 161.553 114.254 161.223 114.49C161.034 114.632 160.987 115.104 161.081 115.387C161.412 116.143 161.79 116.851 162.167 117.559C162.356 117.89 162.545 118.22 162.781 118.645C161.128 118.267 159.712 117.701 158.437 116.804C157.02 115.812 155.934 114.49 154.754 113.262C154.518 112.837 154.187 112.507 153.81 112.176C153.385 111.799 153.007 111.799 152.629 112.082C152.299 112.365 152.299 112.79 152.582 113.262C154.423 115.812 156.548 118.126 159.476 119.495C160.751 120.062 162.12 120.487 163.395 120.959C163.867 121.148 164.387 121.289 164.859 121.478C165.142 121.573 165.378 121.762 165.567 121.951C166.984 123.367 168.306 124.878 169.958 126.011C171.894 127.333 173.925 128.419 176.286 128.892C176.9 129.033 177.561 129.317 178.127 129.6C180.063 130.686 182.188 131.205 184.36 131.63C184.691 131.678 184.974 131.772 185.352 131.819C184.407 132.575 183.416 132.952 182.33 132.433C179.591 131.205 176.711 130.828 173.736 131.158C173.358 131.205 172.933 131.347 172.555 131.441C172.319 131.489 172.225 131.678 172.367 131.914C173.311 133.425 174.161 135.03 175.625 136.163C177.324 137.485 179.119 137.958 181.102 137.297Z" fill="#1C1C1C"/>
</g>
<g clip-path="url(#clip1_35_12612)">
<path d="M429.323 449.247C429.323 446.843 432.776 444.876 437.17 444.876C441.563 444.876 445.016 446.843 445.016 449.247C445.016 451.651 441.563 453.617 437.17 453.617C432.776 453.617 429.323 451.651 429.323 449.247Z" fill="#7EBA4C"/>
<path d="M430.058 446.188C430.058 444.002 433.301 442.254 437.171 442.254C441.147 442.254 444.285 444.002 444.285 446.188C444.285 448.373 441.042 450.121 437.171 450.121C433.196 450.121 430.058 448.373 430.058 446.188Z" fill="#C2DA6B"/>
<path d="M436.96 446.297H437.379C437.902 446.297 438.32 445.86 438.32 445.313V431.108C438.32 430.562 437.902 430.125 437.379 430.125H436.96C436.437 430.125 436.019 430.562 436.019 431.108V445.313C436.123 445.969 436.437 446.297 436.96 446.297Z" fill="#0F0F0F"/>
<path d="M429.116 433.731C429.116 431.218 432.673 429.251 437.171 429.251C441.565 429.251 445.227 431.218 445.227 433.731C445.227 436.135 441.67 438.211 437.171 438.211C432.777 438.211 429.116 436.135 429.116 433.731Z" fill="#C2DA6B"/>
<path d="M437.17 418.543L429.323 432.748H445.016L437.17 418.543Z" fill="#C2DA6B"/>
<path d="M437.695 430.672C435.394 430.672 433.197 430.344 431.627 428.596L437.172 418.543L442.926 428.923C441.67 430.344 439.264 430.672 437.695 430.672Z" fill="#7EBA4C"/>
<path d="M429.954 424.334C429.954 422.149 433.197 420.291 437.172 420.291C441.148 420.291 444.391 422.149 444.391 424.334C444.391 426.519 441.148 428.377 437.172 428.377C433.197 428.377 429.954 426.629 429.954 424.334Z" fill="#C2DA6B"/>
<path d="M437.171 410.676L430.162 423.46H444.285L437.171 410.676Z" fill="#C2DA6B"/>
<path d="M437.59 421.603C435.498 421.603 433.51 421.275 432.15 419.745L437.172 410.676L442.402 420.073C441.252 421.275 439.055 421.603 437.59 421.603Z" fill="#7EBA4C"/>
<path d="M430.895 416.139C430.895 414.172 433.72 412.643 437.172 412.643C440.625 412.643 443.449 414.172 443.449 416.139C443.449 418.106 440.625 419.636 437.172 419.636C433.72 419.636 430.895 418.106 430.895 416.139Z" fill="#C2DA6B"/>
<path d="M437.171 404.338L431.103 415.374H443.238L437.171 404.338Z" fill="#C2DA6B"/>
</g>
<g clip-path="url(#clip2_35_12612)">
<path d="M374.936 161.122L369.961 166.097L374.936 171.071L379.91 166.097L374.936 161.122Z" fill="#1C1C1C"/>
<path d="M374.936 166.065L369.961 171.04L374.936 176.015L379.91 171.04L374.936 166.065Z" fill="#1C1C1C"/>
<path d="M374.939 155.036L369.965 160.011L374.939 164.985L379.914 160.011L374.939 155.036Z" fill="#1C1C1C"/>
<path d="M381.38 171.034L377.84 174.574L381.38 178.115L384.921 174.574L381.38 171.034Z" fill="#1C1C1C"/>
<path d="M368.544 171.03L365.004 174.57L368.544 178.111L372.085 174.57L368.544 171.03Z" fill="#1C1C1C"/>
<path d="M381.354 171.067H368.52V178.134H381.354V171.067Z" fill="#1C1C1C"/>
<path fill-rule="evenodd" clip-rule="evenodd" d="M381.544 149.327L378.217 146L371.562 152.655L374.889 149.327L371.562 146L368.234 149.327L371.562 152.655L368.234 155.982L371.562 159.31L374.889 155.982L378.217 159.31L381.544 155.982L378.217 152.655L381.544 149.327Z" fill="#1C1C1C"/>
</g>
<g clip-path="url(#clip3_35_12612)">
<path d="M569.109 323.785C568.812 322.901 568.664 322.018 568.367 321.134C568.218 320.545 567.922 320.398 567.476 320.398C566.735 320.398 565.993 320.398 565.251 320.398C565.102 319.22 564.954 319.073 563.767 318.925V317.895C560.206 319.367 556.199 319.073 552.341 318.336V318.778C551.154 319.073 551.006 319.073 550.857 320.251C550.412 320.251 549.967 320.251 549.522 320.251C548.928 320.251 548.631 320.545 548.483 321.134C548.335 322.165 548.038 323.048 547.889 324.079C547.741 324.815 548.038 325.257 548.631 325.257C548.78 325.257 548.928 325.257 549.076 325.257C555.309 325.257 561.689 325.257 567.922 325.257C569.257 325.404 569.554 324.963 569.109 323.785Z" fill="black"/>
<path d="M569.258 325.404C569.258 322.312 564.361 319.661 558.426 319.661C552.491 319.661 547.594 322.164 547.594 325.404C547.594 328.496 552.491 331.147 558.426 331.147C564.51 331 569.258 328.496 569.258 325.404Z" fill="black"/>
<path d="M568.368 321.282C568.368 318.484 563.917 316.128 558.575 316.128C553.084 316.128 548.781 318.484 548.781 321.282C548.781 324.08 553.233 326.436 558.575 326.436C563.917 326.436 568.368 324.08 568.368 321.282Z" fill="#383838"/>
<path d="M558.87 321.134H558.277C557.535 321.134 556.941 320.545 556.941 319.809V300.519C556.941 299.782 557.535 299.193 558.277 299.193H558.87C559.612 299.193 560.206 299.782 560.206 300.519V319.809C560.058 320.545 559.464 321.134 558.87 321.134Z" fill="#0F0F0F"/>
<path d="M570 303.906C570 300.519 564.806 297.868 558.426 297.868C552.194 297.868 547 300.666 547 303.906C547 307.292 552.194 309.943 558.574 309.943C564.806 310.09 570 307.292 570 303.906Z" fill="#383838"/>
<path d="M558.574 283.438L569.703 302.58H547.297L558.574 283.438Z" fill="#383838"/>
<path d="M557.833 299.93C561.098 299.93 564.214 299.488 566.588 297.132L558.575 283.438L550.266 297.574C552.046 299.341 555.459 299.93 557.833 299.93Z" fill="#0F0F0F"/>
<path d="M568.962 291.241C568.962 288.149 564.362 285.793 558.575 285.793C552.787 285.793 548.188 288.296 548.188 291.241C548.188 294.334 552.787 296.69 558.575 296.69C564.362 296.69 568.962 294.186 568.962 291.241Z" fill="#383838"/>
<path d="M558.575 272.688L568.665 289.916H548.484L558.575 272.688Z" fill="#383838"/>
<path d="M557.834 287.56C560.801 287.56 563.621 287.118 565.698 285.057L558.576 272.688L551.156 285.498C552.789 286.971 555.756 287.56 557.834 287.56Z" fill="#0F0F0F"/>
<path d="M567.478 280.051C567.478 277.4 563.472 275.339 558.427 275.339C553.53 275.339 549.375 277.4 549.375 280.051C549.375 282.702 553.381 284.763 558.427 284.763C563.472 284.763 567.478 282.702 567.478 280.051Z" fill="#383838"/>
<path d="M558.575 264L567.182 279.02H549.82L558.575 264Z" fill="#383838"/>
</g>
<g clip-path="url(#clip4_35_12612)">
<path d="M271.8 441.613C271.8 437.473 268.384 434 264.31 434C260.237 434 256.82 437.473 256.82 441.613C256.82 445.754 260.237 449.227 264.31 449.227C268.515 449.227 271.8 445.754 271.8 441.613Z" fill="white"/>
<path d="M268.381 435.202C268.775 437.473 268.644 440.011 267.592 442.281C266.41 445.22 264.045 447.357 261.285 448.559C262.205 448.96 263.256 449.227 264.307 449.227C268.381 449.227 271.797 445.754 271.797 441.613C271.797 438.942 270.483 436.538 268.381 435.202Z" fill="#E6E7E8"/>
<path d="M266.282 445.754C266.282 439.744 261.42 434.802 255.507 434.802C249.594 434.802 244.863 439.744 244.863 445.754C244.863 451.765 249.725 456.707 255.638 456.707C261.551 456.707 266.282 451.899 266.282 445.754Z" fill="white"/>
<path d="M261.419 436.671C262.076 440.01 261.813 443.483 260.367 446.822C258.659 450.963 255.374 454.168 251.301 455.771C252.615 456.305 254.06 456.706 255.637 456.706C261.55 456.706 266.412 451.764 266.412 445.754C266.28 442.014 264.309 438.541 261.419 436.671Z" fill="#E6E7E8"/>
<path d="M254.98 453.367C254.98 449.227 251.563 445.754 247.49 445.754C243.416 445.754 240 449.227 240 453.367C240 457.508 243.416 460.981 247.49 460.981C251.563 460.981 254.98 457.642 254.98 453.367Z" fill="white"/>
<path d="M251.564 446.956C251.959 449.227 251.827 451.765 250.776 454.035C249.593 456.974 247.228 459.111 244.469 460.313C245.389 460.714 246.44 460.981 247.491 460.981C251.564 460.981 254.981 457.508 254.981 453.367C254.981 450.696 253.535 448.425 251.564 446.956Z" fill="#E6E7E8"/>
</g>
<g clip-path="url(#clip5_35_12612)">
<path d="M110.98 139.254C110.98 135.853 108.081 133 104.625 133C101.168 133 98.2695 135.853 98.2695 139.254C98.2695 142.655 101.168 145.508 104.625 145.508C108.192 145.508 110.98 142.655 110.98 139.254Z" fill="white"/>
<path d="M108.083 133.987C108.417 135.852 108.306 137.937 107.414 139.802C106.411 142.216 104.404 143.972 102.062 144.959C102.843 145.288 103.735 145.508 104.627 145.508C108.083 145.508 110.982 142.655 110.982 139.254C110.982 137.059 109.867 135.084 108.083 133.987Z" fill="#E6E7E8"/>
<path d="M106.298 142.655C106.298 137.718 102.173 133.658 97.1558 133.658C92.1387 133.658 88.125 137.718 88.125 142.655C88.125 147.592 92.2502 151.652 97.2673 151.652C102.284 151.652 106.298 147.702 106.298 142.655Z" fill="white"/>
<path d="M102.175 135.194C102.732 137.937 102.509 140.79 101.283 143.533C99.8333 146.934 97.0461 149.567 93.5898 150.884C94.7048 151.323 95.9312 151.652 97.269 151.652C102.286 151.652 106.411 147.592 106.411 142.655C106.3 139.583 104.627 136.73 102.175 135.194Z" fill="#E6E7E8"/>
<path d="M96.71 148.909C96.71 145.508 93.8112 142.655 90.355 142.655C86.8988 142.655 84 145.508 84 148.909C84 152.31 86.8988 155.163 90.355 155.163C93.8112 155.163 96.71 152.42 96.71 148.909Z" fill="white"/>
<path d="M93.8096 143.643C94.1441 145.508 94.0326 147.592 93.1406 149.458C92.1372 151.871 90.1304 153.627 87.7891 154.614C88.5695 154.943 89.4614 155.163 90.3534 155.163C93.8096 155.163 96.7083 152.31 96.7083 148.909C96.7083 146.715 95.4819 144.849 93.8096 143.643Z" fill="#E6E7E8"/>
</g>
<path d="M441.036 214L463.957 227.224L441.036 240.447L418.291 227.224L441.036 214Z" fill="#BEBFC1"/>
<path d="M441.036 240.447L463.957 227.224V253.847L441.036 267.423V240.447Z" fill="#BEBFC1"/>
<path d="M418.291 227.224L441.036 240.447V267.423L418.291 254.2V227.224Z" fill="#BEBFC1"/>
<path d="M463.957 227.224L441.036 240.271L418.291 227.224L441.036 214L463.957 227.224Z" fill="#CECFD1"/>
<path d="M441.035 240.271V267.423L418.291 254.2V227.224L441.035 240.271Z" fill="#AAABAF"/>
<defs>
<filter id="filter0_f_35_12612" x="23.0352" y="143.267" width="603.449" height="428.703" filterUnits="userSpaceOnUse" color-interpolation-filters="sRGB">
<feFlood flood-opacity="0" result="BackgroundImageFix"/>
<feBlend mode="normal" in="SourceGraphic" in2="BackgroundImageFix" result="shape"/>
<feGaussianBlur stdDeviation="12" result="effect1_foregroundBlur_35_12612"/>
</filter>
<clipPath id="clip0_35_12612">
<rect width="54.0181" height="79.1857" fill="white" transform="translate(152.395 107.549)"/>
</clipPath>
<clipPath id="clip1_35_12612">
<rect width="16.1107" height="49.2797" fill="white" transform="matrix(-1 0 0 1 445.227 404.338)"/>
</clipPath>
<clipPath id="clip2_35_12612">
<rect width="19.9014" height="32.1021" fill="white" transform="translate(365 146)"/>
</clipPath>
<clipPath id="clip3_35_12612">
<rect width="23" height="67" fill="white" transform="translate(547 264)"/>
</clipPath>
<clipPath id="clip4_35_12612">
<rect width="31.7988" height="26.9808" fill="white" transform="translate(240 434)"/>
</clipPath>
<clipPath id="clip5_35_12612">
<rect width="26.9808" height="22.1628" fill="white" transform="translate(84 133)"/>
</clipPath>
</defs>
</svg>
