<svg width="18" height="12" viewBox="0 0 18 12" fill="none" xmlns="http://www.w3.org/2000/svg">
<path d="M7.96015 0.452439L0.438975 8.41927C0.146285 8.71266 3.48322e-08 9.07903 2.95844e-08 9.5191C2.43367e-08 9.95917 0.146446 10.3255 0.438975 10.6189L1.30559 11.5476C1.5906 11.8491 1.93703 11.9998 2.34525 11.9998C2.74574 11.9998 3.0963 11.8491 3.39659 11.5476L9.00004 5.60898L14.615 11.5479C14.9 11.8493 15.2465 12 15.6547 12C16.0552 12 16.4058 11.8493 16.706 11.5479L17.5725 10.6191C17.8575 10.3177 18 9.95091 18 9.51927C18 9.08746 17.8575 8.72079 17.5725 8.41944L10.0513 0.452439C9.75097 0.15087 9.40049 -8.41575e-07 9 -8.4635e-07C8.59178 -4.37666e-05 8.24515 0.15087 7.96015 0.452439Z" fill="#A2CC5C"/>
</svg>
